{
.appVersion = "1075";
DisplayStrings = (
"A\U00C0BCDE\U00C9\U00CA\U00C8FGHIJKLMNO\U00D4PQRSTUVWXYZa\U00E2\U00E4\U00E0bc\U00E7de\U00E9\U00EA\U00EB\U00E8fghi\U00EFjklmno\U00F4\U00F6/oe pqrstu\U00FC\U00F9vwxyz0123456789/zero.osf/one.osf/two.osf/three.osf/four.osf/five.osf/six.osf/seven.osf/eight.osf/nine.osf :,!.?\"'//()-$/euro \U00B0\U00B4/circumflex `\012\01220.04.2018\012\01211.10.1997"
);
date = "2018-01-31 08:44:50 +0000";
designer = "Adrien Requin";
familyName = Diodon;
fontMaster = (
{
alignmentZones = (
"{800, 16}",
"{655, 29}",
"{500, 19}",
"{0, -19}",
"{-200, -20}"
);
ascender = 700;
capHeight = 655;
descender = -200;
guideLines = (
{
position = "{223, 23}";
},
{
position = "{338, 184}";
}
);
id = "7F20675F-B4B1-45FA-B0F6-A97D5A641B97";
weight = Bold;
weightValue = 200;
xHeight = 500;
},
{
alignmentZones = (
"{800, 16}",
"{655, 29}",
"{500, 17}",
"{0, -16}",
"{-200, -16}"
);
ascender = 700;
capHeight = 700;
descender = -200;
guideLines = (
{
position = "{53, 655}";
},
{
position = "{467, 1406}";
},
{
position = "{140, 167}";
},
{
position = "{32, 633}";
}
);
id = "1195BCD1-8D25-4D5E-8C85-FC733C7A5356";
weight = Light;
weightValue = 50;
xHeight = 500;
}
);
glyphs = (
{
glyphname = A;
lastChange = "2018-04-11 20:05:19 +0000";
layers = (
{
layerId = "7F20675F-B4B1-45FA-B0F6-A97D5A641B97";
paths = (
{
closed = 1;
nodes = (
"156 213 LINE",
"611 213 LINE",
"611 233 LINE",
"156 233 LINE"
);
},
{
closed = 1;
nodes = (
"55 0 LINE",
"355 606 LINE",
"342 624 LINE",
"33 0 LINE"
);
},
{
closed = 1;
nodes = (
"146 654 LINE",
"544 368 LINE",
"564 368 LINE",
"432 655 LINE"
);
},
{
closed = 1;
nodes = (
"770 1 LINE",
"621 263 LINE",
"599 263 LINE",
"502 2 LINE",
"502 0 LINE",
"770 0 LINE"
);
},
{
closed = 1;
nodes = (
"35 0 LINE",
"295 0 LINE",
"295 2 LINE",
"184 263 LINE",
"164 263 LINE",
"35 2 LINE"
);
},
{
closed = 1;
nodes = (
"411 655 LINE",
"388 655 LINE",
"740 0 LINE",
"762 0 LINE"
);
}
);
width = 805;
},
{
layerId = "1195BCD1-8D25-4D5E-8C85-FC733C7A5356";
paths = (
{
closed = 1;
nodes = (
"236 213 LINE",
"641 213 LINE",
"641 233 LINE",
"236 233 LINE"
);
},
{
closed = 1;
nodes = (
"155 0 LINE",
"415 606 LINE",
"402 624 LINE",
"133 0 LINE"
);
},
{
closed = 1;
nodes = (
"396 654 LINE",
"524 368 LINE",
"544 368 LINE",
"415 655 LINE"
);
},
{
closed = 1;
nodes = (
"829 23 LINE",
"699 23 LINE",
"677 23 LINE",
"561 23 LINE",
"561 0 LINE",
"829 0 LINE"
);
},
{
closed = 1;
nodes = (
"35 0 LINE",
"295 0 LINE",
"295 23 LINE",
"171 23 LINE",
"153 23 LINE",
"35 23 LINE"
);
},
{
closed = 1;
nodes = (
"490 655 LINE",
"337 655 LINE",
"639 0 LINE",
"791 0 LINE"
);
}
);
width = 884;
},
{
associatedMasterId = "1195BCD1-8D25-4D5E-8C85-FC733C7A5356";
layerId = "5F28D883-936F-42AA-9FA5-4D2EAA3AC5FD";
name = "Feb 9 18, 20:43";
paths = (
{
closed = 1;
nodes = (
"113 231 OFFCURVE",
"212 463 OFFCURVE",
"290 694 CURVE",
"350 694 LINE",
"650 2 LINE",
"522 2 LINE",
"316 577 LINE",
"107 2 LINE",
"35 0 LINE"
);
},
{
closed = 1;
nodes = (
"523 288 LINE",
"523 220 LINE",
"173 220 LINE",
"174 288 LINE"
);
}
);
width = 675;
},
{
associatedMasterId = "1195BCD1-8D25-4D5E-8C85-FC733C7A5356";
layerId = "FC008BD7-6D71-43C9-A289-9B3A70A69D6D";
name = "Feb 9 18, 20:53";
paths = (
{
closed = 1;
nodes = (
"312 557 LINE",
"218 694 LINE",
"360 694 LINE",
"660 2 LINE",
"540 2 LINE"
);
},
{
closed = 1;
nodes = (
"523 279 LINE",
"523 220 LINE",
"173 220 LINE",
"174 279 LINE"
);
},
{
closed = 1;
nodes = (
"368 592 LINE",
"117 2 LINE",
"35 0 LINE",
"331 615 LINE"
);
},
{
closed = 1;
nodes = (
"186 111 OFFCURVE",
"207 56 OFFCURVE",
"239 0 CURVE",
"66 0 LINE",
"174 167 LINE"
);
}
);
width = 685;
},
{
associatedMasterId = "7F20675F-B4B1-45FA-B0F6-A97D5A641B97";
layerId = "FA5F7E94-F258-43CF-A7F0-648522D721BE";
name = "Feb 23 18, 10:48";
paths = (
{
closed = 1;
nodes = (
"710 2 LINE",
"390 654 LINE",
"158 654 LINE",
"529 315 LINE",
"556 211 OFFCURVE",
"543 116 OFFCURVE",
"490 2 CURVE"
);
},
{
closed = 1;
nodes = (
"149 214 LINE",
"563 214 LINE",
"563 239 LINE",
"154 239 LINE"
);
},
{
closed = 1;
nodes = (
"35 0 LINE",
"68 2 LINE",
"333 559 LINE",
"321 585 LINE"
);
},
{
closed = 1;
nodes = (
"42 0 LINE",
"215 0 LINE",
"183 56 OFFCURVE",
"156 111 OFFCURVE",
"144 167 CURVE"
);
}
);
width = 745;
},
{
associatedMasterId = "7F20675F-B4B1-45FA-B0F6-A97D5A641B97";
layerId = "4096C18F-B103-4C39-BE0B-1322548E42D2";
name = "Feb 27 18, 09:04";
paths = (
{
closed = 1;
nodes = (
"343 624 LINE",
"35 0 LINE",
"297 0 LINE",
"243 70 OFFCURVE",
"201 142 OFFCURVE",
"173 216 CURVE",
"360 606 LINE"
);
},
{
closed = 1;
nodes = (
"167 214 LINE",
"642 214 LINE",
"642 239 LINE",
"167 239 LINE"
);
},
{
closed = 1;
nodes = (
"517 436 LINE",
"629 226 LINE",
"603 146 OFFCURVE",
"568 72 OFFCURVE",
"522 2 CURVE",
"772 2 LINE",
"397 725 LINE",
"201 500 LINE"
);
}
);
width = 807;
},
{
associatedMasterId = "7F20675F-B4B1-45FA-B0F6-A97D5A641B97";
layerId = "7B85E216-D9FD-49E9-97C2-A65EFA8261EB";
name = "Mar 4 18, 21:36";
paths = (
{
closed = 1;
nodes = (
"343 624 LINE",
"35 0 LINE",
"297 0 LINE",
"243 70 OFFCURVE",
"201 142 OFFCURVE",
"173 216 CURVE",
"360 606 LINE"
);
},
{
closed = 1;
nodes = (
"167 214 LINE",
"642 214 LINE",
"642 239 LINE",
"167 239 LINE"
);
},
{
closed = 1;
nodes = (
"289 571 OFFCURVE",
"441 457 OFFCURVE",
"568 341 CURVE",
"629 226 LINE",
"603 146 OFFCURVE",
"568 72 OFFCURVE",
"522 2 CURVE",
"772 2 LINE",
"433 655 LINE",
"146 655 LINE"
);
}
);
width = 807;
},
{
associatedMasterId = "7F20675F-B4B1-45FA-B0F6-A97D5A641B97";
layerId = "4ED3576C-601E-4556-8175-EF33D933A9F1";
width = 807;
},
{
associatedMasterId = "7F20675F-B4B1-45FA-B0F6-A97D5A641B97";
layerId = "2DC7A842-2238-4864-853B-A3741C433D01";
name = "Apr 1 18, 20:35";
paths = (
{
closed = 1;
nodes = (
"156 214 LINE",
"631 214 LINE",
"631 239 LINE",
"156 239 LINE"
);
},
{
closed = 1;
nodes = (
"59 0 LINE",
"359 606 LINE",
"342 624 LINE",
"33 0 LINE"
);
},
{
closed = 1;
nodes = (
"216 654 LINE",
"580 321 LINE",
"604 321 LINE",
"432 655 LINE",
"216 655 LINE"
);
},
{
closed = 1;
nodes = (
"617 22 LINE",
"617 0 LINE",
"652 0 LINE",
"652 22 LINE"
);
},
{
closed = 1;
nodes = (
"770 1 LINE",
"604 321 LINE",
"580 321 LINE",
"572 0 LINE",
"602 0 LINE",
"770 0 LINE"
);
},
{
closed = 1;
nodes = (
"35 0 LINE",
"295 0 LINE",
"295 2 LINE",
"167 216 LINE",
"141 216 LINE",
"35 2 LINE"
);
},
{
closed = 1;
nodes = (
"127 22 LINE",
"127 0 LINE",
"162 0 LINE",
"162 22 LINE"
);
}
);
width = 805;
},
{
associatedMasterId = "7F20675F-B4B1-45FA-B0F6-A97D5A641B97";
layerId = "EFA94EA8-AAF9-45B8-BDB3-3D07A7340088";
name = "Apr 1 18, 20:46";
paths = (
{
closed = 1;
nodes = (
"156 214 LINE",
"631 214 LINE",
"631 239 LINE",
"156 239 LINE"
);
},
{
closed = 1;
nodes = (
"199 0 LINE",
"518 656 LINE",
"352 654 LINE",
"33 0 LINE"
);
},
{
closed = 1;
nodes = (
"35 0 LINE",
"185 0 LINE",
"185 2 LINE",
"167 216 LINE",
"141 216 LINE",
"35 2 LINE"
);
},
{
closed = 1;
nodes = (
"739 0 LINE",
"770 0 LINE",
"770 1 LINE",
"432 655 LINE",
"403 655 LINE"
);
},
{
closed = 1;
nodes = (
"642 244 LINE",
"620 244 LINE",
"627 3 LINE",
"627 0 LINE",
"852 0 LINE",
"852 1 LINE"
);
}
);
width = 887;
},
{
associatedMasterId = "1195BCD1-8D25-4D5E-8C85-FC733C7A5356";
layerId = "5D7F8EE5-441A-4C7E-8969-72B28007F2BE";
name = "Apr 1 18, 22:17";
paths = (
{
closed = 1;
nodes = (
"252 212 LINE",
"661 212 LINE",
"661 233 LINE",
"252 233 LINE"
);
},
{
closed = 1;
nodes = (
"159 0 LINE",
"425 606 LINE",
"408 624 LINE",
"133 0 LINE"
);
},
{
closed = 1;
nodes = (
"35 0 LINE",
"295 0 LINE",
"295 23 LINE",
"167 23 LINE",
"141 23 LINE",
"35 23 LINE"
);
},
{
closed = 1;
nodes = (
"632 1 LINE",
"800 0 LINE",
"800 1 LINE",
"498 655 LINE",
"332 655 LINE"
);
},
{
closed = 1;
nodes = (
"692 23 LINE",
"670 23 LINE",
"557 23 LINE",
"557 0 LINE",
"862 0 LINE",
"862 23 LINE"
);
}
);
width = 897;
},
{
associatedMasterId = "7F20675F-B4B1-45FA-B0F6-A97D5A641B97";
layerId = "43BC7374-B729-4CC6-BF68-34089A5EF4F7";
name = "Apr 5 18, 11:43";
paths = (
{
closed = 1;
nodes = (
"156 213 LINE",
"631 213 LINE",
"631 233 LINE",
"156 233 LINE"
);
},
{
closed = 1;
nodes = (
"55 0 LINE",
"355 606 LINE",
"342 624 LINE",
"33 0 LINE"
);
},
{
closed = 1;
nodes = (
"106 654 LINE",
"580 321 LINE",
"604 321 LINE",
"432 655 LINE"
);
},
{
closed = 1;
nodes = (
"770 1 LINE",
"604 321 LINE",
"580 321 LINE",
"502 2 LINE",
"502 0 LINE",
"770 0 LINE"
);
},
{
closed = 1;
nodes = (
"35 0 LINE",
"295 0 LINE",
"295 2 LINE",
"141 216 LINE",
"140 216 LINE",
"35 2 LINE"
);
}
);
width = 805;
},
{
associatedMasterId = "7F20675F-B4B1-45FA-B0F6-A97D5A641B97";
layerId = "A521EEDC-8E54-4A39-941A-06C44C1BD48F";
paths = (
{
closed = 1;
nodes = (
"209 213 LINE",
"631 213 LINE",
"631 233 LINE",
"209 233 LINE"
);
},
{
closed = 1;
nodes = (
"122 0 LINE",
"395 606 LINE",
"382 624 LINE",
"100 0 LINE"
);
},
{
closed = 1;
nodes = (
"313 654 LINE",
"531 368 LINE",
"551 368 LINE",
"421 655 LINE"
);
},
{
closed = 1;
nodes = (
"809 16 LINE",
"673 103 LINE",
"651 103 LINE",
"541 16 LINE",
"541 0 LINE",
"809 0 LINE"
);
},
{
closed = 1;
nodes = (
"35 0 LINE",
"295 0 LINE",
"295 16 LINE",
"175 103 LINE",
"157 103 LINE",
"35 16 LINE"
);
},
{
closed = 1;
nodes = (
"464 655 LINE",
"354 655 LINE",
"673 0 LINE",
"781 0 LINE"
);
}
);
width = 858;
}
);
unicode = 0041;
},
{
glyphname = B;
lastChange = "2018-04-11 20:05:19 +0000";
layers = (
{
layerId = "7F20675F-B4B1-45FA-B0F6-A97D5A641B97";
paths = (
{
closed = 1;
nodes = (
"182 636 LINE",
"166 636 LINE",
"166 0 LINE",
"186 0 LINE"
);
},
{
closed = 1;
nodes = (
"185 263 LINE",
"166 263 LINE",
"52 3 LINE",
"52 0 LINE",
"302 0 LINE",
"302 2 LINE"
);
},
{
closed = 1;
nodes = (
"292 655 LINE",
"35 655 LINE",
"35 652 LINE",
"167 369 LINE",
"184 369 LINE",
"292 652 LINE"
);
},
{
closed = 1;
nodes = (
"316 631 LINE SMOOTH",
"420 631 OFFCURVE",
"463 563 OFFCURVE",
"463 493 CURVE SMOOTH",
"463 424 OFFCURVE",
"422 336 OFFCURVE",
"333 336 CURVE SMOOTH",
"177 336 LINE",
"177 316 LINE",
"346 316 LINE",
"440 316 OFFCURVE",
"481 249 OFFCURVE",
"481 179 CURVE SMOOTH",
"481 102 OFFCURVE",
"431 21 OFFCURVE",
"336 22 CURVE SMOOTH",
"182 23 LINE",
"182 0 LINE",
"336 0 LINE SMOOTH",
"509 0 OFFCURVE",
"621 35 OFFCURVE",
"621 171 CURVE SMOOTH",
"621 267 OFFCURVE",
"525 327 OFFCURVE",
"402 328 CURVE",
"402 329 LINE",
"514 329 OFFCURVE",
"591 396 OFFCURVE",
"591 485 CURVE SMOOTH",
"591 619 OFFCURVE",
"500 655 OFFCURVE",
"346 655 CURVE SMOOTH",
"107 655 LINE",
"107 631 LINE"
);
}
);
width = 656;
},
{
layerId = "1195BCD1-8D25-4D5E-8C85-FC733C7A5356";
paths = (
{
closed = 1;
nodes = (
"222 650 LINE",
"92 650 LINE",
"92 0 LINE",
"222 0 LINE"
);
},
{
closed = 1;
nodes = (
"156 23 LINE",
"152 23 LINE",
"35 23 LINE",
"35 0 LINE",
"163 0 LINE",
"163 23 LINE"
);
},
{
closed = 1;
nodes = (
"137 655 LINE",
"35 655 LINE",
"35 633 LINE",
"151 633 LINE",
"166 633 LINE",
"137 633 LINE"
);
},
{
closed = 1;
nodes = (
"300 633 LINE SMOOTH",
"404 633 OFFCURVE",
"447 563 OFFCURVE",
"447 493 CURVE SMOOTH",
"447 424 OFFCURVE",
"406 338 OFFCURVE",
"317 338 CURVE SMOOTH",
"161 338 LINE",
"161 314 LINE",
"330 314 LINE",
"424 314 OFFCURVE",
"465 249 OFFCURVE",
"465 179 CURVE SMOOTH",
"465 102 OFFCURVE",
"415 21 OFFCURVE",
"320 22 CURVE SMOOTH",
"166 23 LINE",
"166 0 LINE",
"320 0 LINE SMOOTH",
"493 0 OFFCURVE",
"605 35 OFFCURVE",
"605 171 CURVE SMOOTH",
"605 267 OFFCURVE",
"509 327 OFFCURVE",
"386 328 CURVE",
"386 329 LINE",
"498 329 OFFCURVE",
"575 396 OFFCURVE",
"575 485 CURVE SMOOTH",
"575 619 OFFCURVE",
"484 655 OFFCURVE",
"330 655 CURVE SMOOTH",
"91 655 LINE",
"91 633 LINE"
);
}
);
width = 640;
},
{
associatedMasterId = "7F20675F-B4B1-45FA-B0F6-A97D5A641B97";
layerId = "332921B5-0E25-4F80-A3AD-C402E21E1A78";
name = "Feb 19 18, 11:22";
paths = (
{
closed = 1;
nodes = (
"392 0 LINE SMOOTH",
"572 0 OFFCURVE",
"628 110 OFFCURVE",
"628 197 CURVE SMOOTH",
"628 256 OFFCURVE",
"603 303 OFFCURVE",
"523 322 CURVE",
"591 343 OFFCURVE",
"625 385 OFFCURVE",
"625 444 CURVE SMOOTH",
"625 561 OFFCURVE",
"569 655 OFFCURVE",
"389 655 CURVE SMOOTH",
"35 655 LINE",
"35 521 LINE",
"155 521 LINE",
"155 119 LINE",
"35 119 LINE",
"35 0 LINE"
);
},
{
closed = 1;
nodes = (
"440 311 LINE SMOOTH",
"565 311 OFFCURVE",
"605 260 OFFCURVE",
"605 197 CURVE SMOOTH",
"605 134 OFFCURVE",
"538 122 OFFCURVE",
"421 119 CURVE SMOOTH",
"379 118 OFFCURVE",
"247 118 OFFCURVE",
"180 118 CURVE",
"180 311 LINE"
);
},
{
closed = 1;
nodes = (
"180 522 LINE",
"247 522 OFFCURVE",
"446 522 OFFCURVE",
"488 521 CURVE SMOOTH",
"557 519 OFFCURVE",
"601 500 OFFCURVE",
"602 444 CURVE SMOOTH",
"603 380 OFFCURVE",
"561 335 OFFCURVE",
"436 335 CURVE SMOOTH",
"180 335 LINE"
);
}
);
width = 663;
},
{
associatedMasterId = "7F20675F-B4B1-45FA-B0F6-A97D5A641B97";
layerId = "83C43E22-2B63-44CF-90A5-1C2992AF1F7A";
name = "Feb 19 18, 11:24";
paths = (
{
closed = 1;
nodes = (
"261 522 OFFCURVE",
"424 522 OFFCURVE",
"478 521 CURVE SMOOTH",
"547 519 OFFCURVE",
"600 501 OFFCURVE",
"601 435 CURVE SMOOTH",
"602 371 OFFCURVE",
"561 335 OFFCURVE",
"436 335 CURVE SMOOTH",
"180 335 LINE",
"180 490 LINE",
"155 490 LINE",
"155 157 LINE",
"180 157 LINE",
"180 311 LINE",
"440 311 LINE SMOOTH",
"565 311 OFFCURVE",
"605 260 OFFCURVE",
"605 197 CURVE SMOOTH",
"605 134 OFFCURVE",
"538 121 OFFCURVE",
"451 119 CURVE SMOOTH",
"409 118 OFFCURVE",
"247 118 OFFCURVE",
"35 119 CURVE",
"35 0 LINE",
"392 0 LINE SMOOTH",
"572 0 OFFCURVE",
"628 110 OFFCURVE",
"628 197 CURVE SMOOTH",
"628 256 OFFCURVE",
"603 303 OFFCURVE",
"523 322 CURVE",
"591 343 OFFCURVE",
"626 382 OFFCURVE",
"626 441 CURVE SMOOTH",
"626 558 OFFCURVE",
"569 655 OFFCURVE",
"389 655 CURVE SMOOTH",
"35 655 LINE",
"35 521 LINE"
);
}
);
width = 663;
},
{
associatedMasterId = "7F20675F-B4B1-45FA-B0F6-A97D5A641B97";
layerId = "1DFC391B-B794-41FA-9C33-450D764842E7";
name = "Feb 19 18, 11:34";
paths = (
{
closed = 1;
nodes = (
"154 376 OFFCURVE",
"599 640 OFFCURVE",
"601 437 CURVE SMOOTH",
"602 373 OFFCURVE",
"561 335 OFFCURVE",
"436 335 CURVE SMOOTH",
"210 335 LINE",
"210 550 LINE",
"185 550 LINE",
"185 77 LINE",
"210 77 LINE",
"210 311 LINE",
"440 311 LINE SMOOTH",
"565 311 OFFCURVE",
"605 270 OFFCURVE",
"605 207 CURVE SMOOTH",
"605 9 OFFCURVE",
"154 255 OFFCURVE",
"35 0 CURVE",
"392 0 LINE SMOOTH",
"572 0 OFFCURVE",
"628 110 OFFCURVE",
"628 197 CURVE SMOOTH",
"628 256 OFFCURVE",
"603 303 OFFCURVE",
"523 322 CURVE",
"593 333 OFFCURVE",
"626 382 OFFCURVE",
"626 441 CURVE SMOOTH",
"626 558 OFFCURVE",
"569 655 OFFCURVE",
"389 655 CURVE SMOOTH",
"28 655 LINE"
);
}
);
width = 663;
},
{
associatedMasterId = "7F20675F-B4B1-45FA-B0F6-A97D5A641B97";
layerId = "0CB88225-E5AB-4E66-A1E7-4E37DE852067";
name = "Feb 26 18, 13:21";
paths = (
{
closed = 1;
nodes = (
"665 70 OFFCURVE",
"174 108 OFFCURVE",
"49 216 CURVE",
"49 5 LINE",
"440 -59 OFFCURVE",
"688 20 OFFCURVE",
"688 197 CURVE SMOOTH",
"688 256 OFFCURVE",
"663 308 OFFCURVE",
"583 327 CURVE",
"651 348 OFFCURVE",
"675 393 OFFCURVE",
"675 452 CURVE SMOOTH",
"675 644 OFFCURVE",
"377 735 OFFCURVE",
"54 648 CURVE",
"54 440 LINE",
"195 548 OFFCURVE",
"641 568 OFFCURVE",
"644 424 CURVE SMOOTH",
"645 380 OFFCURVE",
"621 339 OFFCURVE",
"496 339 CURVE SMOOTH",
"200 339 LINE",
"200 599 LINE",
"175 599 LINE",
"175 55 LINE",
"200 55 LINE",
"200 315 LINE",
"500 315 LINE SMOOTH",
"625 315 OFFCURVE",
"665 270 OFFCURVE",
"665 217 CURVE SMOOTH"
);
}
);
width = 723;
},
{
associatedMasterId = "7F20675F-B4B1-45FA-B0F6-A97D5A641B97";
layerId = "4ED3576C-601E-4556-8175-EF33D933A9F1";
width = 774;
},
{
associatedMasterId = "7F20675F-B4B1-45FA-B0F6-A97D5A641B97";
layerId = "A521EEDC-8E54-4A39-941A-06C44C1BD48F";
paths = (
{
closed = 1;
nodes = (
"209 645 LINE",
"117 645 LINE",
"117 0 LINE",
"210 0 LINE"
);
},
{
closed = 1;
nodes = (
"166 103 LINE",
"157 103 LINE",
"41 16 LINE",
"41 0 LINE",
"209 0 LINE",
"209 16 LINE"
);
},
{
closed = 1;
nodes = (
"189 655 LINE",
"35 655 LINE",
"35 639 LINE",
"156 545 LINE",
"172 545 LINE",
"189 639 LINE"
);
},
{
closed = 1;
nodes = (
"305 632 LINE SMOOTH",
"409 632 OFFCURVE",
"452 563 OFFCURVE",
"452 493 CURVE SMOOTH",
"452 424 OFFCURVE",
"411 337 OFFCURVE",
"322 337 CURVE SMOOTH",
"166 337 LINE",
"166 315 LINE",
"335 315 LINE",
"429 315 OFFCURVE",
"470 249 OFFCURVE",
"470 179 CURVE SMOOTH",
"470 102 OFFCURVE",
"420 21 OFFCURVE",
"325 22 CURVE SMOOTH",
"171 23 LINE",
"171 0 LINE",
"325 0 LINE SMOOTH",
"498 0 OFFCURVE",
"610 35 OFFCURVE",
"610 171 CURVE SMOOTH",
"610 267 OFFCURVE",
"514 327 OFFCURVE",
"391 328 CURVE",
"391 329 LINE",
"503 329 OFFCURVE",
"580 396 OFFCURVE",
"580 485 CURVE SMOOTH",
"580 619 OFFCURVE",
"489 655 OFFCURVE",
"335 655 CURVE SMOOTH",
"96 655 LINE",
"96 632 LINE"
);
}
);
width = 645;
}
);
unicode = 0042;
},
{
glyphname = C;
lastChange = "2018-04-11 20:05:19 +0000";
layers = (
{
guideLines = (
{
position = "{171, 712}";
}
);
layerId = "7F20675F-B4B1-45FA-B0F6-A97D5A641B97";
paths = (
{
closed = 1;
nodes = (
"474 -19 OFFCURVE",
"583 61 OFFCURVE",
"626 203 CURVE",
"625 203 LINE",
"568 158 OFFCURVE",
"487 130 OFFCURVE",
"359 130 CURVE SMOOTH",
"145 130 OFFCURVE",
"7 213 OFFCURVE",
"74 426 CURVE",
"229 531 OFFCURVE",
"480 562 OFFCURVE",
"566 438 CURVE",
"567 438 LINE",
"612 567 OFFCURVE",
"514 676 OFFCURVE",
"378 676 CURVE SMOOTH",
"212 676 OFFCURVE",
"35 506 OFFCURVE",
"35 330 CURVE SMOOTH",
"35 165 OFFCURVE",
"187 -19 OFFCURVE",
"358 -19 CURVE SMOOTH"
);
}
);
width = 661;
},
{
layerId = "1195BCD1-8D25-4D5E-8C85-FC733C7A5356";
paths = (
{
closed = 1;
nodes = (
"463 -23 OFFCURVE",
"600 66 OFFCURVE",
"612 223 CURVE",
"587 223 LINE",
"578 138 OFFCURVE",
"516 26 OFFCURVE",
"380 26 CURVE SMOOTH",
"117 26 OFFCURVE",
"113 637 OFFCURVE",
"366 637 CURVE",
"475 637 OFFCURVE",
"558 578 OFFCURVE",
"581 450 CURVE",
"605 450 LINE",
"591 578 OFFCURVE",
"479 684 OFFCURVE",
"352 684 CURVE SMOOTH",
"140 684 OFFCURVE",
"35 507 OFFCURVE",
"35 332 CURVE SMOOTH",
"35 149 OFFCURVE",
"125 -23 OFFCURVE",
"352 -23 CURVE SMOOTH"
);
}
);
width = 647;
},
{
associatedMasterId = "7F20675F-B4B1-45FA-B0F6-A97D5A641B97";
guideLines = (
{
position = "{160, 712}";
}
);
layerId = "10B9DA4B-4DDE-4B6D-AD66-D3A00BFCF560";
name = "Feb 7 18, 17:27";
paths = (
{
closed = 1;
nodes = (
"585 168 LINE",
"597 188 OFFCURVE",
"607 210 OFFCURVE",
"615 232 CURVE",
"606 222 OFFCURVE",
"596 212 OFFCURVE",
"585 204 CURVE"
);
},
{
closed = 1;
nodes = (
"585 204 LINE",
"528 158 OFFCURVE",
"447 130 OFFCURVE",
"348 130 CURVE SMOOTH",
"134 130 OFFCURVE",
"55 253 OFFCURVE",
"112 456 CURVE",
"184 528 OFFCURVE",
"261 568 OFFCURVE",
"357 568 CURVE SMOOTH",
"464 568 OFFCURVE",
"524 544 OFFCURVE",
"576 467 CURVE",
"576 611 LINE",
"455 746 OFFCURVE",
"295 742 OFFCURVE",
"163 629 CURVE SMOOTH",
"-7 483 OFFCURVE",
"-23 258 OFFCURVE",
"125 91 CURVE SMOOTH",
"246 -46 OFFCURVE",
"369 -55 OFFCURVE",
"498 62 CURVE SMOOTH",
"534 95 OFFCURVE",
"563 130 OFFCURVE",
"585 168 CURVE"
);
}
);
width = 635;
},
{
associatedMasterId = "1195BCD1-8D25-4D5E-8C85-FC733C7A5356";
layerId = "171CBCA7-A53A-4C3D-BB9A-570BC6FB8B1A";
name = "Feb 7 18, 17:27";
paths = (
{
closed = 1;
nodes = (
"572 467 CURVE",
"572 611 LINE",
"451 746 OFFCURVE",
"291 742 OFFCURVE",
"159 629 CURVE SMOOTH",
"-11 483 OFFCURVE",
"-27 258 OFFCURVE",
"121 91 CURVE SMOOTH",
"242 -46 OFFCURVE",
"365 -55 OFFCURVE",
"494 62 CURVE SMOOTH",
"550 113 OFFCURVE",
"589 170 OFFCURVE",
"611 232 CURVE",
"555 170 OFFCURVE",
"462 99 OFFCURVE",
"344 99 CURVE SMOOTH",
"130 99 OFFCURVE",
"51 253 OFFCURVE",
"108 456 CURVE",
"180 528 OFFCURVE",
"257 598 OFFCURVE",
"353 598 CURVE SMOOTH",
"460 598 OFFCURVE",
"520 544 OFFCURVE"
);
}
);
width = 631;
},
{
associatedMasterId = "7F20675F-B4B1-45FA-B0F6-A97D5A641B97";
guideLines = (
{
position = "{171, 712}";
}
);
layerId = "BE952517-2BAF-4287-8114-AF867FD69E5F";
name = "Feb 19 18, 09:33";
paths = (
{
closed = 1;
nodes = (
"626 204 LINE",
"569 158 OFFCURVE",
"488 130 OFFCURVE",
"359 130 CURVE SMOOTH",
"145 130 OFFCURVE",
"17 223 OFFCURVE",
"74 426 CURVE",
"146 498 OFFCURVE",
"223 538 OFFCURVE",
"368 538 CURVE SMOOTH",
"455 538 OFFCURVE",
"515 514 OFFCURVE",
"567 437 CURVE",
"567 581 LINE",
"446 716 OFFCURVE",
"306 712 OFFCURVE",
"174 599 CURVE SMOOTH",
"4 453 OFFCURVE",
"-12 258 OFFCURVE",
"136 91 CURVE SMOOTH",
"257 -46 OFFCURVE",
"411 -56 OFFCURVE",
"539 62 CURVE SMOOTH",
"575 95 OFFCURVE",
"604 130 OFFCURVE",
"626 168 CURVE"
);
}
);
width = 661;
},
{
associatedMasterId = "7F20675F-B4B1-45FA-B0F6-A97D5A641B97";
guideLines = (
{
position = "{171, 712}";
}
);
layerId = "96492670-6165-46F6-8C53-2E67E6F338C6";
name = "Feb 19 18, 09:36";
paths = (
{
closed = 1;
nodes = (
"626 204 CURVE",
"569 158 OFFCURVE",
"488 130 OFFCURVE",
"359 130 CURVE SMOOTH",
"145 130 OFFCURVE",
"17 223 OFFCURVE",
"74 426 CURVE",
"146 498 OFFCURVE",
"223 538 OFFCURVE",
"368 538 CURVE SMOOTH",
"455 538 OFFCURVE",
"515 514 OFFCURVE",
"567 437 CURVE",
"569 768 OFFCURVE",
"272 693 OFFCURVE",
"174 605 CURVE SMOOTH",
"6 455 OFFCURVE",
"-12 258 OFFCURVE",
"136 91 CURVE SMOOTH",
"301 -96 OFFCURVE",
"552 -24 OFFCURVE"
);
}
);
width = 661;
},
{
associatedMasterId = "7F20675F-B4B1-45FA-B0F6-A97D5A641B97";
guideLines = (
{
position = "{171, 712}";
}
);
layerId = "5CF58A32-4D0D-45F2-B8F5-D2F9A30F2CAC";
name = "Feb 23 18, 16:23";
paths = (
{
closed = 1;
nodes = (
"626 204 CURVE",
"569 158 OFFCURVE",
"488 130 OFFCURVE",
"359 130 CURVE SMOOTH",
"145 130 OFFCURVE",
"17 223 OFFCURVE",
"74 426 CURVE",
"239 558 OFFCURVE",
"491 589 OFFCURVE",
"567 437 CURVE",
"567 581 LINE",
"446 716 OFFCURVE",
"306 712 OFFCURVE",
"174 599 CURVE SMOOTH",
"4 453 OFFCURVE",
"-12 258 OFFCURVE",
"136 91 CURVE SMOOTH",
"301 -96 OFFCURVE",
"556 -33 OFFCURVE"
);
}
);
width = 661;
},
{
associatedMasterId = "7F20675F-B4B1-45FA-B0F6-A97D5A641B97";
layerId = "4ED3576C-601E-4556-8175-EF33D933A9F1";
width = 652;
},
{
associatedMasterId = "7F20675F-B4B1-45FA-B0F6-A97D5A641B97";
layerId = "A521EEDC-8E54-4A39-941A-06C44C1BD48F";
paths = (
{
closed = 1;
nodes = (
"467 -22 OFFCURVE",
"594 64 OFFCURVE",
"617 216 CURVE",
"600 216 LINE",
"575 145 OFFCURVE",
"506 61 OFFCURVE",
"373 61 CURVE SMOOTH",
"126 61 OFFCURVE",
"78 496 OFFCURVE",
"269 567 CURVE",
"393 602 OFFCURVE",
"532 573 OFFCURVE",
"576 446 CURVE",
"592 446 LINE",
"598 574 OFFCURVE",
"491 681 OFFCURVE",
"361 681 CURVE SMOOTH",
"164 681 OFFCURVE",
"35 507 OFFCURVE",
"35 331 CURVE SMOOTH",
"35 154 OFFCURVE",
"146 -22 OFFCURVE",
"354 -22 CURVE SMOOTH"
);
}
);
width = 652;
}
);
unicode = 0043;
},
{
glyphname = D;
lastChange = "2018-04-11 20:05:19 +0000";
layers = (
{
layerId = "7F20675F-B4B1-45FA-B0F6-A97D5A641B97";
paths = (
{
closed = 1;
nodes = (
"166 636 LINE",
"150 636 LINE",
"150 424 OFFCURVE",
"150 212 OFFCURVE",
"150 0 CURVE",
"170 0 LINE"
);
},
{
closed = 1;
nodes = (
"91 631 LINE",
"159 631 OFFCURVE",
"192 631 OFFCURVE",
"330 631 CURVE SMOOTH",
"424 631 OFFCURVE",
"540 518 OFFCURVE",
"540 328 CURVE SMOOTH",
"540 171 OFFCURVE",
"415 21 OFFCURVE",
"320 22 CURVE SMOOTH",
"166 23 LINE",
"166 0 LINE",
"320 0 LINE SMOOTH",
"493 0 OFFCURVE",
"675 112 OFFCURVE",
"675 328 CURVE SMOOTH",
"675 582 OFFCURVE",
"514 655 OFFCURVE",
"360 655 CURVE SMOOTH",
"211 655 OFFCURVE",
"150 655 OFFCURVE",
"91 655 CURVE"
);
},
{
closed = 1;
nodes = (
"168 263 LINE",
"150 263 LINE",
"36 3 LINE",
"35 0 LINE",
"286 0 LINE",
"286 3 LINE"
);
},
{
closed = 1;
nodes = (
"281 655 LINE",
"31 655 LINE",
"31 652 LINE",
"150 369 LINE",
"168 369 LINE",
"281 652 LINE"
);
}
);
width = 710;
},
{
layerId = "1195BCD1-8D25-4D5E-8C85-FC733C7A5356";
paths = (
{
closed = 1;
nodes = (
"230 636 LINE",
"100 636 LINE",
"100 424 OFFCURVE",
"100 212 OFFCURVE",
"100 0 CURVE",
"230 0 LINE"
);
},
{
closed = 1;
nodes = (
"91 633 LINE",
"159 633 OFFCURVE",
"192 633 OFFCURVE",
"330 633 CURVE SMOOTH",
"424 633 OFFCURVE",
"530 518 OFFCURVE",
"530 328 CURVE SMOOTH",
"530 171 OFFCURVE",
"415 23 OFFCURVE",
"320 23 CURVE SMOOTH",
"166 23 LINE",
"166 0 LINE",
"320 0 LINE SMOOTH",
"493 0 OFFCURVE",
"675 112 OFFCURVE",
"675 328 CURVE SMOOTH",
"675 582 OFFCURVE",
"514 655 OFFCURVE",
"360 655 CURVE SMOOTH",
"211 655 OFFCURVE",
"150 655 OFFCURVE",
"91 655 CURVE"
);
},
{
closed = 1;
nodes = (
"166 23 LINE",
"154 23 LINE",
"35 23 LINE",
"35 0 LINE",
"157 0 LINE",
"157 23 LINE"
);
},
{
closed = 1;
nodes = (
"167 655 LINE",
"35 655 LINE",
"35 633 LINE",
"153 633 LINE",
"164 633 LINE",
"167 633 LINE"
);
}
);
width = 729;
},
{
associatedMasterId = "7F20675F-B4B1-45FA-B0F6-A97D5A641B97";
layerId = "D92656ED-198F-4E42-8F4B-978434D097BE";
name = "Feb 19 18, 11:16";
paths = (
{
closed = 1;
nodes = (
"392 0 LINE SMOOTH",
"572 0 OFFCURVE",
"628 190 OFFCURVE",
"628 317 CURVE SMOOTH",
"628 464 OFFCURVE",
"572 652 OFFCURVE",
"392 652 CURVE SMOOTH",
"35 652 LINE",
"35 517 LINE",
"155 517 LINE",
"155 119 LINE",
"35 119 LINE",
"35 0 LINE"
);
},
{
closed = 1;
nodes = (
"180 518 LINE",
"247 518 OFFCURVE",
"419 518 OFFCURVE",
"461 517 CURVE SMOOTH",
"600 515 OFFCURVE",
"604 383 OFFCURVE",
"605 317 CURVE SMOOTH",
"606 254 OFFCURVE",
"577 120 OFFCURVE",
"461 119 CURVE SMOOTH",
"419 119 OFFCURVE",
"247 118 OFFCURVE",
"180 118 CURVE"
);
}
);
width = 663;
},
{
associatedMasterId = "7F20675F-B4B1-45FA-B0F6-A97D5A641B97";
layerId = "78F69512-EB66-489C-A890-7245A138F45D";
name = "Feb 19 18, 11:17";
paths = (
{
closed = 1;
nodes = (
"392 0 LINE SMOOTH",
"582 0 OFFCURVE",
"628 190 OFFCURVE",
"628 317 CURVE SMOOTH",
"628 464 OFFCURVE",
"582 652 OFFCURVE",
"392 652 CURVE SMOOTH",
"35 652 LINE",
"35 517 LINE",
"155 517 LINE",
"155 119 LINE",
"35 119 LINE",
"35 0 LINE"
);
},
{
closed = 1;
nodes = (
"180 518 LINE",
"412 518 OFFCURVE",
"601 579 OFFCURVE",
"605 317 CURVE SMOOTH",
"609 71 OFFCURVE",
"406 108 OFFCURVE",
"180 118 CURVE"
);
}
);
width = 663;
},
{
associatedMasterId = "7F20675F-B4B1-45FA-B0F6-A97D5A641B97";
layerId = "584899FF-2133-4B85-8FBA-C5A0486A5A9C";
name = "Feb 19 18, 11:18";
paths = (
{
closed = 1;
nodes = (
"154 49 OFFCURVE",
"266 1 OFFCURVE",
"392 0 CURVE SMOOTH",
"582 -2 OFFCURVE",
"628 190 OFFCURVE",
"628 317 CURVE SMOOTH",
"628 464 OFFCURVE",
"582 653 OFFCURVE",
"392 652 CURVE SMOOTH",
"265 651 OFFCURVE",
"114 582 OFFCURVE",
"35 517 CURVE",
"155 517 LINE",
"155 119 LINE",
"35 119 LINE"
);
},
{
closed = 1;
nodes = (
"180 518 LINE",
"412 518 OFFCURVE",
"601 579 OFFCURVE",
"605 317 CURVE SMOOTH",
"609 71 OFFCURVE",
"406 108 OFFCURVE",
"180 118 CURVE"
);
}
);
width = 663;
},
{
associatedMasterId = "7F20675F-B4B1-45FA-B0F6-A97D5A641B97";
layerId = "8000804F-FA07-4DE4-A9A7-EF12EAEBCF39";
name = "Feb 19 18, 11:27";
paths = (
{
closed = 1;
nodes = (
"392 0 LINE SMOOTH",
"582 0 OFFCURVE",
"628 190 OFFCURVE",
"628 317 CURVE SMOOTH",
"628 464 OFFCURVE",
"582 652 OFFCURVE",
"392 652 CURVE SMOOTH",
"35 652 LINE",
"35 517 LINE",
"155 517 LINE",
"155 119 LINE",
"35 119 LINE",
"35 0 LINE"
);
},
{
closed = 1;
nodes = (
"180 518 LINE",
"412 518 OFFCURVE",
"601 579 OFFCURVE",
"605 317 CURVE SMOOTH",
"609 71 OFFCURVE",
"406 108 OFFCURVE",
"180 118 CURVE"
);
}
);
width = 663;
},
{
associatedMasterId = "7F20675F-B4B1-45FA-B0F6-A97D5A641B97";
layerId = "838D352B-D097-4C51-A57A-44BF4B5E3215";
name = "Feb 19 18, 11:35";
paths = (
{
closed = 1;
nodes = (
"35 0 CURVE",
"392 0 LINE SMOOTH",
"582 0 OFFCURVE",
"628 190 OFFCURVE",
"628 317 CURVE SMOOTH",
"628 464 OFFCURVE",
"582 652 OFFCURVE",
"392 652 CURVE SMOOTH",
"35 652 LINE",
"96 422 OFFCURVE",
"604 585 OFFCURVE",
"605 317 CURVE SMOOTH",
"606 39 OFFCURVE",
"96 215 OFFCURVE"
);
},
{
closed = 1;
nodes = (
"180 52 LINE",
"180 565 LINE",
"155 565 LINE",
"155 52 LINE"
);
}
);
width = 663;
},
{
associatedMasterId = "7F20675F-B4B1-45FA-B0F6-A97D5A641B97";
layerId = "9B975A92-3884-49B4-9292-F55430F722BF";
name = "Feb 19 18, 16:08";
paths = (
{
closed = 1;
nodes = (
"392 0 LINE SMOOTH",
"572 0 OFFCURVE",
"628 190 OFFCURVE",
"628 317 CURVE SMOOTH",
"628 464 OFFCURVE",
"572 652 OFFCURVE",
"392 652 CURVE SMOOTH",
"35 652 LINE",
"35 517 LINE",
"155 517 LINE",
"155 119 LINE",
"35 119 LINE",
"35 0 LINE"
);
},
{
closed = 1;
nodes = (
"180 518 LINE",
"247 518 OFFCURVE",
"419 518 OFFCURVE",
"461 517 CURVE SMOOTH",
"600 515 OFFCURVE",
"604 383 OFFCURVE",
"605 317 CURVE SMOOTH",
"606 254 OFFCURVE",
"577 120 OFFCURVE",
"461 119 CURVE SMOOTH",
"419 119 OFFCURVE",
"247 118 OFFCURVE",
"180 118 CURVE"
);
}
);
width = 663;
},
{
associatedMasterId = "7F20675F-B4B1-45FA-B0F6-A97D5A641B97";
layerId = "6DAAE413-CB63-4C6B-B285-85AB1E7E60F4";
name = "Feb 21 18, 11:36";
paths = (
{
closed = 1;
nodes = (
"392 0 LINE SMOOTH",
"582 0 OFFCURVE",
"628 190 OFFCURVE",
"628 317 CURVE SMOOTH",
"628 464 OFFCURVE",
"582 652 OFFCURVE",
"392 652 CURVE SMOOTH",
"35 652 LINE",
"35 517 LINE",
"155 517 LINE",
"155 119 LINE",
"35 119 LINE",
"35 0 LINE"
);
},
{
closed = 1;
nodes = (
"180 518 LINE",
"412 518 OFFCURVE",
"601 579 OFFCURVE",
"605 317 CURVE SMOOTH",
"609 71 OFFCURVE",
"406 108 OFFCURVE",
"180 118 CURVE"
);
}
);
width = 663;
},
{
associatedMasterId = "7F20675F-B4B1-45FA-B0F6-A97D5A641B97";
layerId = "DF1BFD49-28D8-404C-8AEF-228BAD60FD01";
name = "Feb 21 18, 11:38";
paths = (
{
closed = 1;
nodes = (
"105 119 CURVE",
"35 0 LINE",
"392 0 LINE SMOOTH",
"582 0 OFFCURVE",
"628 190 OFFCURVE",
"628 317 CURVE SMOOTH",
"628 464 OFFCURVE",
"582 655 OFFCURVE",
"392 655 CURVE SMOOTH",
"35 655 LINE",
"133 517 LINE",
"510 518 OFFCURVE",
"601 539 OFFCURVE",
"605 317 CURVE SMOOTH",
"609 116 OFFCURVE",
"510 104 OFFCURVE"
);
},
{
closed = 1;
nodes = (
"321 0 LINE",
"169.264 96.732 OFFCURVE",
"161.427 219.545 OFFCURVE",
"161.022 327.5 CURVE",
"161.427 435.455 OFFCURVE",
"169.264 558.268 OFFCURVE",
"321 655 CURVE",
"-15 655 LINE",
"128.282 559.479 OFFCURVE",
"139.261 451.184 OFFCURVE",
"139.957 327.5 CURVE SMOOTH",
"139.261 203.816 OFFCURVE",
"128.282 95.521 OFFCURVE",
"-15 0 CURVE"
);
}
);
width = 663;
},
{
associatedMasterId = "7F20675F-B4B1-45FA-B0F6-A97D5A641B97";
layerId = "B73F4A5E-F95F-4C51-91E8-8D3F2272418E";
name = "Feb 21 18, 11:48";
paths = (
{
closed = 1;
nodes = (
"381 123 CURVE SMOOTH",
"318 123 OFFCURVE",
"185 117 OFFCURVE",
"164 243 CURVE",
"35 0 LINE",
"392 0 LINE SMOOTH",
"582 0 OFFCURVE",
"628 190 OFFCURVE",
"628 317 CURVE SMOOTH",
"628 464 OFFCURVE",
"582 655 OFFCURVE",
"392 655 CURVE SMOOTH",
"126 655 LINE",
"162 381 LINE",
"165 484 OFFCURVE",
"261 521 OFFCURVE",
"389 521 CURVE SMOOTH",
"533 521 OFFCURVE",
"602 441 OFFCURVE",
"605 317 CURVE SMOOTH",
"608 205 OFFCURVE",
"526 123 OFFCURVE"
);
},
{
closed = 1;
nodes = (
"321 0 LINE",
"169.264 96.732 OFFCURVE",
"161.427 219.545 OFFCURVE",
"161.022 327.5 CURVE",
"161.427 435.455 OFFCURVE",
"169.264 558.268 OFFCURVE",
"321 655 CURVE",
"-15 655 LINE",
"128.282 559.479 OFFCURVE",
"139.261 451.184 OFFCURVE",
"139.957 327.5 CURVE SMOOTH",
"139.261 203.816 OFFCURVE",
"128.282 95.521 OFFCURVE",
"-15 0 CURVE"
);
}
);
width = 663;
},
{
associatedMasterId = "7F20675F-B4B1-45FA-B0F6-A97D5A641B97";
layerId = "D8F9B913-B6E1-4422-844C-F64000C67532";
name = "Feb 21 18, 11:49";
paths = (
{
closed = 1;
nodes = (
"392 0 LINE SMOOTH",
"582 0 OFFCURVE",
"628 190 OFFCURVE",
"628 317 CURVE SMOOTH",
"628 464 OFFCURVE",
"582 655 OFFCURVE",
"392 655 CURVE SMOOTH",
"-15 655 LINE",
"128 559 OFFCURVE",
"139 451 OFFCURVE",
"140 327 CURVE SMOOTH",
"139 174 OFFCURVE",
"109 83 OFFCURVE",
"-15 0 CURVE"
);
},
{
closed = 1;
nodes = (
"161 615 OFFCURVE",
"599 583 OFFCURVE",
"605 317 CURVE SMOOTH",
"612 61 OFFCURVE",
"161 26 OFFCURVE",
"161 328 CURVE SMOOTH"
);
}
);
width = 663;
},
{
associatedMasterId = "7F20675F-B4B1-45FA-B0F6-A97D5A641B97";
layerId = "223D56C0-1285-4712-AD29-DF50B6807465";
name = "Feb 21 18, 11:50";
paths = (
{
closed = 1;
nodes = (
"392 0 LINE SMOOTH",
"582 0 OFFCURVE",
"628 190 OFFCURVE",
"628 317 CURVE SMOOTH",
"628 464 OFFCURVE",
"582 655 OFFCURVE",
"392 655 CURVE SMOOTH",
"-15 655 LINE",
"128 559 OFFCURVE",
"139 451 OFFCURVE",
"140 327 CURVE SMOOTH",
"139 174 OFFCURVE",
"109 83 OFFCURVE",
"-15 0 CURVE"
);
},
{
closed = 1;
nodes = (
"161 428 OFFCURVE",
"151 488 OFFCURVE",
"229 512 CURVE SMOOTH",
"407 566 OFFCURVE",
"601 481 OFFCURVE",
"605 317 CURVE SMOOTH",
"609 158 OFFCURVE",
"412 64 OFFCURVE",
"230 133 CURVE SMOOTH",
"152 162 OFFCURVE",
"161 223 OFFCURVE",
"161 328 CURVE SMOOTH"
);
}
);
width = 663;
},
{
associatedMasterId = "7F20675F-B4B1-45FA-B0F6-A97D5A641B97";
layerId = "9A6D9A14-6692-4FA3-AAE3-2B1E9B077CDD";
name = "Feb 21 18, 11:51";
paths = (
{
closed = 1;
nodes = (
"392 0 LINE SMOOTH",
"582 0 OFFCURVE",
"628 190 OFFCURVE",
"628 317 CURVE SMOOTH",
"628 464 OFFCURVE",
"582 655 OFFCURVE",
"392 655 CURVE SMOOTH",
"-15 655 LINE",
"128 559 OFFCURVE",
"139 451 OFFCURVE",
"140 327 CURVE SMOOTH",
"139 174 OFFCURVE",
"109 83 OFFCURVE",
"-15 0 CURVE"
);
},
{
closed = 1;
nodes = (
"161 428 OFFCURVE",
"161 457 OFFCURVE",
"161 501 CURVE",
"434 565 OFFCURVE",
"601 481 OFFCURVE",
"605 317 CURVE SMOOTH",
"609 158 OFFCURVE",
"412 64 OFFCURVE",
"230 133 CURVE SMOOTH",
"152 162 OFFCURVE",
"161 223 OFFCURVE",
"161 328 CURVE SMOOTH"
);
}
);
width = 663;
},
{
associatedMasterId = "7F20675F-B4B1-45FA-B0F6-A97D5A641B97";
layerId = "59574D48-39F8-4C02-87FF-28C33709EFE7";
name = "Feb 21 18, 11:54";
paths = (
{
closed = 1;
nodes = (
"392 0 LINE SMOOTH",
"582 0 OFFCURVE",
"628 190 OFFCURVE",
"628 317 CURVE SMOOTH",
"628 464 OFFCURVE",
"582 655 OFFCURVE",
"392 655 CURVE SMOOTH",
"-15 655 LINE",
"128 559 OFFCURVE",
"139 451 OFFCURVE",
"140 327 CURVE SMOOTH",
"139 174 OFFCURVE",
"109 83 OFFCURVE",
"-15 0 CURVE"
);
},
{
closed = 1;
nodes = (
"173 375 OFFCURVE",
"153 521 CURVE",
"436 545 OFFCURVE",
"601 481 OFFCURVE",
"605 317 CURVE SMOOTH",
"609 158 OFFCURVE",
"423 84 OFFCURVE",
"151 123 CURVE",
"171 285 OFFCURVE"
);
}
);
width = 663;
},
{
associatedMasterId = "7F20675F-B4B1-45FA-B0F6-A97D5A641B97";
layerId = "6CD89C9A-1523-4749-B089-2281F29E51FB";
name = "Feb 21 18, 12:04";
paths = (
{
closed = 1;
nodes = (
"199 655 LINE",
"225 655 LINE",
"225 0 LINE",
"199 0 LINE"
);
},
{
closed = 1;
nodes = (
"353 655 LINE",
"352 631 LINE",
"35 446 LINE",
"35 655 LINE"
);
},
{
closed = 1;
nodes = (
"35 209 LINE",
"346 24 LINE",
"346 0 LINE",
"35 0 LINE"
);
},
{
closed = 1;
nodes = (
"424 655 OFFCURVE",
"631 614 OFFCURVE",
"631 341 CURVE SMOOTH",
"631 47 OFFCURVE",
"424 0 OFFCURVE",
"346 0 CURVE",
"346 24 LINE",
"551 47 OFFCURVE",
"608 220 OFFCURVE",
"608 339 CURVE SMOOTH",
"608 458 OFFCURVE",
"544 612 OFFCURVE",
"352 631 CURVE",
"353 655 LINE"
);
}
);
width = 663;
},
{
associatedMasterId = "7F20675F-B4B1-45FA-B0F6-A97D5A641B97";
layerId = "A2B276FE-55AF-4276-B787-35F44F8A6748";
name = "Feb 21 18, 12:05";
paths = (
{
closed = 1;
nodes = (
"199 655 LINE",
"225 655 LINE",
"225 0 LINE",
"199 0 LINE"
);
},
{
closed = 1;
nodes = (
"353 655 LINE",
"456 605 LINE",
"35 446 LINE",
"35 655 LINE"
);
},
{
closed = 1;
nodes = (
"35 209 LINE",
"454 51 LINE",
"346 0 LINE",
"35 0 LINE"
);
},
{
closed = 1;
nodes = (
"434 655 OFFCURVE",
"638 614 OFFCURVE",
"638 341 CURVE SMOOTH",
"638 47 OFFCURVE",
"435 0 OFFCURVE",
"346 0 CURVE",
"346 24 LINE",
"561 44 OFFCURVE",
"608 220 OFFCURVE",
"608 339 CURVE SMOOTH",
"608 458 OFFCURVE",
"554 612 OFFCURVE",
"352 631 CURVE",
"353 655 LINE"
);
}
);
width = 663;
},
{
associatedMasterId = "7F20675F-B4B1-45FA-B0F6-A97D5A641B97";
layerId = "D56DB7B9-D3B0-452A-B48D-EB912A0A56F4";
name = "Feb 21 18, 12:06";
paths = (
{
closed = 1;
nodes = (
"199 655 LINE",
"225 655 LINE",
"225 0 LINE",
"199 0 LINE"
);
},
{
closed = 1;
nodes = (
"353 655 LINE",
"456 605 LINE",
"35 446 LINE",
"35 655 LINE"
);
},
{
closed = 1;
nodes = (
"35 269 LINE",
"175 126 OFFCURVE",
"314 4 OFFCURVE",
"454 51 CURVE",
"346 0 LINE",
"35 0 LINE"
);
},
{
closed = 1;
nodes = (
"434 655 OFFCURVE",
"638 614 OFFCURVE",
"638 341 CURVE SMOOTH",
"638 47 OFFCURVE",
"435 0 OFFCURVE",
"346 0 CURVE",
"346 24 LINE",
"561 44 OFFCURVE",
"608 220 OFFCURVE",
"608 339 CURVE SMOOTH",
"608 458 OFFCURVE",
"554 612 OFFCURVE",
"352 631 CURVE",
"353 655 LINE"
);
}
);
width = 663;
},
{
associatedMasterId = "7F20675F-B4B1-45FA-B0F6-A97D5A641B97";
layerId = "4DAB5222-F8B2-46B5-B4ED-B72DAF8E4640";
name = "Feb 21 18, 12:06";
paths = (
{
closed = 1;
nodes = (
"199 655 LINE",
"225 655 LINE",
"225 0 LINE",
"199 0 LINE"
);
},
{
closed = 1;
nodes = (
"353 655 LINE",
"456 605 LINE",
"296 642 OFFCURVE",
"165 569 OFFCURVE",
"35 446 CURVE",
"35 655 LINE"
);
},
{
closed = 1;
nodes = (
"35 269 LINE",
"175 126 OFFCURVE",
"314 4 OFFCURVE",
"454 51 CURVE",
"346 0 LINE",
"35 0 LINE"
);
},
{
closed = 1;
nodes = (
"434 655 OFFCURVE",
"638 614 OFFCURVE",
"638 341 CURVE SMOOTH",
"638 47 OFFCURVE",
"435 0 OFFCURVE",
"346 0 CURVE",
"346 24 LINE",
"561 44 OFFCURVE",
"608 220 OFFCURVE",
"608 339 CURVE SMOOTH",
"608 458 OFFCURVE",
"554 612 OFFCURVE",
"352 631 CURVE",
"353 655 LINE"
);
}
);
width = 663;
},
{
associatedMasterId = "7F20675F-B4B1-45FA-B0F6-A97D5A641B97";
layerId = "BCAB598F-03DD-4B27-89F1-7D97583FDA76";
name = "Feb 21 18, 13:38";
paths = (
{
closed = 1;
nodes = (
"199 655 LINE",
"225 655 LINE",
"225 0 LINE",
"199 0 LINE"
);
},
{
closed = 1;
nodes = (
"354 655 LINE",
"463 625 LINE",
"531 553 LINE",
"389 677 OFFCURVE",
"165 519 OFFCURVE",
"35 376 CURVE",
"35 655 LINE"
);
},
{
closed = 1;
nodes = (
"35 269 LINE",
"175 126 OFFCURVE",
"314 4 OFFCURVE",
"454 51 CURVE",
"346 0 LINE",
"35 0 LINE"
);
},
{
closed = 1;
nodes = (
"434 655 OFFCURVE",
"638 614 OFFCURVE",
"638 341 CURVE SMOOTH",
"638 47 OFFCURVE",
"435 0 OFFCURVE",
"346 0 CURVE",
"346 24 LINE",
"561 44 OFFCURVE",
"609 220 OFFCURVE",
"609 339 CURVE SMOOTH",
"609 458 OFFCURVE",
"554 612 OFFCURVE",
"352 631 CURVE",
"353 655 LINE"
);
}
);
width = 663;
},
{
associatedMasterId = "7F20675F-B4B1-45FA-B0F6-A97D5A641B97";
layerId = "9884DCA4-0597-4D84-AA03-D73EC60DF132";
name = "Feb 23 18, 10:42";
paths = (
{
closed = 1;
nodes = (
"199 655 LINE",
"225 655 LINE",
"225 0 LINE",
"199 0 LINE"
);
},
{
closed = 1;
nodes = (
"354 655 LINE",
"565 558 LINE",
"609 386 LINE",
"500 618 OFFCURVE",
"165 533 OFFCURVE",
"35 390 CURVE",
"35 655 LINE"
);
},
{
closed = 1;
nodes = (
"35 269 LINE",
"175 126 OFFCURVE",
"435 56 OFFCURVE",
"587 200 CURVE",
"554 96 LINE",
"346 0 LINE",
"35 0 LINE"
);
},
{
closed = 1;
nodes = (
"434 655 OFFCURVE",
"638 614 OFFCURVE",
"638 341 CURVE SMOOTH",
"638 47 OFFCURVE",
"435 0 OFFCURVE",
"346 0 CURVE",
"346 24 LINE",
"561 44 OFFCURVE",
"609 220 OFFCURVE",
"609 339 CURVE SMOOTH",
"609 458 OFFCURVE",
"554 612 OFFCURVE",
"352 631 CURVE",
"353 655 LINE"
);
}
);
width = 663;
},
{
associatedMasterId = "7F20675F-B4B1-45FA-B0F6-A97D5A641B97";
layerId = "3782A5CD-EFE9-4AEE-B17F-D59C1B351218";
name = "Feb 23 18, 15:35";
paths = (
{
closed = 1;
nodes = (
"615 161 OFFCURVE",
"615 339 CURVE SMOOTH",
"615 517 OFFCURVE",
"315 598 OFFCURVE",
"27 446 CURVE",
"99 657 LINE",
"525 750 OFFCURVE",
"638 558 OFFCURVE",
"638 341 CURVE SMOOTH",
"638 97 OFFCURVE",
"423 -67 OFFCURVE",
"67 -5 CURVE",
"67 194 LINE",
"403 43 OFFCURVE"
);
},
{
closed = 1;
nodes = (
"225 590 LINE",
"225 73 LINE",
"199 73 LINE",
"199 590 LINE"
);
}
);
width = 663;
},
{
associatedMasterId = "7F20675F-B4B1-45FA-B0F6-A97D5A641B97";
layerId = "8A1629E9-2AB7-48B4-8B15-4C8E76F7140C";
name = "Feb 23 18, 15:35";
paths = (
{
closed = 1;
nodes = (
"615 161 OFFCURVE",
"615 339 CURVE SMOOTH",
"615 517 OFFCURVE",
"315 598 OFFCURVE",
"27 446 CURVE",
"99 657 LINE",
"525 750 OFFCURVE",
"638 558 OFFCURVE",
"638 341 CURVE SMOOTH",
"638 -67 OFFCURVE",
"98 -135 OFFCURVE",
"67 194 CURVE",
"403 43 OFFCURVE"
);
},
{
closed = 1;
nodes = (
"225 590 LINE",
"225 73 LINE",
"199 73 LINE",
"199 590 LINE"
);
}
);
width = 663;
},
{
associatedMasterId = "7F20675F-B4B1-45FA-B0F6-A97D5A641B97";
layerId = "A5526B6D-3734-4159-8AE0-7FB6D2F37983";
name = "Feb 24 18, 11:10";
paths = (
{
closed = 1;
nodes = (
"653 135 OFFCURVE",
"653 343 CURVE SMOOTH",
"653 521 OFFCURVE",
"383 627 OFFCURVE",
"35 465 CURVE",
"35 770 OFFCURVE",
"676 779 OFFCURVE",
"676 341 CURVE SMOOTH",
"676 -67 OFFCURVE",
"66 -135 OFFCURVE",
"35 194 CURVE",
"401 36 OFFCURVE"
);
},
{
closed = 1;
nodes = (
"193 590 LINE",
"193 73 LINE",
"167 73 LINE",
"167 590 LINE"
);
}
);
width = 711;
},
{
associatedMasterId = "7F20675F-B4B1-45FA-B0F6-A97D5A641B97";
layerId = "EE6ED5C8-E5D3-4181-A55C-5D8C13ECBDDC";
name = "Feb 26 18, 00:10";
paths = (
{
closed = 1;
nodes = (
"678 75 OFFCURVE",
"673 343 CURVE SMOOTH",
"668 611 OFFCURVE",
"173 530 OFFCURVE",
"40 416 CURVE",
"-27 781 OFFCURVE",
"675 779 OFFCURVE",
"696 341 CURVE SMOOTH",
"716 -77 OFFCURVE",
"-20 -157 OFFCURVE",
"40 235 CURVE",
"227 57 OFFCURVE"
);
},
{
closed = 1;
nodes = (
"213 590 LINE",
"213 73 LINE",
"187 73 LINE",
"187 590 LINE"
);
}
);
width = 731;
},
{
associatedMasterId = "7F20675F-B4B1-45FA-B0F6-A97D5A641B97";
layerId = "381EF3C2-84CD-4716-90B7-7124B44D2F1D";
name = "Feb 26 18, 12:18";
paths = (
{
closed = 1;
nodes = (
"649 45 OFFCURVE",
"649 313 CURVE SMOOTH",
"649 581 OFFCURVE",
"168 560 OFFCURVE",
"35 446 CURVE",
"35 655 LINE",
"390 744 OFFCURVE",
"672 617 OFFCURVE",
"672 311 CURVE SMOOTH",
"672 35 OFFCURVE",
"434 -80 OFFCURVE",
"35 20 CURVE",
"35 218 LINE",
"222 100 OFFCURVE"
);
},
{
closed = 1;
nodes = (
"189 590 LINE",
"189 73 LINE",
"163 73 LINE",
"163 590 LINE"
);
}
);
width = 707;
},
{
associatedMasterId = "7F20675F-B4B1-45FA-B0F6-A97D5A641B97";
layerId = "8E278A41-862F-4CF9-922C-516C08A907E0";
name = "Feb 26 18, 13:07";
paths = (
{
closed = 1;
nodes = (
"149 594 LINE",
"128 594 LINE",
"128 47 LINE",
"149 47 LINE"
);
},
{
closed = 1;
nodes = (
"35 517 LINE",
"370 603 LINE",
"639 533 OFFCURVE",
"641 176 OFFCURVE",
"377 88 CURVE",
"46 149 LINE",
"46 -25 LINE",
"298 39 OFFCURVE",
"600 22 OFFCURVE",
"600 340 CURVE SMOOTH",
"600 585 OFFCURVE",
"461 638 OFFCURVE",
"35 698 CURVE"
);
}
);
width = 650;
},
{
associatedMasterId = "7F20675F-B4B1-45FA-B0F6-A97D5A641B97";
layerId = "22921B91-4798-4D50-9197-6D7EB9378697";
name = "Feb 26 18, 13:16";
paths = (
{
closed = 1;
nodes = (
"221 564 LINE",
"200 564 LINE",
"200 107 LINE",
"221 107 LINE"
);
},
{
closed = 1;
nodes = (
"35 444 LINE",
"236 444 OFFCURVE",
"458 588 OFFCURVE",
"637 431 CURVE",
"745 137 OFFCURVE",
"326 190 OFFCURVE",
"40 190 CURVE",
"40 -25 LINE",
"314 -25 OFFCURVE",
"679 107 OFFCURVE",
"679 339 CURVE SMOOTH",
"679 564 OFFCURVE",
"461 646 OFFCURVE",
"35 685 CURVE"
);
}
);
width = 714;
},
{
associatedMasterId = "7F20675F-B4B1-45FA-B0F6-A97D5A641B97";
layerId = "15DE4F12-BA34-4C54-A8B0-DBA0D12ED8C7";
name = "Feb 26 18, 13:28";
paths = (
{
closed = 1;
nodes = (
"166 564 LINE",
"145 564 LINE",
"145 107 LINE",
"166 107 LINE"
);
},
{
closed = 1;
nodes = (
"461 -102 OFFCURVE",
"674 96 OFFCURVE",
"674 321 CURVE SMOOTH",
"674 583 OFFCURVE",
"456 765 OFFCURVE",
"35 655 CURVE",
"154 460 LINE",
"491 599 OFFCURVE",
"698 533 OFFCURVE",
"640 239 CURVE",
"441 74 OFFCURVE",
"155 64 OFFCURVE",
"166 236 CURVE",
"35 -1 LINE"
);
}
);
width = 709;
},
{
associatedMasterId = "7F20675F-B4B1-45FA-B0F6-A97D5A641B97";
layerId = "05A3FBD1-8A81-4F28-BE82-B0C2003C8FAA";
name = "Feb 26 18, 13:32";
paths = (
{
closed = 1;
nodes = (
"166 564 LINE",
"145 564 LINE",
"145 107 LINE",
"166 107 LINE"
);
},
{
closed = 1;
nodes = (
"461 -102 OFFCURVE",
"674 96 OFFCURVE",
"674 321 CURVE SMOOTH",
"674 583 OFFCURVE",
"456 765 OFFCURVE",
"35 655 CURVE",
"154 460 LINE",
"491 599 OFFCURVE",
"698 533 OFFCURVE",
"640 239 CURVE",
"441 74 OFFCURVE",
"155 64 OFFCURVE",
"166 236 CURVE",
"35 -1 LINE"
);
}
);
width = 709;
},
{
associatedMasterId = "7F20675F-B4B1-45FA-B0F6-A97D5A641B97";
layerId = "6283CD59-A63A-4620-B2A6-D986622EFDA0";
name = "Feb 26 18, 13:34";
paths = (
{
closed = 1;
nodes = (
"221 564 LINE",
"200 564 LINE",
"200 107 LINE",
"221 107 LINE"
);
},
{
closed = 1;
nodes = (
"35 444 LINE",
"236 444 OFFCURVE",
"458 588 OFFCURVE",
"637 431 CURVE",
"745 137 OFFCURVE",
"326 190 OFFCURVE",
"40 190 CURVE",
"40 -25 LINE",
"314 -25 OFFCURVE",
"679 107 OFFCURVE",
"679 339 CURVE SMOOTH",
"679 564 OFFCURVE",
"461 646 OFFCURVE",
"35 685 CURVE"
);
}
);
width = 714;
},
{
associatedMasterId = "7F20675F-B4B1-45FA-B0F6-A97D5A641B97";
layerId = "154440AF-E522-4130-8BEA-153667FF5232";
name = "Feb 26 18, 13:35";
paths = (
{
closed = 1;
nodes = (
"221 564 LINE",
"200 564 LINE",
"200 107 LINE",
"221 107 LINE"
);
},
{
closed = 1;
nodes = (
"35 444 LINE",
"280 444 OFFCURVE",
"654 607 OFFCURVE",
"654 336 CURVE SMOOTH",
"654 138 OFFCURVE",
"295 190 OFFCURVE",
"40 190 CURVE",
"40 -25 LINE",
"314 -25 OFFCURVE",
"679 107 OFFCURVE",
"679 339 CURVE SMOOTH",
"679 564 OFFCURVE",
"461 646 OFFCURVE",
"35 685 CURVE"
);
}
);
width = 714;
},
{
associatedMasterId = "7F20675F-B4B1-45FA-B0F6-A97D5A641B97";
layerId = "1336F28E-E0A2-4A85-BA03-67B5296E9B00";
name = "Feb 26 18, 14:27";
paths = (
{
closed = 1;
nodes = (
"221 564 LINE",
"200 564 LINE",
"200 107 LINE",
"221 107 LINE"
);
},
{
closed = 1;
nodes = (
"35 464 LINE",
"420 592 OFFCURVE",
"722 446 OFFCURVE",
"544 178 CURVE",
"368 120 OFFCURVE",
"214 120 OFFCURVE",
"40 187 CURVE",
"40 168 LINE",
"53 -225 OFFCURVE",
"622 76 OFFCURVE",
"622 319 CURVE SMOOTH",
"622 545 OFFCURVE",
"157 910 OFFCURVE",
"35 485 CURVE"
);
}
);
width = 655;
},
{
associatedMasterId = "7F20675F-B4B1-45FA-B0F6-A97D5A641B97";
layerId = "695BC3EC-B522-41F4-8F12-E55C1CE9023A";
name = "Feb 26 18, 14:28";
paths = (
{
closed = 1;
nodes = (
"221 564 LINE",
"200 564 LINE",
"200 107 LINE",
"221 107 LINE"
);
},
{
closed = 1;
nodes = (
"35 464 LINE",
"420 592 OFFCURVE",
"722 446 OFFCURVE",
"544 178 CURVE",
"368 120 OFFCURVE",
"214 120 OFFCURVE",
"40 187 CURVE",
"40 -25 LINE",
"314 -25 OFFCURVE",
"606 88 OFFCURVE",
"622 319 CURVE SMOOTH",
"638 544 OFFCURVE",
"471 676 OFFCURVE",
"35 685 CURVE"
);
}
);
width = 655;
},
{
associatedMasterId = "7F20675F-B4B1-45FA-B0F6-A97D5A641B97";
layerId = "4ED3576C-601E-4556-8175-EF33D933A9F1";
paths = (
{
closed = 1;
nodes = (
"211 624 LINE",
"189 624 LINE",
"189 37 LINE",
"211 37 LINE"
);
},
{
closed = 1;
nodes = (
"52 455 LINE",
"92 575 OFFCURVE",
"194 610 OFFCURVE",
"316 610 CURVE SMOOTH",
"486 610 OFFCURVE",
"596 494 OFFCURVE",
"551 281 CURVE",
"523 117 OFFCURVE",
"424 45 OFFCURVE",
"319 45 CURVE SMOOTH",
"189 45 OFFCURVE",
"89 79 OFFCURVE",
"51 212 CURVE",
"37 206 LINE",
"39 40 OFFCURVE",
"139 -23 OFFCURVE",
"284 -23 CURVE SMOOTH",
"484 -23 OFFCURVE",
"674 108 OFFCURVE",
"674 332 CURVE SMOOTH",
"674 540 OFFCURVE",
"482 683 OFFCURVE",
"295 683 CURVE SMOOTH",
"162 683 OFFCURVE",
"49 619 OFFCURVE",
"36 462 CURVE"
);
}
);
width = 709;
},
{
associatedMasterId = "7F20675F-B4B1-45FA-B0F6-A97D5A641B97";
layerId = "C0B8D744-70FC-4634-B07F-06A9153197FD";
name = "Apr 1 18, 23:07";
paths = (
{
closed = 1;
nodes = (
"221 564 LINE",
"200 564 LINE",
"200 107 LINE",
"221 107 LINE"
);
},
{
closed = 1;
nodes = (
"35 464 LINE",
"139 496 OFFCURVE",
"239 511 OFFCURVE",
"327 511 CURVE SMOOTH",
"586 511 OFFCURVE",
"748 380 OFFCURVE",
"614 178 CURVE",
"529 150 OFFCURVE",
"433 136 OFFCURVE",
"337 136 CURVE SMOOTH",
"234 136 OFFCURVE",
"130 152 OFFCURVE",
"40 187 CURVE",
"40 168 LINE",
"45 29 OFFCURVE",
"127 -24 OFFCURVE",
"232 -24 CURVE SMOOTH",
"425 -24 OFFCURVE",
"692 155 OFFCURVE",
"692 319 CURVE SMOOTH",
"692 475 OFFCURVE",
"458 683 OFFCURVE",
"264 683 CURVE SMOOTH",
"165 683 OFFCURVE",
"76 629 OFFCURVE",
"35 485 CURVE"
);
}
);
width = 727;
},
{
associatedMasterId = "7F20675F-B4B1-45FA-B0F6-A97D5A641B97";
layerId = "360FCE3F-95FD-47A6-8FFD-401C40D828DA";
name = "Apr 1 18, 23:07";
paths = (
{
closed = 1;
nodes = (
"221 564 LINE",
"200 564 LINE",
"200 107 LINE",
"221 107 LINE"
);
},
{
closed = 1;
nodes = (
"35 464 LINE",
"139 496 OFFCURVE",
"239 511 OFFCURVE",
"327 511 CURVE SMOOTH",
"586 511 OFFCURVE",
"748 380 OFFCURVE",
"614 178 CURVE",
"529 150 OFFCURVE",
"433 136 OFFCURVE",
"337 136 CURVE SMOOTH",
"234 136 OFFCURVE",
"130 152 OFFCURVE",
"40 187 CURVE",
"40 168 LINE",
"45 29 OFFCURVE",
"127 -24 OFFCURVE",
"232 -24 CURVE SMOOTH",
"425 -24 OFFCURVE",
"692 155 OFFCURVE",
"692 319 CURVE SMOOTH",
"692 475 OFFCURVE",
"458 683 OFFCURVE",
"264 683 CURVE SMOOTH",
"165 683 OFFCURVE",
"76 629 OFFCURVE",
"35 485 CURVE"
);
}
);
width = 727;
},
{
associatedMasterId = "7F20675F-B4B1-45FA-B0F6-A97D5A641B97";
layerId = "A69B0AAB-C501-4C9B-B1C6-CDDE5422EA46";
name = "Apr 1 18, 23:17";
paths = (
{
closed = 1;
nodes = (
"51 631 LINE",
"119 631 OFFCURVE",
"191 631 OFFCURVE",
"329 631 CURVE SMOOTH",
"455 631 OFFCURVE",
"657 587 OFFCURVE",
"657 339 CURVE",
"657 57 OFFCURVE",
"438 23 OFFCURVE",
"329 23 CURVE SMOOTH",
"185 23 OFFCURVE",
"109 23 OFFCURVE",
"45 23 CURVE",
"45 0 LINE",
"341 0 OFFCURVE",
"174 0 OFFCURVE",
"339 0 CURVE SMOOTH",
"542 0 OFFCURVE",
"694 85 OFFCURVE",
"694 339 CURVE SMOOTH",
"694 573 OFFCURVE",
"523 655 OFFCURVE",
"339 655 CURVE SMOOTH",
"190 655 OFFCURVE",
"110 655 OFFCURVE",
"51 655 CURVE"
);
},
{
closed = 1;
nodes = (
"171 655 LINE",
"150 655 LINE",
"150 0 LINE",
"171 0 LINE"
);
},
{
closed = 1;
nodes = (
"36 655 LINE",
"36 654 LINE",
"150 326 LINE",
"171 326 LINE",
"290 653 LINE",
"290 655 LINE"
);
},
{
closed = 1;
nodes = (
"171 326 LINE",
"150 326 LINE",
"36 2 LINE",
"36 0 LINE",
"290 0 LINE",
"290 3 LINE"
);
}
);
width = 727;
},
{
associatedMasterId = "7F20675F-B4B1-45FA-B0F6-A97D5A641B97";
layerId = "DFC7A7E5-8353-4721-9075-E6FFD0AA0470";
name = "Apr 1 18, 23:19";
paths = (
{
closed = 1;
nodes = (
"51 631 LINE",
"119 631 OFFCURVE",
"145 631 OFFCURVE",
"283 631 CURVE",
"369 571 OFFCURVE",
"537 437 OFFCURVE",
"657 339 CURVE",
"525 227 OFFCURVE",
"389 114 OFFCURVE",
"280 23 CURVE",
"136 23 OFFCURVE",
"109 23 OFFCURVE",
"45 23 CURVE",
"45 0 LINE",
"341 0 OFFCURVE",
"174 0 OFFCURVE",
"339 0 CURVE SMOOTH",
"542 0 OFFCURVE",
"694 85 OFFCURVE",
"694 339 CURVE SMOOTH",
"694 573 OFFCURVE",
"523 655 OFFCURVE",
"339 655 CURVE SMOOTH",
"190 655 OFFCURVE",
"110 655 OFFCURVE",
"51 655 CURVE"
);
},
{
closed = 1;
nodes = (
"171 655 LINE",
"150 655 LINE",
"150 0 LINE",
"171 0 LINE"
);
},
{
closed = 1;
nodes = (
"36 655 LINE",
"36 654 LINE",
"150 326 LINE",
"171 326 LINE",
"290 653 LINE",
"290 655 LINE"
);
},
{
closed = 1;
nodes = (
"171 326 LINE",
"150 326 LINE",
"36 2 LINE",
"36 0 LINE",
"290 0 LINE",
"290 3 LINE"
);
}
);
width = 727;
},
{
associatedMasterId = "7F20675F-B4B1-45FA-B0F6-A97D5A641B97";
layerId = "373359A5-B7FC-474A-84B4-87BAA9A82DBA";
name = "Apr 3 18, 11:21";
paths = (
{
closed = 1;
nodes = (
"221 326 LINE",
"221 564 LINE",
"200 564 LINE",
"200 412 OFFCURVE",
"200 259 OFFCURVE",
"200 107 CURVE",
"221 107 LINE"
);
},
{
closed = 1;
nodes = (
"35 464 LINE",
"139 496 OFFCURVE",
"239 511 OFFCURVE",
"327 511 CURVE SMOOTH",
"586 511 OFFCURVE",
"748 380 OFFCURVE",
"614 178 CURVE",
"529 150 OFFCURVE",
"433 136 OFFCURVE",
"337 136 CURVE SMOOTH",
"234 136 OFFCURVE",
"130 152 OFFCURVE",
"40 187 CURVE",
"40 168 LINE",
"45 29 OFFCURVE",
"127 -24 OFFCURVE",
"232 -24 CURVE SMOOTH",
"425 -24 OFFCURVE",
"692 155 OFFCURVE",
"692 319 CURVE SMOOTH",
"692 475 OFFCURVE",
"458 683 OFFCURVE",
"264 683 CURVE SMOOTH",
"165 683 OFFCURVE",
"76 629 OFFCURVE",
"35 485 CURVE"
);
}
);
width = 727;
},
{
associatedMasterId = "7F20675F-B4B1-45FA-B0F6-A97D5A641B97";
layerId = "EF87A916-E647-4C79-BB61-817C58337CEA";
name = "Apr 5 18, 16:29";
paths = (
{
closed = 1;
nodes = (
"166 636 LINE",
"150 636 LINE",
"150 424 OFFCURVE",
"150 212 OFFCURVE",
"150 0 CURVE",
"170 0 LINE"
);
},
{
closed = 1;
nodes = (
"91 631 LINE",
"159 631 OFFCURVE",
"192 631 OFFCURVE",
"330 631 CURVE SMOOTH",
"424 631 OFFCURVE",
"530 518 OFFCURVE",
"530 328 CURVE SMOOTH",
"530 171 OFFCURVE",
"415 21 OFFCURVE",
"320 22 CURVE SMOOTH",
"166 23 LINE",
"166 0 LINE",
"320 0 LINE SMOOTH",
"493 0 OFFCURVE",
"675 112 OFFCURVE",
"675 328 CURVE SMOOTH",
"675 582 OFFCURVE",
"514 655 OFFCURVE",
"360 655 CURVE SMOOTH",
"211 655 OFFCURVE",
"150 655 OFFCURVE",
"91 655 CURVE"
);
},
{
closed = 1;
nodes = (
"168 263 LINE",
"150 263 LINE",
"36 3 LINE",
"35 0 LINE",
"286 0 LINE",
"286 3 LINE"
);
},
{
closed = 1;
nodes = (
"281 655 LINE",
"31 655 LINE",
"31 652 LINE",
"150 369 LINE",
"168 369 LINE",
"281 652 LINE"
);
}
);
width = 710;
},
{
associatedMasterId = "7F20675F-B4B1-45FA-B0F6-A97D5A641B97";
layerId = "A521EEDC-8E54-4A39-941A-06C44C1BD48F";
paths = (
{
closed = 1;
nodes = (
"209 636 LINE",
"117 636 LINE",
"117 424 OFFCURVE",
"117 212 OFFCURVE",
"117 0 CURVE",
"210 0 LINE"
);
},
{
closed = 1;
nodes = (
"91 632 LINE",
"159 632 OFFCURVE",
"192 632 OFFCURVE",
"330 632 CURVE SMOOTH",
"424 632 OFFCURVE",
"533 518 OFFCURVE",
"533 328 CURVE SMOOTH",
"533 171 OFFCURVE",
"415 22 OFFCURVE",
"320 23 CURVE SMOOTH",
"166 23 LINE",
"166 0 LINE",
"320 0 LINE SMOOTH",
"493 0 OFFCURVE",
"675 112 OFFCURVE",
"675 328 CURVE SMOOTH",
"675 582 OFFCURVE",
"514 655 OFFCURVE",
"360 655 CURVE SMOOTH",
"211 655 OFFCURVE",
"150 655 OFFCURVE",
"91 655 CURVE"
);
},
{
closed = 1;
nodes = (
"167 103 LINE",
"153 103 LINE",
"35 16 LINE",
"35 0 LINE",
"200 0 LINE",
"200 16 LINE"
);
},
{
closed = 1;
nodes = (
"205 655 LINE",
"34 655 LINE",
"34 639 LINE",
"152 545 LINE",
"165 545 LINE",
"205 639 LINE"
);
}
);
width = 723;
}
);
unicode = 0044;
},
{
glyphname = E;
lastChange = "2018-04-09 15:13:36 +0000";
layers = (
{
layerId = "7F20675F-B4B1-45FA-B0F6-A97D5A641B97";
paths = (
{
closed = 1;
nodes = (
"568 310 LINE",
"568 330 LINE",
"163 330 LINE",
"163 310 LINE"
);
},
{
closed = 1;
nodes = (
"152 0 LINE",
"172 0 LINE",
"172 655 LINE",
"152 655 LINE"
);
},
{
closed = 1;
nodes = (
"36 655 LINE",
"36 654 LINE",
"152 369 LINE",
"173 369 LINE",
"286 653 LINE",
"286 655 LINE"
);
},
{
closed = 1;
nodes = (
"173 263 LINE",
"152 263 LINE",
"35 2 LINE",
"35 0 LINE",
"285 0 LINE",
"285 3 LINE"
);
},
{
closed = 1;
nodes = (
"368 655 LINE",
"368 635 LINE",
"598 368 LINE",
"598 655 LINE"
);
},
{
closed = 1;
nodes = (
"372 636 LINE",
"598 378 LINE",
"598 655 LINE",
"372 655 LINE"
);
},
{
closed = 1;
nodes = (
"108 655 LINE",
"108 635 LINE",
"438 635 LINE",
"438 655 LINE"
);
},
{
closed = 1;
nodes = (
"598 267 LINE",
"368 20 LINE",
"368 0 LINE",
"598 0 LINE"
);
},
{
closed = 1;
nodes = (
"598 0 LINE",
"598 257 LINE",
"372 19 LINE",
"372 0 LINE"
);
},
{
closed = 1;
nodes = (
"438 20 LINE",
"108 20 LINE",
"108 0 LINE",
"438 0 LINE"
);
}
);
width = 633;
},
{
layerId = "1195BCD1-8D25-4D5E-8C85-FC733C7A5356";
paths = (
{
closed = 1;
nodes = (
"565 310 LINE",
"565 330 LINE",
"160 330 LINE",
"160 310 LINE"
);
},
{
closed = 1;
nodes = (
"96 0 LINE",
"226 0 LINE",
"226 655 LINE",
"96 655 LINE"
);
},
{
closed = 1;
nodes = (
"35 655 LINE",
"35 633 LINE",
"149 633 LINE",
"170 633 LINE",
"116 633 LINE",
"116 655 LINE"
);
},
{
closed = 1;
nodes = (
"170 23 LINE",
"149 23 LINE",
"35 23 LINE",
"35 0 LINE",
"118 0 LINE",
"118 23 LINE"
);
},
{
closed = 1;
nodes = (
"195 655 LINE",
"195 633 LINE",
"595 633 LINE",
"595 655 LINE"
);
},
{
closed = 1;
nodes = (
"377 633 LINE",
"595 418 LINE",
"595 655 LINE",
"377 655 LINE"
);
},
{
closed = 1;
nodes = (
"105 655 LINE",
"105 633 LINE",
"435 633 LINE",
"435 655 LINE"
);
},
{
closed = 1;
nodes = (
"595 23 LINE",
"125 22 LINE",
"125 0 LINE",
"595 0 LINE"
);
},
{
closed = 1;
nodes = (
"595 0 LINE",
"595 237 LINE",
"369 19 LINE",
"369 0 LINE"
);
},
{
closed = 1;
nodes = (
"435 23 LINE",
"105 23 LINE",
"105 0 LINE",
"435 0 LINE"
);
}
);
width = 630;
},
{
associatedMasterId = "7F20675F-B4B1-45FA-B0F6-A97D5A641B97";
layerId = "52424A7D-57A5-41EF-BCD6-8511209126C5";
name = "Feb 25 18, 23:28";
paths = (
{
closed = 1;
nodes = (
"203 655 LINE",
"180 655 LINE",
"180 189 LINE",
"203 189 LINE"
);
},
{
closed = 1;
nodes = (
"197 631 LINE",
"606 448 LINE",
"606 655 LINE",
"197 655 LINE"
);
},
{
closed = 1;
nodes = (
"35 0 LINE",
"203 0 LINE",
"203 189 LINE",
"180 189 LINE"
);
},
{
closed = 1;
nodes = (
"203 466 LINE",
"203 655 LINE",
"35 655 LINE"
);
},
{
closed = 1;
nodes = (
"606 0 LINE",
"606 197 LINE",
"197 24 LINE",
"197 0 LINE"
);
},
{
closed = 1;
nodes = (
"56 315 LINE",
"555 315 LINE",
"555 340 LINE",
"58 340 LINE"
);
}
);
width = 641;
},
{
associatedMasterId = "7F20675F-B4B1-45FA-B0F6-A97D5A641B97";
layerId = "78EA2953-9255-4846-AE00-5ECE95D92D2A";
name = "Feb 25 18, 23:44";
paths = (
{
closed = 1;
nodes = (
"203 655 LINE",
"180 655 LINE",
"180 189 LINE",
"203 189 LINE"
);
},
{
closed = 1;
nodes = (
"197 631 LINE",
"606 448 LINE",
"606 655 LINE",
"197 655 LINE"
);
},
{
closed = 1;
nodes = (
"35 0 LINE",
"203 0 LINE",
"203 189 LINE",
"180 189 LINE"
);
},
{
closed = 1;
nodes = (
"203 466 LINE",
"203 655 LINE",
"35 655 LINE"
);
},
{
closed = 1;
nodes = (
"606 0 LINE",
"606 197 LINE",
"197 24 LINE",
"197 0 LINE"
);
},
{
closed = 1;
nodes = (
"56 315 LINE",
"555 315 LINE",
"555 340 LINE",
"58 340 LINE"
);
}
);
width = 641;
},
{
associatedMasterId = "7F20675F-B4B1-45FA-B0F6-A97D5A641B97";
layerId = "DCB68F6C-C210-4A0C-B3BA-DA74109A8D4D";
name = "Feb 25 18, 23:44";
paths = (
{
closed = 1;
nodes = (
"203 655 LINE",
"180 655 LINE",
"180 0 LINE",
"203 0 LINE"
);
},
{
closed = 1;
nodes = (
"58 631 LINE",
"606 448 LINE",
"606 655 LINE",
"58 655 LINE"
);
},
{
closed = 1;
nodes = (
"606 0 LINE",
"606 197 LINE",
"56 24 LINE",
"56 0 LINE"
);
},
{
closed = 1;
nodes = (
"56 315 LINE",
"555 315 LINE",
"555 340 LINE",
"56 340 LINE"
);
}
);
width = 641;
},
{
associatedMasterId = "7F20675F-B4B1-45FA-B0F6-A97D5A641B97";
layerId = "9D4228BD-7291-4707-B146-F9F1471A30D4";
name = "Feb 25 18, 23:45";
paths = (
{
closed = 1;
nodes = (
"203 595 LINE",
"180 595 LINE",
"180 80 LINE",
"203 80 LINE"
);
},
{
closed = 1;
nodes = (
"58 561 LINE",
"606 448 LINE",
"606 682 LINE",
"58 585 LINE"
);
},
{
closed = 1;
nodes = (
"606 -16 LINE",
"606 197 LINE",
"56 114 LINE",
"56 90 LINE"
);
},
{
closed = 1;
nodes = (
"56 315 LINE",
"555 315 LINE",
"555 340 LINE",
"56 340 LINE"
);
}
);
width = 641;
},
{
associatedMasterId = "7F20675F-B4B1-45FA-B0F6-A97D5A641B97";
layerId = "17B5792A-B691-4149-B932-495B7A62F1C0";
name = "Feb 26 18, 13:17";
paths = (
{
closed = 1;
nodes = (
"203 655 LINE",
"180 655 LINE",
"180 0 LINE",
"203 0 LINE"
);
},
{
closed = 1;
nodes = (
"58 631 LINE",
"606 460 LINE",
"606 655 LINE",
"58 655 LINE"
);
},
{
closed = 1;
nodes = (
"606 0 LINE",
"606 197 LINE",
"56 24 LINE",
"56 0 LINE"
);
},
{
closed = 1;
nodes = (
"56 315 LINE",
"606 315 LINE",
"606 340 LINE",
"56 340 LINE"
);
}
);
width = 641;
},
{
associatedMasterId = "7F20675F-B4B1-45FA-B0F6-A97D5A641B97";
layerId = "4ED3576C-601E-4556-8175-EF33D933A9F1";
width = 747;
},
{
associatedMasterId = "7F20675F-B4B1-45FA-B0F6-A97D5A641B97";
layerId = "9F11013F-4B78-4386-BE21-C9999A410E2E";
name = "Mar 7 18, 11:45";
paths = (
{
closed = 1;
nodes = (
"547 278 LINE",
"714 103 OFFCURVE",
"627 0 OFFCURVE",
"434 1 CURVE SMOOTH",
"34 3 LINE",
"110 131 OFFCURVE",
"130 231 OFFCURVE",
"157 334 CURVE",
"157 337 LINE",
"129 431 OFFCURVE",
"88 561 OFFCURVE",
"40 655 CURVE",
"296 655 LINE",
"231 571 OFFCURVE",
"176 431 OFFCURVE",
"176 334 CURVE",
"176 228 OFFCURVE",
"184 10 OFFCURVE",
"326 24 CURVE SMOOTH",
"454 37 OFFCURVE",
"509 167 OFFCURVE",
"541 278 CURVE"
);
}
);
width = 641;
},
{
associatedMasterId = "1195BCD1-8D25-4D5E-8C85-FC733C7A5356";
layerId = "06595C63-1BF1-4A09-9A46-2B073B6046C3";
name = "Mar 9 18, 17:01";
paths = (
{
closed = 1;
nodes = (
"541 25 LINE",
"467 25 OFFCURVE",
"315 24 OFFCURVE",
"177 24 CURVE",
"177 131 OFFCURVE",
"176 228 OFFCURVE",
"176 334 CURVE SMOOTH",
"176 634 LINE SMOOTH",
"305 634 OFFCURVE",
"469 634 OFFCURVE",
"541 634 CURVE",
"541 656 LINE",
"438 656 OFFCURVE",
"417 657 OFFCURVE",
"224 656 CURVE SMOOTH",
"34 655 LINE",
"34 529 OFFCURVE",
"34 430 OFFCURVE",
"35 329 CURVE",
"34 226 OFFCURVE",
"34 126 OFFCURVE",
"34 0 CURVE",
"228 0 LINE SMOOTH",
"421 0 OFFCURVE",
"469 0 OFFCURVE",
"541 0 CURVE"
);
},
{
closed = 1;
nodes = (
"539 315 LINE",
"539 340 LINE",
"164 340 LINE",
"164 315 LINE"
);
}
);
width = 576;
},
{
associatedMasterId = "7F20675F-B4B1-45FA-B0F6-A97D5A641B97";
layerId = "E1CD8A97-BA47-4BD7-B3FA-0499EF4AC4BB";
name = "Apr 1 18, 13:20";
paths = (
{
closed = 1;
nodes = (
"35 0 LINE",
"434 0 LINE SMOOTH",
"627 0 OFFCURVE",
"714 103 OFFCURVE",
"547 278 CURVE",
"541 278 LINE",
"509 167 OFFCURVE",
"464 23 OFFCURVE",
"326 23 CURVE SMOOTH",
"185 23 OFFCURVE",
"176 220 OFFCURVE",
"176 327 CURVE",
"156 327 LINE",
"35 2 LINE"
);
},
{
closed = 1;
nodes = (
"539 315 LINE",
"539 340 LINE",
"164 340 LINE",
"164 315 LINE"
);
},
{
closed = 1;
nodes = (
"35 653 LINE",
"156 327 LINE",
"176 327 LINE",
"176 435 OFFCURVE",
"187 634 OFFCURVE",
"326 634 CURVE SMOOTH",
"455 634 OFFCURVE",
"509 491 OFFCURVE",
"541 380 CURVE",
"547 380 LINE",
"714 555 OFFCURVE",
"627 655 OFFCURVE",
"434 655 CURVE SMOOTH",
"35 655 LINE"
);
},
{
closed = 1;
nodes = (
"156 0 LINE",
"176 0 LINE",
"176 655 LINE",
"156 655 LINE"
);
}
);
width = 671;
}
);
unicode = 0045;
},
{
glyphname = F;
lastChange = "2018-04-11 20:05:19 +0000";
layers = (
{
layerId = "7F20675F-B4B1-45FA-B0F6-A97D5A641B97";
paths = (
{
closed = 1;
nodes = (
"561 310 LINE",
"561 330 LINE",
"156 330 LINE",
"156 310 LINE"
);
},
{
closed = 1;
nodes = (
"145 0 LINE",
"165 0 LINE",
"165 655 LINE",
"145 655 LINE"
);
},
{
closed = 1;
nodes = (
"31 655 LINE",
"31 654 LINE",
"145 369 LINE",
"166 369 LINE",
"275 653 LINE",
"275 655 LINE"
);
},
{
closed = 1;
nodes = (
"166 263 LINE",
"145 263 LINE",
"31 2 LINE",
"31 0 LINE",
"275 0 LINE",
"275 3 LINE"
);
},
{
closed = 1;
nodes = (
"361 655 LINE",
"361 635 LINE",
"591 368 LINE",
"591 655 LINE"
);
},
{
closed = 1;
nodes = (
"365 636 LINE",
"591 378 LINE",
"591 655 LINE",
"365 655 LINE"
);
},
{
closed = 1;
nodes = (
"101 655 LINE",
"101 635 LINE",
"431 635 LINE",
"431 655 LINE"
);
}
);
width = 626;
},
{
layerId = "1195BCD1-8D25-4D5E-8C85-FC733C7A5356";
paths = (
{
closed = 1;
nodes = (
"561 310 LINE",
"561 330 LINE",
"156 330 LINE",
"156 310 LINE"
);
},
{
closed = 1;
nodes = (
"90 0 LINE",
"220 0 LINE",
"220 655 LINE",
"90 655 LINE"
);
},
{
closed = 1;
nodes = (
"31 655 LINE",
"31 633 LINE",
"145 633 LINE",
"166 633 LINE",
"105 633 LINE",
"105 655 LINE"
);
},
{
closed = 1;
nodes = (
"166 23 LINE",
"145 23 LINE",
"31 23 LINE",
"31 0 LINE",
"295 0 LINE",
"295 23 LINE"
);
},
{
closed = 1;
nodes = (
"44 655 LINE",
"44 633 LINE",
"591 633 LINE",
"591 655 LINE"
);
},
{
closed = 1;
nodes = (
"365 636 LINE",
"591 418 LINE",
"591 655 LINE",
"365 655 LINE"
);
},
{
closed = 1;
nodes = (
"101 655 LINE",
"101 633 LINE",
"431 633 LINE",
"431 655 LINE"
);
}
);
width = 630;
},
{
associatedMasterId = "7F20675F-B4B1-45FA-B0F6-A97D5A641B97";
layerId = "4ED3576C-601E-4556-8175-EF33D933A9F1";
width = 783;
},
{
associatedMasterId = "1195BCD1-8D25-4D5E-8C85-FC733C7A5356";
layerId = "AAB5BCCF-E024-499B-9681-3E74C5C81C36";
name = "Apr 1 18, 13:05";
paths = (
{
closed = 1;
nodes = (
"539 340 LINE",
"539 315 LINE",
"164 315 LINE",
"164 340 LINE"
);
},
{
closed = 1;
nodes = (
"176 655 LINE",
"176 0 LINE",
"156 0 LINE",
"156 655 LINE"
);
},
{
closed = 1;
nodes = (
"35 655 LINE",
"434 655 LINE SMOOTH",
"627 655 OFFCURVE",
"714 555 OFFCURVE",
"547 380 CURVE",
"541 380 LINE",
"509 491 OFFCURVE",
"464 634 OFFCURVE",
"326 634 CURVE SMOOTH",
"291 634 OFFCURVE",
"207 633 OFFCURVE",
"176 633 CURVE",
"156 633 LINE",
"35 633 LINE"
);
},
{
closed = 1;
nodes = (
"295 0 LINE",
"35 0 LINE",
"35 2 LINE",
"156 331 LINE",
"176 331 LINE",
"295 1 LINE"
);
}
);
width = 671;
},
{
associatedMasterId = "1195BCD1-8D25-4D5E-8C85-FC733C7A5356";
layerId = "B5B540A1-A5D0-432F-94E5-7F895EAAE36B";
name = "Apr 1 18, 13:07";
paths = (
{
closed = 1;
nodes = (
"539 340 LINE",
"539 315 LINE",
"164 315 LINE",
"164 340 LINE"
);
},
{
closed = 1;
nodes = (
"176 655 LINE",
"176 0 LINE",
"156 0 LINE",
"156 655 LINE"
);
},
{
closed = 1;
nodes = (
"35 655 LINE",
"434 655 LINE SMOOTH",
"627 655 OFFCURVE",
"714 555 OFFCURVE",
"547 380 CURVE",
"541 380 LINE",
"509 491 OFFCURVE",
"464 634 OFFCURVE",
"326 634 CURVE SMOOTH",
"291 634 OFFCURVE",
"207 633 OFFCURVE",
"176 633 CURVE",
"156 633 LINE",
"35 633 LINE"
);
},
{
closed = 1;
nodes = (
"295 0 LINE",
"35 0 LINE",
"35 23 LINE",
"156 23 LINE",
"176 23 LINE",
"295 23 LINE"
);
}
);
width = 671;
},
{
associatedMasterId = "7F20675F-B4B1-45FA-B0F6-A97D5A641B97";
layerId = "6B8EDEB2-448E-47CB-8665-649B4D51DA7D";
name = "Apr 1 18, 15:19";
paths = (
{
closed = 1;
nodes = (
"539 340 LINE",
"539 315 LINE",
"164 315 LINE",
"164 340 LINE"
);
},
{
closed = 1;
nodes = (
"176 655 LINE",
"176 0 LINE",
"156 0 LINE",
"156 655 LINE"
);
},
{
closed = 1;
nodes = (
"35 655 LINE",
"434 655 LINE SMOOTH",
"627 655 OFFCURVE",
"714 555 OFFCURVE",
"547 380 CURVE",
"541 380 LINE",
"509 491 OFFCURVE",
"464 634 OFFCURVE",
"326 634 CURVE SMOOTH",
"189 634 OFFCURVE",
"177 440 OFFCURVE",
"176 331 CURVE",
"156 331 LINE",
"35 653 LINE"
);
},
{
closed = 1;
nodes = (
"295 0 LINE",
"35 0 LINE",
"35 2 LINE",
"156 331 LINE",
"176 331 LINE",
"295 1 LINE"
);
}
);
width = 671;
},
{
associatedMasterId = "7F20675F-B4B1-45FA-B0F6-A97D5A641B97";
layerId = "A521EEDC-8E54-4A39-941A-06C44C1BD48F";
paths = (
{
closed = 1;
nodes = (
"561 310 LINE",
"561 330 LINE",
"156 330 LINE",
"156 310 LINE"
);
},
{
closed = 1;
nodes = (
"108 0 LINE",
"202 0 LINE",
"202 655 LINE",
"108 655 LINE"
);
},
{
closed = 1;
nodes = (
"31 655 LINE",
"31 640 LINE",
"145 545 LINE",
"166 545 LINE",
"162 640 LINE",
"162 655 LINE"
);
},
{
closed = 1;
nodes = (
"166 103 LINE",
"145 103 LINE",
"31 16 LINE",
"31 0 LINE",
"288 0 LINE",
"288 16 LINE"
);
},
{
closed = 1;
nodes = (
"150 655 LINE",
"150 634 LINE",
"591 545 LINE",
"591 655 LINE"
);
},
{
closed = 1;
nodes = (
"365 636 LINE",
"591 405 LINE",
"591 655 LINE",
"365 655 LINE"
);
},
{
closed = 1;
nodes = (
"101 655 LINE",
"101 634 LINE",
"431 634 LINE",
"431 655 LINE"
);
}
);
width = 629;
}
);
unicode = 0046;
},
{
glyphname = G;
lastChange = "2018-04-11 20:05:19 +0000";
layers = (
{
layerId = "7F20675F-B4B1-45FA-B0F6-A97D5A641B97";
paths = (
{
closed = 1;
nodes = (
"422 -19 OFFCURVE",
"503 90 OFFCURVE",
"510 326 CURVE",
"509 326 LINE",
"445 187 OFFCURVE",
"344 116 OFFCURVE",
"249 116 CURVE SMOOTH",
"123 116 OFFCURVE",
"7 266 OFFCURVE",
"74 426 CURVE",
"189 548 OFFCURVE",
"540 589 OFFCURVE",
"636 438 CURVE",
"637 438 LINE",
"708 572 OFFCURVE",
"572 684 OFFCURVE",
"407 684 CURVE SMOOTH",
"216 684 OFFCURVE",
"37 519 OFFCURVE",
"37 334 CURVE SMOOTH",
"37 182 OFFCURVE",
"181 -19 OFFCURVE",
"320 -19 CURVE SMOOTH"
);
},
{
closed = 1;
nodes = (
"532 -1 LINE",
"532 334 LINE",
"512 334 LINE",
"512 -1 LINE"
);
},
{
closed = 1;
nodes = (
"695 319 LINE",
"695 339 LINE",
"340 339 LINE",
"340 319 LINE"
);
}
);
width = 730;
},
{
layerId = "1195BCD1-8D25-4D5E-8C85-FC733C7A5356";
paths = (
{
closed = 1;
nodes = (
"493 -16 OFFCURVE",
"539 149 OFFCURVE",
"539 323 CURVE",
"517 323 LINE",
"517 224 OFFCURVE",
"506 23 OFFCURVE",
"370 23 CURVE SMOOTH",
"107 23 OFFCURVE",
"113 644 OFFCURVE",
"366 644 CURVE",
"475 644 OFFCURVE",
"564 578 OFFCURVE",
"587 450 CURVE",
"605 450 LINE",
"591 578 OFFCURVE",
"479 684 OFFCURVE",
"352 684 CURVE SMOOTH",
"140 684 OFFCURVE",
"35 507 OFFCURVE",
"35 332 CURVE SMOOTH",
"35 149 OFFCURVE",
"115 -16 OFFCURVE",
"332 -16 CURVE SMOOTH"
);
},
{
closed = 1;
nodes = (
"539 -1 LINE",
"539 334 LINE",
"519 334 LINE",
"519 -1 LINE"
);
},
{
closed = 1;
nodes = (
"702 319 LINE",
"702 339 LINE",
"347 339 LINE",
"347 319 LINE"
);
}
);
width = 783;
},
{
associatedMasterId = "7F20675F-B4B1-45FA-B0F6-A97D5A641B97";
layerId = "4ED3576C-601E-4556-8175-EF33D933A9F1";
width = 783;
},
{
associatedMasterId = "7F20675F-B4B1-45FA-B0F6-A97D5A641B97";
layerId = "DDAB110A-EA04-44A5-98A0-3F2391E0335F";
name = "Apr 3 18, 13:24";
paths = (
{
closed = 1;
nodes = (
"301 -96 OFFCURVE",
"555 -58 OFFCURVE",
"626 319 CURVE",
"605 319 LINE",
"516 3 OFFCURVE",
"-22 83 OFFCURVE",
"74 426 CURVE",
"229 528 OFFCURVE",
"480 559 OFFCURVE",
"566 438 CURVE",
"567 438 LINE",
"632 626 OFFCURVE",
"395 788 OFFCURVE",
"174 599 CURVE SMOOTH",
"4 453 OFFCURVE",
"-12 258 OFFCURVE",
"136 91 CURVE SMOOTH"
);
},
{
closed = 1;
nodes = (
"685 316 LINE",
"685 341 LINE",
"290 341 LINE",
"290 316 LINE"
);
}
);
width = 720;
},
{
associatedMasterId = "7F20675F-B4B1-45FA-B0F6-A97D5A641B97";
layerId = "A521EEDC-8E54-4A39-941A-06C44C1BD48F";
paths = (
{
closed = 1;
nodes = (
"469 -17 OFFCURVE",
"527 129 OFFCURVE",
"529 324 CURVE",
"514 324 LINE",
"493 212 OFFCURVE",
"452 54 OFFCURVE",
"330 54 CURVE SMOOTH",
"112 54 OFFCURVE",
"78 518 OFFCURVE",
"269 571 CURVE",
"380 612 OFFCURVE",
"556 582 OFFCURVE",
"603 446 CURVE",
"616 446 LINE",
"630 576 OFFCURVE",
"510 684 OFFCURVE",
"370 684 CURVE SMOOTH",
"165 684 OFFCURVE",
"36 511 OFFCURVE",
"36 333 CURVE SMOOTH",
"36 160 OFFCURVE",
"137 -17 OFFCURVE",
"328 -17 CURVE SMOOTH"
);
},
{
closed = 1;
nodes = (
"537 -1 LINE",
"537 334 LINE",
"517 334 LINE",
"517 -1 LINE"
);
},
{
closed = 1;
nodes = (
"700 319 LINE",
"700 339 LINE",
"345 339 LINE",
"345 319 LINE"
);
}
);
width = 765;
}
);
unicode = 0047;
},
{
glyphname = H;
lastChange = "2018-04-11 20:05:19 +0000";
layers = (
{
layerId = "7F20675F-B4B1-45FA-B0F6-A97D5A641B97";
paths = (
{
closed = 1;
nodes = (
"599 330 LINE",
"599 310 LINE",
"164 310 LINE",
"164 330 LINE"
);
},
{
closed = 1;
nodes = (
"151 0 LINE",
"151 655 LINE",
"171 655 LINE",
"171 0 LINE"
);
},
{
closed = 1;
nodes = (
"290 653 LINE",
"171 369 LINE",
"150 369 LINE",
"36 654 LINE",
"36 655 LINE",
"290 655 LINE"
);
},
{
closed = 1;
nodes = (
"730 654 LINE",
"611 369 LINE",
"589 369 LINE",
"475 654 LINE",
"475 655 LINE",
"730 655 LINE"
);
},
{
closed = 1;
nodes = (
"290 0 LINE",
"36 0 LINE",
"36 2 LINE",
"150 263 LINE",
"171 263 LINE",
"290 3 LINE"
);
},
{
closed = 1;
nodes = (
"467 4 LINE",
"589 263 LINE",
"611 263 LINE",
"729 4 LINE",
"729 0 LINE",
"467 0 LINE"
);
},
{
closed = 1;
nodes = (
"590 0 LINE",
"590 655 LINE",
"610 655 LINE",
"610 0 LINE"
);
}
);
width = 766;
},
{
layerId = "1195BCD1-8D25-4D5E-8C85-FC733C7A5356";
paths = (
{
closed = 1;
nodes = (
"598 330 LINE",
"598 310 LINE",
"163 310 LINE",
"163 330 LINE"
);
},
{
closed = 1;
nodes = (
"97 0 LINE",
"97 655 LINE",
"227 655 LINE",
"227 0 LINE"
);
},
{
closed = 1;
nodes = (
"289 633 LINE",
"170 633 LINE",
"149 633 LINE",
"35 633 LINE",
"35 655 LINE",
"289 655 LINE"
);
},
{
closed = 1;
nodes = (
"729 633 LINE",
"610 633 LINE",
"588 633 LINE",
"474 633 LINE",
"474 655 LINE",
"729 655 LINE"
);
},
{
closed = 1;
nodes = (
"289 0 LINE",
"35 0 LINE",
"35 23 LINE",
"149 23 LINE",
"170 23 LINE",
"289 23 LINE"
);
},
{
closed = 1;
nodes = (
"466 23 LINE",
"588 23 LINE",
"610 23 LINE",
"728 23 LINE",
"728 0 LINE",
"466 0 LINE"
);
},
{
closed = 1;
nodes = (
"534 0 LINE",
"534 655 LINE",
"664 655 LINE",
"664 0 LINE"
);
}
);
width = 764;
},
{
associatedMasterId = "7F20675F-B4B1-45FA-B0F6-A97D5A641B97";
layerId = "E2232FF4-0154-4388-A1EA-1A2B64AA6BA0";
name = "Feb 23 18, 16:05";
paths = (
{
closed = 1;
nodes = (
"178 96 OFFCURVE",
"189 204 OFFCURVE",
"190 327 CURVE",
"189 451 OFFCURVE",
"178 559 OFFCURVE",
"35 655 CURVE",
"371 655 LINE",
"219 558 OFFCURVE",
"211 435 OFFCURVE",
"211 327 CURVE SMOOTH",
"211 220 OFFCURVE",
"219 97 OFFCURVE",
"371 0 CURVE",
"35 0 LINE"
);
},
{
closed = 1;
nodes = (
"618 96 OFFCURVE",
"629 204 OFFCURVE",
"630 328 CURVE",
"629 451 OFFCURVE",
"618 559 OFFCURVE",
"475 655 CURVE",
"811 655 LINE",
"659 558 OFFCURVE",
"651 435 OFFCURVE",
"651 328 CURVE SMOOTH",
"651 220 OFFCURVE",
"659 97 OFFCURVE",
"811 0 CURVE",
"475 0 LINE"
);
},
{
closed = 1;
nodes = (
"639 340 LINE",
"639 315 LINE",
"204 315 LINE",
"204 340 LINE"
);
}
);
width = 846;
},
{
associatedMasterId = "7F20675F-B4B1-45FA-B0F6-A97D5A641B97";
layerId = "405F9D10-6B7E-4ECC-90A8-F3EDE4B88AC1";
name = "Feb 23 18, 16:10";
paths = (
{
closed = 1;
nodes = (
"566 340 LINE",
"566 315 LINE",
"131 315 LINE",
"131 340 LINE"
);
},
{
closed = 1;
nodes = (
"115 228 LINE",
"115 441 LINE",
"41 655 LINE",
"223 655 LINE",
"140 441 LINE",
"140 228 LINE"
);
},
{
closed = 1;
nodes = (
"140 228 LINE",
"229 0 LINE",
"35 0 LINE",
"115 228 LINE"
);
},
{
closed = 1;
nodes = (
"555 228 LINE",
"555 441 LINE",
"481 655 LINE",
"663 655 LINE",
"580 441 LINE",
"580 228 LINE"
);
},
{
closed = 1;
nodes = (
"580 228 LINE",
"669 0 LINE",
"475 0 LINE",
"555 228 LINE"
);
}
);
width = 704;
},
{
associatedMasterId = "7F20675F-B4B1-45FA-B0F6-A97D5A641B97";
layerId = "A2064343-54C8-4F04-A244-6A71A3A7D517";
name = "Feb 26 18, 12:01";
paths = (
{
closed = 1;
nodes = (
"190 442 LINE",
"35 655 LINE",
"371 655 LINE",
"211 442 LINE"
);
},
{
closed = 1;
nodes = (
"629 444 LINE",
"475 655 LINE",
"811 655 LINE",
"651 444 LINE"
);
},
{
closed = 1;
nodes = (
"639 340 LINE",
"639 315 LINE",
"204 315 LINE",
"204 340 LINE"
);
},
{
closed = 1;
nodes = (
"629 187 LINE",
"629 444 LINE",
"651 444 LINE",
"651 187 LINE"
);
},
{
closed = 1;
nodes = (
"651 187 LINE",
"811 0 LINE",
"475 0 LINE",
"629 187 LINE"
);
},
{
closed = 1;
nodes = (
"190 184 LINE",
"190 442 LINE",
"211 442 LINE",
"211 184 LINE"
);
},
{
closed = 1;
nodes = (
"211 184 LINE",
"371 0 LINE",
"35 0 LINE",
"190 184 LINE"
);
}
);
width = 846;
},
{
associatedMasterId = "7F20675F-B4B1-45FA-B0F6-A97D5A641B97";
layerId = "4ED3576C-601E-4556-8175-EF33D933A9F1";
paths = (
{
closed = 1;
nodes = (
"109 374 LINE",
"81 468 OFFCURVE",
"89 561 OFFCURVE",
"41 655 CURVE",
"197 655 LINE",
"147 561 OFFCURVE",
"160 468 OFFCURVE",
"130 374 CURVE"
);
},
{
closed = 1;
nodes = (
"546 374 LINE",
"518 468 OFFCURVE",
"531 561 OFFCURVE",
"483 655 CURVE",
"637 655 LINE",
"587 561 OFFCURVE",
"598 468 OFFCURVE",
"568 374 CURVE"
);
},
{
closed = 1;
nodes = (
"558 340 LINE",
"558 315 LINE",
"123 315 LINE",
"123 340 LINE"
);
},
{
closed = 1;
nodes = (
"514 92 LINE",
"514 561 LINE",
"606 561 LINE",
"606 92 LINE"
);
},
{
closed = 1;
nodes = (
"574 277 LINE",
"604 185 OFFCURVE",
"590 92 OFFCURVE",
"640 0 CURVE",
"481 0 LINE",
"532 92 OFFCURVE",
"521 185 OFFCURVE",
"552 277 CURVE"
);
},
{
closed = 1;
nodes = (
"73 6 LINE",
"73 655 LINE",
"168 655 LINE",
"168 6 LINE"
);
},
{
closed = 1;
nodes = (
"130 277 LINE",
"160 185 OFFCURVE",
"154 92 OFFCURVE",
"204 0 CURVE",
"41 0 LINE",
"89 92 OFFCURVE",
"81 185 OFFCURVE",
"109 277 CURVE"
);
}
);
width = 681;
},
{
associatedMasterId = "7F20675F-B4B1-45FA-B0F6-A97D5A641B97";
layerId = "A521EEDC-8E54-4A39-941A-06C44C1BD48F";
paths = (
{
closed = 1;
nodes = (
"598 330 LINE",
"598 310 LINE",
"163 310 LINE",
"163 330 LINE"
);
},
{
closed = 1;
nodes = (
"115 0 LINE",
"115 655 LINE",
"208 655 LINE",
"208 0 LINE"
);
},
{
closed = 1;
nodes = (
"289 640 LINE",
"170 545 LINE",
"149 545 LINE",
"35 640 LINE",
"35 655 LINE",
"289 655 LINE"
);
},
{
closed = 1;
nodes = (
"729 640 LINE",
"610 545 LINE",
"588 545 LINE",
"474 640 LINE",
"474 655 LINE",
"729 655 LINE"
);
},
{
closed = 1;
nodes = (
"289 0 LINE",
"35 0 LINE",
"35 16 LINE",
"149 103 LINE",
"170 103 LINE",
"289 16 LINE"
);
},
{
closed = 1;
nodes = (
"466 17 LINE",
"588 103 LINE",
"610 103 LINE",
"728 17 LINE",
"728 0 LINE",
"466 0 LINE"
);
},
{
closed = 1;
nodes = (
"553 0 LINE",
"553 655 LINE",
"646 655 LINE",
"646 0 LINE"
);
}
);
width = 765;
}
);
unicode = 0048;
},
{
glyphname = I;
lastChange = "2018-04-11 20:05:19 +0000";
layers = (
{
layerId = "7F20675F-B4B1-45FA-B0F6-A97D5A641B97";
paths = (
{
closed = 1;
nodes = (
"179 0 LINE",
"159 0 LINE",
"159 655 LINE",
"179 655 LINE"
);
},
{
closed = 1;
nodes = (
"293 -2 LINE",
"43 -2 LINE",
"43 0 LINE",
"159 263 LINE",
"179 263 LINE",
"293 0 LINE"
);
},
{
closed = 1;
nodes = (
"48 655 LINE",
"298 655 LINE",
"298 653 LINE",
"179 369 LINE",
"159 369 LINE",
"48 652 LINE"
);
}
);
width = 336;
},
{
layerId = "1195BCD1-8D25-4D5E-8C85-FC733C7A5356";
paths = (
{
closed = 1;
nodes = (
"238 0 LINE",
"108 0 LINE",
"108 655 LINE",
"238 655 LINE"
);
},
{
closed = 1;
nodes = (
"299 -2 LINE",
"35 -2 LINE",
"35 23 LINE",
"157 23 LINE",
"179 23 LINE",
"299 23 LINE"
);
},
{
closed = 1;
nodes = (
"45 655 LINE",
"299 655 LINE",
"299 633 LINE",
"179 633 LINE",
"157 633 LINE",
"45 633 LINE"
);
}
);
width = 334;
},
{
associatedMasterId = "7F20675F-B4B1-45FA-B0F6-A97D5A641B97";
layerId = "92BC0EB0-E316-4037-A322-7907C0C14275";
name = "Feb 15 18, 19:23";
paths = (
{
closed = 1;
nodes = (
"109 351 LINE",
"35 655 LINE",
"217 655 LINE",
"134 351 LINE",
"217 0 LINE",
"35 0 LINE"
);
}
);
width = 252;
},
{
associatedMasterId = "7F20675F-B4B1-45FA-B0F6-A97D5A641B97";
layerId = "48CA6505-D6D5-44A6-A95C-F3F20C6CE84F";
name = "Feb 25 18, 16:27";
paths = (
{
closed = 1;
nodes = (
"109 228 LINE",
"109 441 LINE",
"35 655 LINE",
"217 655 LINE",
"134 441 LINE",
"134 228 LINE"
);
},
{
closed = 1;
nodes = (
"134 228 LINE",
"223 0 LINE",
"29 0 LINE",
"109 228 LINE"
);
}
);
width = 252;
},
{
associatedMasterId = "7F20675F-B4B1-45FA-B0F6-A97D5A641B97";
layerId = "6839867C-3DE3-4F5E-8BB8-B673390DC81F";
name = "Feb 25 18, 16:30";
paths = (
{
closed = 1;
nodes = (
"179 300 LINE",
"179 431 LINE",
"105 655 LINE",
"287 655 LINE",
"204 431 LINE",
"204 300 LINE"
);
},
{
closed = 1;
nodes = (
"204 147 OFFCURVE",
"259 73 OFFCURVE",
"357 0 CURVE",
"35 0 LINE",
"120 73 OFFCURVE",
"179 147 OFFCURVE",
"179 300 CURVE",
"204 300 LINE"
);
}
);
width = 392;
},
{
associatedMasterId = "7F20675F-B4B1-45FA-B0F6-A97D5A641B97";
layerId = "4ED3576C-601E-4556-8175-EF33D933A9F1";
paths = (
{
closed = 1;
nodes = (
"107 374 LINE",
"79 468 OFFCURVE",
"94 561 OFFCURVE",
"46 655 CURVE",
"196 655 LINE",
"146 561 OFFCURVE",
"159 468 OFFCURVE",
"129 374 CURVE"
);
},
{
closed = 1;
nodes = (
"76 92 LINE",
"76 561 LINE",
"165 561 LINE",
"165 92 LINE"
);
},
{
closed = 1;
nodes = (
"131 277 LINE",
"161 185 OFFCURVE",
"148 92 OFFCURVE",
"198 0 CURVE",
"45 0 LINE",
"96 92 OFFCURVE",
"78 185 OFFCURVE",
"109 277 CURVE"
);
}
);
width = 240;
},
{
associatedMasterId = "1195BCD1-8D25-4D5E-8C85-FC733C7A5356";
layerId = "66E7FCD6-1EF2-46B1-AAD7-CA3F757D9A5E";
name = "Mar 19 18, 13:42";
paths = (
{
closed = 1;
nodes = (
"81 374 LINE",
"53 468 OFFCURVE",
"65 561 OFFCURVE",
"17 655 CURVE",
"173 655 LINE",
"123 561 OFFCURVE",
"133 468 OFFCURVE",
"103 374 CURVE"
);
},
{
closed = 1;
nodes = (
"35 0 LINE",
"35 655 LINE",
"157 655 LINE",
"157 0 LINE"
);
},
{
closed = 1;
nodes = (
"106 277 LINE",
"136 185 OFFCURVE",
"126 92 OFFCURVE",
"176 0 CURVE",
"20 0 LINE",
"71 92 OFFCURVE",
"53 185 OFFCURVE",
"84 277 CURVE"
);
}
);
width = 192;
},
{
associatedMasterId = "7F20675F-B4B1-45FA-B0F6-A97D5A641B97";
layerId = "A521EEDC-8E54-4A39-941A-06C44C1BD48F";
paths = (
{
closed = 1;
nodes = (
"218 0 LINE",
"125 0 LINE",
"125 655 LINE",
"218 655 LINE"
);
},
{
closed = 1;
nodes = (
"297 -2 LINE",
"38 -2 LINE",
"38 15 LINE",
"158 103 LINE",
"179 103 LINE",
"297 15 LINE"
);
},
{
closed = 1;
nodes = (
"46 655 LINE",
"299 655 LINE",
"299 640 LINE",
"179 545 LINE",
"158 545 LINE",
"46 639 LINE"
);
}
);
width = 335;
}
);
unicode = 0049;
},
{
glyphname = J;
lastChange = "2018-04-11 20:05:19 +0000";
layers = (
{
hints = (
{
horizontal = 1;
origin = "{0, 3}";
type = Delta;
settings = {
deltaV = {
"{100, 200, 0, 0, 0}" = {
"0" = -8;
};
};
};
}
);
layerId = "7F20675F-B4B1-45FA-B0F6-A97D5A641B97";
paths = (
{
closed = 1;
nodes = (
"41 267 LINE",
"76 195 OFFCURVE",
"113 132 OFFCURVE",
"211 132 CURVE SMOOTH",
"289 132 OFFCURVE",
"358 170 OFFCURVE",
"358 297 CURVE SMOOTH",
"358 654 LINE",
"378 654 LINE",
"378 231 LINE SMOOTH",
"378 0 OFFCURVE",
"278 -19 OFFCURVE",
"201 -19 CURVE SMOOTH",
"73 -19 OFFCURVE",
"40 119 OFFCURVE",
"40 267 CURVE"
);
},
{
closed = 1;
nodes = (
"225 655 LINE",
"519 655 LINE",
"519 653 LINE",
"377 369 LINE",
"359 369 LINE",
"225 653 LINE"
);
}
);
width = 554;
},
{
layerId = "1195BCD1-8D25-4D5E-8C85-FC733C7A5356";
paths = (
{
closed = 1;
nodes = (
"55 227 LINE",
"55 93 OFFCURVE",
"88 5 OFFCURVE",
"186 5 CURVE SMOOTH",
"280 5 OFFCURVE",
"293 104 OFFCURVE",
"293 267 CURVE SMOOTH",
"293 654 LINE",
"440 654 LINE",
"440 231 LINE SMOOTH",
"440 0 OFFCURVE",
"273 -15 OFFCURVE",
"186 -15 CURVE SMOOTH",
"68 -15 OFFCURVE",
"35 79 OFFCURVE",
"35 227 CURVE"
);
},
{
closed = 1;
nodes = (
"217 655 LINE",
"511 655 LINE",
"511 633 LINE",
"371 633 LINE",
"349 633 LINE",
"217 633 LINE"
);
}
);
width = 546;
},
{
associatedMasterId = "1195BCD1-8D25-4D5E-8C85-FC733C7A5356";
layerId = "717DACCB-5FED-4C79-A8C0-167D771E150E";
name = "Feb 9 18, 21:16";
paths = (
{
closed = 1;
nodes = (
"55 215 LINE",
"196 35 OFFCURVE",
"292 81 OFFCURVE",
"380 187 CURVE",
"400 243 OFFCURVE",
"399 297 OFFCURVE",
"390 349 CURVE SMOOTH",
"335 655 LINE",
"487 655 LINE",
"440 354 LINE",
"448 250 OFFCURVE",
"483 170 OFFCURVE",
"401 66 CURVE SMOOTH",
"324 -31 OFFCURVE",
"185 -49 OFFCURVE",
"63 89 CURVE SMOOTH",
"55 98 LINE"
);
}
);
width = 522;
},
{
associatedMasterId = "7F20675F-B4B1-45FA-B0F6-A97D5A641B97";
layerId = "4ED3576C-601E-4556-8175-EF33D933A9F1";
width = 598;
},
{
associatedMasterId = "7F20675F-B4B1-45FA-B0F6-A97D5A641B97";
layerId = "FF649053-5AC0-47A0-8534-5B8E64F4A86D";
name = "Apr 2 18, 22:48";
paths = (
{
closed = 1;
nodes = (
"38 190 LINE",
"148 134 OFFCURVE",
"219 110 OFFCURVE",
"266 110 CURVE SMOOTH",
"347.629 110 OFFCURVE",
"353.576 161.826 OFFCURVE",
"352.484 261 CURVE SMOOTH",
"352 331 LINE",
"240 652 LINE",
"240 655 LINE",
"494 655 LINE",
"494 653 LINE",
"374 331 LINE",
"374 293 LINE SMOOTH",
"376 176 OFFCURVE",
"383 90 OFFCURVE",
"319 30 CURVE SMOOTH",
"236 -47 OFFCURVE",
"9 -48 OFFCURVE",
"38 181 CURVE"
);
}
);
width = 529;
},
{
associatedMasterId = "1195BCD1-8D25-4D5E-8C85-FC733C7A5356";
layerId = "CCB85E98-B278-475D-BE09-0A7E3E6DB720";
name = "Apr 5 18, 10:39";
paths = (
{
closed = 1;
nodes = (
"65 227 LINE",
"65 43 OFFCURVE",
"180 11 OFFCURVE",
"236 11 CURVE SMOOTH",
"340 11 OFFCURVE",
"408 74 OFFCURVE",
"408 267 CURVE SMOOTH",
"408 654 LINE",
"555 654 LINE",
"555 231 LINE SMOOTH",
"555 50 OFFCURVE",
"438 -17 OFFCURVE",
"251 -17 CURVE SMOOTH",
"93 -17 OFFCURVE",
"35 91 OFFCURVE",
"35 227 CURVE"
);
},
{
closed = 1;
nodes = (
"332 655 LINE",
"626 655 LINE",
"626 633 LINE",
"486 633 LINE",
"464 633 LINE",
"332 633 LINE"
);
}
);
width = 661;
},
{
associatedMasterId = "7F20675F-B4B1-45FA-B0F6-A97D5A641B97";
hints = (
{
horizontal = 1;
origin = "{0, 3}";
type = Delta;
settings = {
deltaV = {
"{100, 200, 0, 0, 0}" = {
"0" = -8;
};
};
};
}
);
layerId = "A521EEDC-8E54-4A39-941A-06C44C1BD48F";
paths = (
{
closed = 1;
nodes = (
"50 240 LINE",
"62 127 OFFCURVE",
"96 47 OFFCURVE",
"194 47 CURVE SMOOTH",
"283 47 OFFCURVE",
"315 126 OFFCURVE",
"315 277 CURVE SMOOTH",
"315 654 LINE",
"419 654 LINE",
"419 231 LINE SMOOTH",
"419 0 OFFCURVE",
"275 -16 OFFCURVE",
"191 -16 CURVE SMOOTH",
"70 -16 OFFCURVE",
"37 92 OFFCURVE",
"37 240 CURVE"
);
},
{
closed = 1;
nodes = (
"220 655 LINE",
"514 655 LINE",
"514 640 LINE",
"373 545 LINE",
"352 545 LINE",
"220 640 LINE"
);
}
);
width = 549;
}
);
unicode = 004A;
},
{
glyphname = K;
lastChange = "2018-04-11 20:05:19 +0000";
layers = (
{
layerId = "7F20675F-B4B1-45FA-B0F6-A97D5A641B97";
paths = (
{
closed = 1;
nodes = (
"180 0 LINE",
"160 0 LINE",
"160 655 LINE",
"180 655 LINE"
);
},
{
closed = 1;
nodes = (
"300 -2 LINE",
"36 -2 LINE",
"36 3 LINE",
"160 261 LINE",
"180 261 LINE",
"300 3 LINE"
);
},
{
closed = 1;
nodes = (
"46 655 LINE",
"300 655 LINE",
"300 651 LINE",
"180 369 LINE",
"160 369 LINE",
"46 651 LINE"
);
},
{
closed = 1;
nodes = (
"476 328 LINE SMOOTH",
"611 328 OFFCURVE",
"662 286 OFFCURVE",
"662 186 CURVE SMOOTH",
"662 36 OFFCURVE",
"594 11 OFFCURVE",
"713 11 CURVE",
"713 0 LINE",
"547 0 OFFCURVE",
"347 74 OFFCURVE",
"541 183 CURVE SMOOTH",
"682 262 OFFCURVE",
"606 308 OFFCURVE",
"476 307 CURVE SMOOTH",
"358 306 LINE",
"358 328 LINE"
);
},
{
closed = 1;
nodes = (
"338 402 OFFCURVE",
"596 542 OFFCURVE",
"611 654 CURVE",
"619 654 LINE",
"675 548 OFFCURVE",
"710 350 OFFCURVE",
"204 206 CURVE",
"193 222 LINE"
);
}
);
width = 748;
},
{
layerId = "1195BCD1-8D25-4D5E-8C85-FC733C7A5356";
paths = (
{
closed = 1;
nodes = (
"235 307 LINE",
"235 339 LINE",
"563 655 LINE",
"593 655 LINE"
);
},
{
closed = 1;
nodes = (
"573 632 LINE",
"547 632 LINE",
"419 632 LINE",
"419 655 LINE",
"669 655 LINE",
"669 632 LINE"
);
},
{
closed = 1;
nodes = (
"235 0 LINE",
"105 0 LINE",
"105 655 LINE",
"235 655 LINE"
);
},
{
closed = 1;
nodes = (
"300 -2 LINE",
"36 -2 LINE",
"36 23 LINE",
"158 23 LINE",
"180 23 LINE",
"300 23 LINE"
);
},
{
closed = 1;
nodes = (
"46 655 LINE",
"300 655 LINE",
"300 633 LINE",
"180 633 LINE",
"158 633 LINE",
"46 633 LINE"
);
},
{
closed = 1;
nodes = (
"426 328 LINE SMOOTH",
"561 328 OFFCURVE",
"612 286 OFFCURVE",
"612 186 CURVE SMOOTH",
"612 36 OFFCURVE",
"564 21 OFFCURVE",
"683 21 CURVE",
"683 -2 LINE",
"547 -2 OFFCURVE",
"441 49 OFFCURVE",
"441 153 CURVE SMOOTH",
"441 240 OFFCURVE",
"556 308 OFFCURVE",
"426 307 CURVE SMOOTH",
"178 306 LINE",
"178 328 LINE"
);
}
);
width = 734;
},
{
associatedMasterId = "7F20675F-B4B1-45FA-B0F6-A97D5A641B97";
layerId = "4ED3576C-601E-4556-8175-EF33D933A9F1";
width = 783;
},
{
associatedMasterId = "1195BCD1-8D25-4D5E-8C85-FC733C7A5356";
layerId = "AB3E6D9C-0440-4DE0-9410-368BB6F2BF59";
name = "Apr 4 18, 19:44";
paths = (
{
closed = 1;
nodes = (
"235 297 LINE",
"235 329 LINE",
"563 655 LINE",
"593 655 LINE"
);
},
{
closed = 1;
nodes = (
"573 632 LINE",
"547 632 LINE",
"419 632 LINE",
"419 655 LINE",
"679 655 LINE",
"679 632 LINE"
);
},
{
closed = 1;
nodes = (
"517 0 LINE",
"235 303 LINE",
"303 384 LINE",
"656 0 LINE"
);
},
{
closed = 1;
nodes = (
"699 0 LINE",
"409 0 LINE",
"409 23 LINE",
"567 23 LINE",
"593 23 LINE",
"699 23 LINE"
);
},
{
closed = 1;
nodes = (
"235 0 LINE",
"105 0 LINE",
"105 655 LINE",
"235 655 LINE"
);
},
{
closed = 1;
nodes = (
"300 -2 LINE",
"36 -2 LINE",
"36 23 LINE",
"158 23 LINE",
"180 23 LINE",
"300 23 LINE"
);
},
{
closed = 1;
nodes = (
"46 655 LINE",
"300 655 LINE",
"300 633 LINE",
"180 633 LINE",
"158 633 LINE",
"46 633 LINE"
);
}
);
width = 734;
},
{
associatedMasterId = "7F20675F-B4B1-45FA-B0F6-A97D5A641B97";
layerId = "18552AA0-93D7-447A-9503-A2A8269215AD";
name = "Apr 9 18, 17:59";
paths = (
{
closed = 1;
nodes = (
"180 0 LINE",
"160 0 LINE",
"160 655 LINE",
"180 655 LINE"
);
},
{
closed = 1;
nodes = (
"300 -2 LINE",
"36 -2 LINE",
"36 3 LINE",
"160 263 LINE",
"180 263 LINE",
"300 3 LINE"
);
},
{
closed = 1;
nodes = (
"46 655 LINE",
"300 655 LINE",
"300 651 LINE",
"180 369 LINE",
"160 369 LINE",
"46 651 LINE"
);
},
{
closed = 1;
nodes = (
"426 328 LINE SMOOTH",
"561 328 OFFCURVE",
"612 286 OFFCURVE",
"612 186 CURVE SMOOTH",
"612 36 OFFCURVE",
"544 11 OFFCURVE",
"663 11 CURVE",
"663 0 LINE",
"497 0 OFFCURVE",
"297 74 OFFCURVE",
"491 183 CURVE SMOOTH",
"632 262 OFFCURVE",
"556 308 OFFCURVE",
"426 307 CURVE SMOOTH",
"178 306 LINE",
"178 328 LINE"
);
},
{
closed = 1;
nodes = (
"446 655 LINE",
"660 655 LINE",
"660 651 LINE",
"301 327 LINE",
"281 327 LINE",
"446 651 LINE"
);
}
);
width = 750;
},
{
associatedMasterId = "7F20675F-B4B1-45FA-B0F6-A97D5A641B97";
layerId = "A521EEDC-8E54-4A39-941A-06C44C1BD48F";
width = 739;
}
);
unicode = 004B;
},
{
glyphname = L;
lastChange = "2018-04-11 20:05:19 +0000";
layers = (
{
layerId = "7F20675F-B4B1-45FA-B0F6-A97D5A641B97";
paths = (
{
closed = 1;
nodes = (
"170 7 LINE",
"170 652 LINE",
"150 652 LINE",
"150 7 LINE"
);
},
{
closed = 1;
nodes = (
"595 0 LINE",
"595 257 LINE",
"359 20 LINE",
"359 0 LINE"
);
},
{
closed = 1;
nodes = (
"271 2 LINE",
"170 263 LINE",
"150 263 LINE",
"35 1 LINE",
"35 0 LINE",
"271 0 LINE"
);
},
{
closed = 1;
nodes = (
"279 655 LINE",
"35 655 LINE",
"35 653 LINE",
"150 369 LINE",
"170 369 LINE",
"279 652 LINE"
);
},
{
closed = 1;
nodes = (
"496 22 LINE",
"240 22 LINE",
"219 22 LINE",
"105 22 LINE",
"105 0 LINE",
"496 0 LINE"
);
},
{
closed = 1;
nodes = (
"595 0 LINE",
"595 237 LINE",
"359 20 LINE",
"359 0 LINE"
);
}
);
width = 630;
},
{
layerId = "1195BCD1-8D25-4D5E-8C85-FC733C7A5356";
paths = (
{
closed = 1;
nodes = (
"225 7 LINE",
"225 652 LINE",
"95 652 LINE",
"95 7 LINE"
);
},
{
closed = 1;
nodes = (
"585 0 LINE",
"585 23 LINE",
"159 20 LINE",
"159 0 LINE"
);
},
{
closed = 1;
nodes = (
"183 23 LINE",
"170 23 LINE",
"150 23 LINE",
"35 23 LINE",
"35 0 LINE",
"183 0 LINE"
);
},
{
closed = 1;
nodes = (
"279 655 LINE",
"35 655 LINE",
"35 633 LINE",
"150 633 LINE",
"170 633 LINE",
"279 633 LINE"
);
},
{
closed = 1;
nodes = (
"496 23 LINE",
"230 23 LINE",
"209 23 LINE",
"105 23 LINE",
"105 0 LINE",
"496 0 LINE"
);
},
{
closed = 1;
nodes = (
"595 0 LINE",
"595 237 LINE",
"369 20 LINE",
"369 0 LINE"
);
}
);
width = 630;
},
{
associatedMasterId = "7F20675F-B4B1-45FA-B0F6-A97D5A641B97";
layerId = "4ED3576C-601E-4556-8175-EF33D933A9F1";
width = 757;
},
{
associatedMasterId = "7F20675F-B4B1-45FA-B0F6-A97D5A641B97";
layerId = "1E8924AA-B59D-4B9C-AC44-A3D09AA5A208";
name = "Apr 1 18, 15:32";
paths = (
{
closed = 1;
nodes = (
"547 278 LINE",
"714 103 OFFCURVE",
"627 0 OFFCURVE",
"434 1 CURVE SMOOTH",
"34 3 LINE",
"104 160 OFFCURVE",
"130 232 OFFCURVE",
"157 337 CURVE",
"129 431 OFFCURVE",
"88 541 OFFCURVE",
"40 655 CURVE",
"296 655 LINE",
"251 551 OFFCURVE",
"210 431 OFFCURVE",
"176 334 CURVE",
"176 228 OFFCURVE",
"183 24 OFFCURVE",
"326 24 CURVE SMOOTH",
"464 24 OFFCURVE",
"509 167 OFFCURVE",
"541 278 CURVE"
);
}
);
width = 670;
},
{
associatedMasterId = "7F20675F-B4B1-45FA-B0F6-A97D5A641B97";
layerId = "A521EEDC-8E54-4A39-941A-06C44C1BD48F";
paths = (
{
closed = 1;
nodes = (
"207 7 LINE",
"207 652 LINE",
"113 652 LINE",
"113 7 LINE"
);
},
{
closed = 1;
nodes = (
"588 0 LINE",
"588 101 LINE",
"226 20 LINE",
"226 0 LINE"
);
},
{
closed = 1;
nodes = (
"212 16 LINE",
"170 103 LINE",
"150 103 LINE",
"35 16 LINE",
"35 0 LINE",
"212 0 LINE"
);
},
{
closed = 1;
nodes = (
"279 655 LINE",
"35 655 LINE",
"35 640 LINE",
"150 545 LINE",
"170 545 LINE",
"279 639 LINE"
);
},
{
closed = 1;
nodes = (
"496 23 LINE",
"233 23 LINE",
"212 23 LINE",
"105 23 LINE",
"105 0 LINE",
"496 0 LINE"
);
},
{
closed = 1;
nodes = (
"595 0 LINE",
"595 237 LINE",
"366 20 LINE",
"366 0 LINE"
);
}
);
width = 630;
}
);
unicode = 004C;
},
{
glyphname = M;
lastChange = "2018-04-11 20:05:19 +0000";
layers = (
{
layerId = "7F20675F-B4B1-45FA-B0F6-A97D5A641B97";
paths = (
{
closed = 1;
nodes = (
"317 0 LINE",
"317 3 LINE",
"198 263 LINE",
"177 263 LINE",
"63 2 LINE",
"63 0 LINE"
);
},
{
closed = 1;
nodes = (
"198 0 LINE",
"198 655 LINE",
"178 655 LINE",
"178 0 LINE"
);
},
{
closed = 1;
nodes = (
"697 0 LINE",
"697 655 LINE",
"677 655 LINE",
"677 0 LINE"
);
},
{
closed = 1;
nodes = (
"817 0 LINE",
"817 3 LINE",
"698 263 LINE",
"677 263 LINE",
"563 2 LINE",
"563 0 LINE"
);
},
{
closed = 1;
nodes = (
"436 245 LINE",
"438 245 LINE",
"850 655 LINE",
"583 655 LINE",
"437 248 LINE",
"312 655 LINE",
"35 655 LINE"
);
}
);
width = 885;
},
{
layerId = "1195BCD1-8D25-4D5E-8C85-FC733C7A5356";
paths = (
{
closed = 1;
nodes = (
"289 0 LINE",
"289 23 LINE",
"170 23 LINE",
"149 23 LINE",
"35 23 LINE",
"35 0 LINE"
);
},
{
closed = 1;
nodes = (
"170 0 LINE",
"170 615 LINE",
"150 615 LINE",
"150 0 LINE"
);
},
{
closed = 1;
nodes = (
"765 0 LINE",
"765 655 LINE",
"635 475 LINE",
"635 0 LINE"
);
},
{
closed = 1;
nodes = (
"845 0 LINE",
"845 23 LINE",
"716 23 LINE",
"695 23 LINE",
"561 23 LINE",
"561 0 LINE"
);
},
{
closed = 1;
nodes = (
"401 132 LINE",
"403 132 LINE",
"765 655 LINE",
"741 655 LINE",
"468 261 LINE",
"181 655 LINE",
"24 655 LINE"
);
}
);
width = 880;
},
{
associatedMasterId = "7F20675F-B4B1-45FA-B0F6-A97D5A641B97";
layerId = "909DB28F-3D0C-4E38-85AD-7B1187B1C06C";
name = "Feb 15 18, 16:35";
paths = (
{
closed = 1;
nodes = (
"628 655 LINE",
"677 655 LINE",
"424 0 LINE",
"374 0 LINE"
);
},
{
closed = 1;
nodes = (
"242 655 LINE",
"441 160 LINE",
"375 0 LINE",
"126 655 LINE"
);
},
{
closed = 1;
nodes = (
"117 351 LINE",
"35 655 LINE",
"167 655 LINE",
"166 351 LINE",
"237 0 LINE",
"55 0 LINE"
);
},
{
closed = 1;
nodes = (
"629 351 LINE",
"629 655 LINE",
"779 655 LINE",
"678 351 LINE",
"749 0 LINE",
"567 0 LINE"
);
}
);
width = 814;
},
{
associatedMasterId = "7F20675F-B4B1-45FA-B0F6-A97D5A641B97";
layerId = "2B469595-4CC3-4CDB-A51B-37436A84E3A3";
name = "Feb 15 18, 16:36";
paths = (
{
closed = 1;
nodes = (
"242 655 LINE",
"438.478 166.273 LINE",
"628 655 LINE",
"779 655 LINE",
"678 351 LINE",
"749 0 LINE",
"567 0 LINE",
"629 351 LINE",
"658 606 LINE",
"424 0 LINE",
"374 0 LINE",
"374.505 1.302 LINE",
"145 606 LINE",
"166 351 LINE",
"237 0 LINE",
"55 0 LINE",
"117 351 LINE",
"35 655 LINE"
);
}
);
width = 814;
},
{
associatedMasterId = "7F20675F-B4B1-45FA-B0F6-A97D5A641B97";
layerId = "6D194AFE-F9A6-4DE3-83CD-058CCFCED62C";
name = "Feb 15 18, 16:38";
paths = (
{
closed = 1;
nodes = (
"242 655 LINE",
"443 166 LINE",
"628 655 LINE",
"787 655 LINE",
"678 351 LINE",
"749 0 LINE",
"567 0 LINE",
"629 351 LINE",
"629 530.731 LINE",
"429 0 LINE",
"379 0 LINE",
"380 1 LINE",
"167 548 LINE",
"166 351 LINE",
"237 0 LINE",
"55 0 LINE",
"117 351 LINE",
"27 655 LINE"
);
}
);
width = 814;
},
{
associatedMasterId = "7F20675F-B4B1-45FA-B0F6-A97D5A641B97";
layerId = "928AC778-070C-4FBD-B8FA-58C7F35682B3";
name = "Feb 15 18, 16:39";
paths = (
{
closed = 1;
nodes = (
"242 655 LINE",
"443 166 LINE",
"628 655 LINE",
"787 655 LINE",
"678 351 LINE",
"749 0 LINE",
"517 0 LINE",
"671 469 LINE",
"645 581 LINE",
"429 0 LINE",
"379 0 LINE",
"380 1 LINE",
"153 583 LINE",
"119 471 LINE",
"267 0 LINE",
"55 0 LINE",
"117 351 LINE",
"27 655 LINE"
);
}
);
width = 814;
},
{
associatedMasterId = "7F20675F-B4B1-45FA-B0F6-A97D5A641B97";
layerId = "8E994421-C5B7-4386-BD5A-05659B3EF597";
name = "Feb 15 18, 16:40";
paths = (
{
closed = 1;
nodes = (
"242 655 LINE",
"433 166 LINE",
"628 655 LINE",
"787 655 LINE",
"678 351 LINE",
"749 0 LINE",
"517 0 LINE",
"671 469 LINE",
"717 614 LINE",
"666 614 LINE",
"419 0 LINE",
"369 0 LINE",
"370 1 LINE",
"127 614 LINE",
"74 614 LINE",
"153 351 LINE",
"267 0 LINE",
"55 0 LINE",
"117 351 LINE",
"27 655 LINE"
);
}
);
width = 814;
},
{
associatedMasterId = "7F20675F-B4B1-45FA-B0F6-A97D5A641B97";
layerId = "71F7B2F2-F4C5-4904-906B-F847B2995B9E";
name = "Feb 15 18, 19:04";
paths = (
{
closed = 1;
nodes = (
"252 655 LINE",
"466 187 LINE",
"668 655 LINE",
"807 655 LINE",
"668 351 LINE",
"789 0 LINE",
"557 0 LINE",
"644 351 LINE",
"644 534 LINE",
"413 0 LINE",
"404 0 LINE",
"405 1 LINE",
"163 548 LINE",
"163 351 LINE",
"247 0 LINE",
"35 0 LINE",
"143 351 LINE",
"27 655 LINE"
);
}
);
width = 832;
},
{
associatedMasterId = "7F20675F-B4B1-45FA-B0F6-A97D5A641B97";
layerId = "3B71585D-9719-44F3-8DF8-9B1DE7DF5201";
name = "Feb 16 18, 12:03";
paths = (
{
closed = 1;
nodes = (
"252 655 LINE",
"462 187 LINE",
"668 655 LINE",
"670 655 LINE",
"668 351 LINE",
"749 0 LINE",
"587 0 LINE",
"644 351 LINE",
"644 554 LINE",
"402 0 LINE",
"393 0 LINE",
"394 1 LINE",
"163 548 LINE",
"163 351 LINE",
"247 0 LINE",
"65 0 LINE",
"143 351 LINE",
"143 655 LINE"
);
},
{
closed = 1;
nodes = (
"63 655 LINE",
"193 655 LINE",
"149 520 LINE"
);
},
{
closed = 1;
nodes = (
"668 655 LINE",
"753 655 LINE",
"667 520 LINE"
);
}
);
width = 832;
},
{
associatedMasterId = "7F20675F-B4B1-45FA-B0F6-A97D5A641B97";
layerId = "71274EA6-6DD4-49BB-8A3F-4ED15E916DB3";
name = "Feb 16 18, 12:24";
paths = (
{
closed = 1;
nodes = (
"250 655 LINE",
"463 137 LINE",
"657 655 LINE",
"795 655 LINE",
"716 351 LINE",
"798 0 LINE",
"616 0 LINE",
"697 351 LINE",
"637 531 LINE",
"437 0 LINE",
"387 0 LINE",
"388 1 LINE",
"175 548 LINE",
"124 351 LINE",
"225 0 LINE",
"43 0 LINE",
"105 351 LINE",
"35 655 LINE"
);
}
);
width = 833;
},
{
associatedMasterId = "7F20675F-B4B1-45FA-B0F6-A97D5A641B97";
layerId = "1BFD9F4A-2D65-4259-AC02-52A26C22918F";
name = "Feb 16 18, 12:26";
paths = (
{
closed = 1;
nodes = (
"697 454 LINE",
"637 531 LINE",
"447 0 LINE",
"397 0 LINE",
"398 1 LINE",
"175 548 LINE",
"124 448 LINE",
"105 448 LINE",
"35 655 LINE",
"250 655 LINE",
"473 137 LINE",
"657 655 LINE",
"795 655 LINE",
"716 454 LINE"
);
},
{
closed = 1;
nodes = (
"124 448 LINE",
"124 335 LINE",
"225 0 LINE",
"43 0 LINE",
"105 335 LINE",
"105 448 LINE"
);
},
{
closed = 1;
nodes = (
"716 454 LINE",
"716 327 LINE",
"798 0 LINE",
"616 0 LINE",
"697 327 LINE",
"697 454 LINE"
);
}
);
width = 833;
},
{
associatedMasterId = "7F20675F-B4B1-45FA-B0F6-A97D5A641B97";
layerId = "A41C2DAB-36CE-4672-9766-EF2C1F4634B7";
name = "Feb 16 18, 15:29";
paths = (
{
closed = 1;
nodes = (
"250 655 LINE",
"463 137 LINE",
"657 655 LINE",
"795 655 LINE",
"716 351 LINE",
"798 0 LINE",
"616 0 LINE",
"697 351 LINE",
"637 531 LINE",
"437 0 LINE",
"387 0 LINE",
"388 1 LINE",
"175 548 LINE",
"124 351 LINE",
"225 0 LINE",
"43 0 LINE",
"105 351 LINE",
"35 655 LINE"
);
}
);
width = 833;
},
{
associatedMasterId = "7F20675F-B4B1-45FA-B0F6-A97D5A641B97";
layerId = "9B857EB0-BFF5-49D3-9057-9245AEF6FFDF";
name = "Feb 19 18, 10:36";
paths = (
{
closed = 1;
nodes = (
"302 351 LINE",
"175 548 LINE",
"124 351 LINE",
"225 0 LINE",
"43 0 LINE",
"105 351 LINE",
"35 655 LINE",
"250 655 LINE",
"325 351 LINE"
);
},
{
closed = 1;
nodes = (
"325 351 LINE",
"473 163 LINE",
"657 655 LINE",
"795 655 LINE",
"716 351 LINE",
"798 0 LINE",
"616 0 LINE",
"697 351 LINE",
"637 531 LINE",
"437 0 LINE",
"387 0 LINE",
"388 1 LINE",
"302 351 LINE"
);
}
);
width = 833;
},
{
associatedMasterId = "7F20675F-B4B1-45FA-B0F6-A97D5A641B97";
layerId = "97A56155-DC58-4316-9F0D-AEF3CBAB0F0D";
name = "Feb 19 18, 12:55";
paths = (
{
closed = 1;
nodes = (
"697 445 LINE",
"637 531 LINE",
"492 380 LINE",
"420 120 LINE",
"404 120 LINE",
"329 381 LINE",
"175 548 LINE",
"127 444 LINE",
"105 444 LINE",
"35 655 LINE",
"269 655 LINE",
"412 134 LINE",
"547 655 LINE",
"795 655 LINE",
"716 445 LINE"
);
},
{
closed = 1;
nodes = (
"127 444 LINE",
"127 339 LINE",
"225 0 LINE",
"43 0 LINE",
"105 339 LINE",
"105 444 LINE"
);
},
{
closed = 1;
nodes = (
"716 445 LINE",
"716 340 LINE",
"798 0 LINE",
"616 0 LINE",
"697 340 LINE",
"697 445 LINE"
);
}
);
width = 833;
},
{
associatedMasterId = "7F20675F-B4B1-45FA-B0F6-A97D5A641B97";
layerId = "16D3E8E7-F80E-4676-8C15-7372B5FC880D";
name = "Feb 25 18, 23:18";
paths = (
{
closed = 1;
nodes = (
"427 294 LINE",
"188 682 LINE",
"35 485 LINE",
"419 294 LINE"
);
},
{
closed = 1;
nodes = (
"317 0 LINE",
"317 3 LINE",
"198 325 LINE",
"177 325 LINE",
"63 2 LINE",
"63 0 LINE"
);
},
{
closed = 1;
nodes = (
"198 0 LINE",
"198 655 LINE",
"177 655 LINE",
"177 0 LINE"
);
},
{
closed = 1;
nodes = (
"658 0 LINE",
"658 655 LINE",
"636 655 LINE",
"636 0 LINE"
);
},
{
closed = 1;
nodes = (
"777 0 LINE",
"777 3 LINE",
"658 325 LINE",
"637 325 LINE",
"523 2 LINE",
"523 0 LINE"
);
},
{
closed = 1;
nodes = (
"810 485 LINE",
"657 682 LINE",
"419 294 LINE",
"427 294 LINE"
);
}
);
width = 845;
},
{
associatedMasterId = "7F20675F-B4B1-45FA-B0F6-A97D5A641B97";
layerId = "4ED3576C-601E-4556-8175-EF33D933A9F1";
width = 822;
},
{
associatedMasterId = "1195BCD1-8D25-4D5E-8C85-FC733C7A5356";
layerId = "1085BE98-7931-41B5-A0BE-F7104B799DFF";
name = "Mar 6 18, 21:45";
paths = (
{
closed = 1;
nodes = (
"177 277 LINE",
"207 185 OFFCURVE",
"204 92 OFFCURVE",
"254 0 CURVE",
"81 0 LINE",
"129 92 OFFCURVE",
"128 185 OFFCURVE",
"156 277 CURVE"
);
},
{
closed = 1;
nodes = (
"725 277 LINE",
"755 185 OFFCURVE",
"754 92 OFFCURVE",
"804 0 CURVE",
"627 0 LINE",
"675 92 OFFCURVE",
"676 185 OFFCURVE",
"704 277 CURVE"
);
},
{
closed = 1;
nodes = (
"228 590 LINE",
"228 0 LINE",
"107 0 LINE",
"107 635 LINE"
);
},
{
closed = 1;
nodes = (
"776 635 LINE",
"776 0 LINE",
"654 0 LINE",
"654 590 LINE"
);
},
{
closed = 1;
nodes = (
"854 653 CURVE",
"854 637 OFFCURVE",
"854 633 OFFCURVE",
"854 618 CURVE",
"654 610 OFFCURVE",
"625 594 OFFCURVE",
"444 381 CURVE",
"258 594 OFFCURVE",
"229 613 OFFCURVE",
"35 619 CURVE",
"35 630 OFFCURVE",
"35 640 OFFCURVE",
"35 653 CURVE",
"240 663 OFFCURVE",
"348 529 OFFCURVE",
"443 407 CURVE",
"538 529 OFFCURVE",
"625 663 OFFCURVE"
);
}
);
width = 819;
},
{
associatedMasterId = "1195BCD1-8D25-4D5E-8C85-FC733C7A5356";
layerId = "5A448498-8A8F-45B1-BD28-16241785323D";
name = "Mar 6 18, 22:01";
paths = (
{
closed = 1;
nodes = (
"137 277 LINE",
"167 185 OFFCURVE",
"164 92 OFFCURVE",
"214 0 CURVE",
"41 0 LINE",
"89 92 OFFCURVE",
"88 185 OFFCURVE",
"116 277 CURVE"
);
},
{
closed = 1;
nodes = (
"736 168 LINE",
"733 76 OFFCURVE",
"766 72 OFFCURVE",
"816 0 CURVE",
"639 0 LINE",
"687 72 OFFCURVE",
"719 76 OFFCURVE",
"717 168 CURVE"
);
},
{
closed = 1;
nodes = (
"188 454 LINE",
"188 0 LINE",
"67 0 LINE",
"67 674 LINE"
);
},
{
closed = 1;
nodes = (
"736 605 LINE",
"736 0 LINE",
"716 0 LINE",
"716 564 LINE"
);
},
{
closed = 1;
nodes = (
"736 683 CURVE",
"736 667 OFFCURVE",
"736 493 OFFCURVE",
"736 478 CURVE",
"603 244 OFFCURVE",
"561 177 OFFCURVE",
"445 -16 CURVE",
"348 162 OFFCURVE",
"168 457 OFFCURVE",
"68 643 CURVE",
"68 654 OFFCURVE",
"68 661 OFFCURVE",
"68 674 CURVE",
"214 405 OFFCURVE",
"326 250 OFFCURVE",
"402 102 CURVE",
"487 250 OFFCURVE",
"582 410 OFFCURVE"
);
}
);
width = 819;
},
{
associatedMasterId = "7F20675F-B4B1-45FA-B0F6-A97D5A641B97";
layerId = "AAF98333-9481-440B-9E69-ECC0AA6BA118";
name = "Mar 7 18, 11:32";
paths = (
{
closed = 1;
nodes = (
"178 277 LINE",
"208 185 OFFCURVE",
"248 92 OFFCURVE",
"298 0 CURVE",
"42 0 LINE",
"90 92 OFFCURVE",
"129 185 OFFCURVE",
"157 277 CURVE"
);
},
{
closed = 1;
nodes = (
"725 277 LINE",
"755 185 OFFCURVE",
"795 92 OFFCURVE",
"845 0 CURVE",
"589 0 LINE",
"637 92 OFFCURVE",
"676 185 OFFCURVE",
"704 277 CURVE"
);
},
{
closed = 1;
nodes = (
"178 465 LINE",
"178 277 LINE",
"157 277 LINE",
"157 465 LINE"
);
},
{
closed = 1;
nodes = (
"725 465 LINE",
"725 261 LINE",
"704 261 LINE",
"704 465 LINE"
);
},
{
closed = 1;
nodes = (
"721 681 CURVE",
"803 615 OFFCURVE",
"854 567 OFFCURVE",
"854 522 CURVE SMOOTH",
"854 455 OFFCURVE",
"739 395 OFFCURVE",
"444 291 CURVE",
"151 402 OFFCURVE",
"35 460 OFFCURVE",
"35 523 CURVE SMOOTH",
"35 567 OFFCURVE",
"91 613 OFFCURVE",
"184 681 CURVE",
"256 556 OFFCURVE",
"349 433 OFFCURVE",
"444 311 CURVE",
"539 433 OFFCURVE",
"645 556 OFFCURVE"
);
}
);
width = 889;
},
{
associatedMasterId = "1195BCD1-8D25-4D5E-8C85-FC733C7A5356";
layerId = "2386562D-212B-46C3-902A-8EFF3BF99CC2";
name = "Apr 5 18, 09:47";
paths = (
{
closed = 1;
nodes = (
"314 0 LINE",
"314 23 LINE",
"195 23 LINE",
"174 23 LINE",
"60 23 LINE",
"60 0 LINE"
);
},
{
closed = 1;
nodes = (
"195 0 LINE",
"195 655 LINE",
"175 655 LINE",
"175 0 LINE"
);
},
{
closed = 1;
nodes = (
"694 0 LINE",
"694 655 LINE",
"674 655 LINE",
"674 0 LINE"
);
},
{
closed = 1;
nodes = (
"814 0 LINE",
"814 23 LINE",
"695 23 LINE",
"674 23 LINE",
"560 23 LINE",
"560 0 LINE"
);
},
{
closed = 1;
nodes = (
"437 152 LINE",
"439 152 LINE",
"797 555 LINE",
"685 682 LINE",
"437 375 LINE",
"185 682 LINE",
"62 555 LINE"
);
}
);
width = 877;
},
{
associatedMasterId = "7F20675F-B4B1-45FA-B0F6-A97D5A641B97";
layerId = "A521EEDC-8E54-4A39-941A-06C44C1BD48F";
paths = (
{
closed = 1;
nodes = (
"298 0 LINE",
"298 16 LINE",
"179 103 LINE",
"158 103 LINE",
"44 16 LINE",
"44 0 LINE"
);
},
{
closed = 1;
nodes = (
"179 0 LINE",
"179 628 LINE",
"159 628 LINE",
"159 0 LINE"
);
},
{
closed = 1;
nodes = (
"742 0 LINE",
"742 655 LINE",
"649 535 LINE",
"649 0 LINE"
);
},
{
closed = 1;
nodes = (
"836 0 LINE",
"836 16 LINE",
"710 103 LINE",
"689 103 LINE",
"562 16 LINE",
"562 0 LINE"
);
},
{
closed = 1;
nodes = (
"413 170 LINE",
"415 170 LINE",
"793 655 LINE",
"688 655 LINE",
"458 257 LINE",
"225 655 LINE",
"28 655 LINE"
);
}
);
width = 882;
}
);
unicode = 004D;
},
{
glyphname = N;
lastChange = "2018-04-11 20:05:19 +0000";
layers = (
{
layerId = "7F20675F-B4B1-45FA-B0F6-A97D5A641B97";
paths = (
{
closed = 1;
nodes = (
"329 0 LINE",
"329 3 LINE",
"212 263 LINE",
"192 263 LINE",
"79 2 LINE",
"79 0 LINE"
);
},
{
closed = 1;
nodes = (
"212 0 LINE",
"212 655 LINE",
"192 655 LINE",
"192 0 LINE"
);
},
{
closed = 1;
nodes = (
"681 0 LINE",
"681 655 LINE",
"661 655 LINE",
"661 0 LINE"
);
},
{
closed = 1;
nodes = (
"681 369 LINE",
"799 653 LINE",
"799 655 LINE",
"549 655 LINE",
"549 653 LINE",
"661 369 LINE"
);
},
{
closed = 1;
nodes = (
"689 0 LINE",
"189 655 LINE",
"170 655 LINE",
"667 0 LINE"
);
},
{
closed = 1;
nodes = (
"315 655 LINE",
"38 655 LINE",
"38 653 LINE",
"391 365 LINE",
"404 374 LINE",
"319 652 LINE"
);
},
{
closed = 1;
nodes = (
"830 3 LINE",
"485 267 LINE",
"472 257 LINE",
"556 1 LINE",
"558 0 LINE",
"829 0 LINE"
);
}
);
width = 861;
},
{
layerId = "1195BCD1-8D25-4D5E-8C85-FC733C7A5356";
paths = (
{
closed = 1;
nodes = (
"301 0 LINE",
"301 23 LINE",
"182 23 LINE",
"162 23 LINE",
"47 23 LINE",
"47 0 LINE"
);
},
{
closed = 1;
nodes = (
"182 0 LINE",
"182 655 LINE",
"162 655 LINE",
"162 0 LINE"
);
},
{
closed = 1;
nodes = (
"661 0 LINE",
"661 655 LINE",
"641 655 LINE",
"641 0 LINE"
);
},
{
closed = 1;
nodes = (
"661 633 LINE",
"781 633 LINE",
"781 655 LINE",
"527 655 LINE",
"527 633 LINE",
"641 633 LINE"
);
},
{
closed = 1;
nodes = (
"676 0 LINE",
"269 655 LINE",
"115 655 LINE",
"512 0 LINE"
);
},
{
closed = 1;
nodes = (
"268 655 LINE",
"35 655 LINE",
"35 633 LINE",
"163 633 LINE",
"182 633 LINE",
"268 633 LINE"
);
},
{
closed = 1;
nodes = (
"776 23 LINE",
"662 23 LINE",
"642 23 LINE",
"512 23 LINE",
"512 0 LINE",
"776 0 LINE"
);
}
);
width = 816;
},
{
associatedMasterId = "7F20675F-B4B1-45FA-B0F6-A97D5A641B97";
layerId = "7E0711C5-2542-42D8-B7BA-02F19A6DDB83";
name = "Feb 15 18, 17:09";
paths = (
{
closed = 1;
nodes = (
"254 655 LINE",
"496 171 LINE",
"535 356 LINE",
"460 655 LINE",
"642 655 LINE",
"558 355 LINE",
"642 0 LINE",
"451 0 LINE",
"177 534 LINE",
"131 351 LINE",
"255 0 LINE",
"43 0 LINE",
"115 351 LINE",
"35 655 LINE"
);
}
);
width = 677;
},
{
associatedMasterId = "7F20675F-B4B1-45FA-B0F6-A97D5A641B97";
layerId = "A1852DBF-6121-4E8E-9BAC-5817C3D251EC";
name = "Feb 15 18, 19:10";
paths = (
{
closed = 1;
nodes = (
"233 655 LINE",
"590 207 LINE",
"590 326 LINE",
"500 655 LINE",
"682 655 LINE",
"612 355 LINE",
"612 0 LINE",
"594 0 LINE",
"177 529 LINE",
"156 351 LINE",
"255 0 LINE",
"43 0 LINE",
"135 351 LINE",
"35 655 LINE"
);
}
);
width = 717;
},
{
associatedMasterId = "7F20675F-B4B1-45FA-B0F6-A97D5A641B97";
layerId = "BC21E7F4-8024-4163-A15B-6E8F16A6C27A";
name = "Feb 15 18, 19:11";
paths = (
{
closed = 1;
nodes = (
"233 655 LINE",
"590 207 LINE",
"590 355 LINE",
"500 655 LINE",
"682 655 LINE",
"612 355 LINE",
"612 0 LINE",
"594 0 LINE",
"156 556 LINE",
"156 351 LINE",
"255 0 LINE",
"43 0 LINE",
"135 351 LINE",
"135 655 LINE"
);
},
{
closed = 1;
nodes = (
"26 655 LINE",
"143 655 LINE",
"143 519 LINE"
);
}
);
width = 717;
},
{
associatedMasterId = "7F20675F-B4B1-45FA-B0F6-A97D5A641B97";
layerId = "7F2C852D-D0F1-4B21-B766-1262DCAED53C";
name = "Feb 16 18, 12:04";
paths = (
{
closed = 1;
nodes = (
"619 3 LINE",
"619 355 LINE",
"529 655 LINE",
"711 655 LINE",
"641 355 LINE",
"641 3 LINE"
);
},
{
closed = 1;
nodes = (
"35 655 LINE",
"152 655 LINE",
"152 519 LINE"
);
},
{
closed = 1;
nodes = (
"641 0 LINE",
"551 0 LINE",
"533 0 LINE",
"165 556 LINE",
"165 351 LINE",
"254 0 LINE",
"62 0 LINE",
"144 351 LINE",
"144 655 LINE",
"242 655 LINE",
"641 79 LINE"
);
}
);
width = 746;
},
{
associatedMasterId = "7F20675F-B4B1-45FA-B0F6-A97D5A641B97";
layerId = "78042F24-CD15-42E6-A49C-AD6C91DDD966";
name = "Feb 16 18, 12:09";
paths = (
{
closed = 1;
nodes = (
"260 655 LINE",
"549 245 LINE",
"549 356 LINE",
"460 655 LINE",
"642 655 LINE",
"572 355 LINE",
"572 0 LINE",
"554 0 LINE",
"177 534 LINE",
"131 351 LINE",
"255 0 LINE",
"43 0 LINE",
"115 351 LINE",
"35 655 LINE"
);
}
);
width = 677;
},
{
associatedMasterId = "7F20675F-B4B1-45FA-B0F6-A97D5A641B97";
layerId = "336B8088-E811-4FFC-B740-C55B7FAEC700";
name = "Feb 16 18, 12:27";
paths = (
{
closed = 1;
nodes = (
"619 3 LINE",
"619 355 LINE",
"529 655 LINE",
"711 655 LINE",
"641 355 LINE",
"641 3 LINE"
);
},
{
closed = 1;
nodes = (
"35 655 LINE",
"152 655 LINE",
"152 519 LINE"
);
},
{
closed = 1;
nodes = (
"641 0 LINE",
"551 0 LINE",
"533 0 LINE",
"165 556 LINE",
"165 351 LINE",
"254 0 LINE",
"62 0 LINE",
"144 351 LINE",
"144 655 LINE",
"242 655 LINE",
"641 79 LINE"
);
}
);
width = 746;
},
{
associatedMasterId = "7F20675F-B4B1-45FA-B0F6-A97D5A641B97";
layerId = "E6C447D6-9CDA-4A41-AA09-26E791A62C65";
name = "Feb 16 18, 15:35";
paths = (
{
closed = 1;
nodes = (
"254 655 LINE",
"496 171 LINE",
"535 356 LINE",
"460 655 LINE",
"642 655 LINE",
"558 355 LINE",
"642 0 LINE",
"451 0 LINE",
"177 534 LINE",
"131 351 LINE",
"255 0 LINE",
"43 0 LINE",
"115 351 LINE",
"35 655 LINE"
);
}
);
width = 677;
},
{
associatedMasterId = "7F20675F-B4B1-45FA-B0F6-A97D5A641B97";
layerId = "4091CCAB-7B3B-4F83-8B38-5AC44985E721";
name = "Feb 16 18, 15:36";
paths = (
{
closed = 1;
nodes = (
"114 655 LINE",
"496 171 LINE",
"535 356 LINE",
"460 655 LINE",
"642 655 LINE",
"558 355 LINE",
"642 0 LINE",
"601 0 LINE",
"177 534 LINE",
"131 351 LINE",
"255 0 LINE",
"43 0 LINE",
"115 351 LINE",
"35 655 LINE"
);
}
);
width = 677;
},
{
associatedMasterId = "7F20675F-B4B1-45FA-B0F6-A97D5A641B97";
layerId = "F1942C98-8FF4-4FFD-A235-7CCAB2E745A8";
name = "Feb 19 18, 09:47";
paths = (
{
closed = 1;
nodes = (
"310 351 LINE",
"168 500 LINE",
"131 351 LINE",
"255 0 LINE",
"43 0 LINE",
"115 351 LINE",
"35 655 LINE",
"204 655 LINE",
"335 351 LINE"
);
},
{
closed = 1;
nodes = (
"335 351 LINE",
"497 182 LINE",
"535 356 LINE",
"460 655 LINE",
"642 655 LINE",
"558 355 LINE",
"642 0 LINE",
"461 0 LINE",
"310 351 LINE"
);
}
);
width = 677;
},
{
associatedMasterId = "7F20675F-B4B1-45FA-B0F6-A97D5A641B97";
layerId = "6D922CBC-ED0C-4F4D-975F-F735E4377F97";
name = "Feb 19 18, 11:44";
paths = (
{
closed = 1;
nodes = (
"233 655 LINE",
"620 207 LINE",
"620 355 LINE",
"532 655 LINE",
"714 655 LINE",
"642 355 LINE",
"642 0 LINE",
"624 0 LINE",
"156 556 LINE",
"156 339 LINE",
"243 0 LINE",
"57 0 LINE",
"135 339 LINE",
"135 655 LINE"
);
},
{
closed = 1;
nodes = (
"26 655 LINE",
"143 655 LINE",
"143 519 LINE"
);
}
);
width = 747;
},
{
associatedMasterId = "7F20675F-B4B1-45FA-B0F6-A97D5A641B97";
layerId = "E924791F-6EB3-4239-BB71-66C1732F6CB2";
name = "Feb 19 18, 11:58";
paths = (
{
closed = 1;
nodes = (
"620 32 LINE",
"620 355 LINE",
"540 655 LINE",
"722 655 LINE",
"642 355 LINE",
"642 32 LINE"
);
},
{
closed = 1;
nodes = (
"156 617 LINE",
"156 339 LINE",
"243 0 LINE",
"57 0 LINE",
"135 339 LINE",
"135 617 LINE"
);
},
{
closed = 1;
nodes = (
"762 11 OFFCURVE",
"660 -14 OFFCURVE",
"621 -14 CURVE SMOOTH",
"539 -14 OFFCURVE",
"504 45 OFFCURVE",
"446 157 CURVE SMOOTH",
"338 366 LINE SMOOTH",
"237 562 OFFCURVE",
"149 551 OFFCURVE",
"4 462 CURVE",
"-15 602 OFFCURVE",
"64 682 OFFCURVE",
"119 682 CURVE SMOOTH",
"219 682 OFFCURVE",
"256 580 OFFCURVE",
"314 465 CURVE SMOOTH",
"414 266 LINE SMOOTH",
"531 33 OFFCURVE",
"653 135 OFFCURVE",
"730 200 CURVE"
);
}
);
width = 747;
},
{
associatedMasterId = "7F20675F-B4B1-45FA-B0F6-A97D5A641B97";
layerId = "EEE7F94C-8851-4E0D-B4FA-F098349308EF";
name = "Feb 19 18, 12:41";
paths = (
{
closed = 1;
nodes = (
"645 32 LINE",
"645 249 LINE",
"645 444 OFFCURVE",
"485 562 OFFCURVE",
"485 655 CURVE",
"791 655 LINE",
"721 602 OFFCURVE",
"667 529 OFFCURVE",
"667 416 CURVE",
"667 32 LINE"
);
},
{
closed = 1;
nodes = (
"211 617 LINE",
"211 335 LINE",
"211 223 OFFCURVE",
"341 112 OFFCURVE",
"341 0 CURVE",
"35 0 LINE",
"115 41 OFFCURVE",
"190 141 OFFCURVE",
"190 272 CURVE",
"190 617 LINE"
);
},
{
closed = 1;
nodes = (
"800 13 OFFCURVE",
"715 -14 OFFCURVE",
"656 -14 CURVE SMOOTH",
"574 -14 OFFCURVE",
"539 45 OFFCURVE",
"481 157 CURVE",
"323 467 LINE SMOOTH",
"281 549 OFFCURVE",
"151 531 OFFCURVE",
"39 462 CURVE",
"20 602 OFFCURVE",
"99 682 OFFCURVE",
"154 682 CURVE SMOOTH",
"254 682 OFFCURVE",
"291 580 OFFCURVE",
"349 465 CURVE SMOOTH",
"505 158 LINE SMOOTH",
"549 71 OFFCURVE",
"706 150 OFFCURVE",
"765 200 CURVE"
);
}
);
width = 826;
},
{
associatedMasterId = "7F20675F-B4B1-45FA-B0F6-A97D5A641B97";
layerId = "93993037-6B65-41EF-8BED-67D36436219A";
name = "Feb 19 18, 12:42";
paths = (
{
closed = 1;
nodes = (
"645 32 LINE",
"645 249 LINE",
"645 444 OFFCURVE",
"455 502 OFFCURVE",
"455 655 CURVE",
"791 655 LINE",
"721 602 OFFCURVE",
"667 529 OFFCURVE",
"667 416 CURVE",
"667 32 LINE"
);
},
{
closed = 1;
nodes = (
"211 617 LINE",
"211 335 LINE",
"211 223 OFFCURVE",
"371 172 OFFCURVE",
"371 0 CURVE",
"35 0 LINE",
"115 41 OFFCURVE",
"190 141 OFFCURVE",
"190 272 CURVE",
"190 617 LINE"
);
},
{
closed = 1;
nodes = (
"800 13 OFFCURVE",
"715 -14 OFFCURVE",
"656 -14 CURVE SMOOTH",
"574 -14 OFFCURVE",
"539 45 OFFCURVE",
"481 157 CURVE",
"335 443 LINE SMOOTH",
"269 573 OFFCURVE",
"151 531 OFFCURVE",
"39 462 CURVE",
"20 602 OFFCURVE",
"99 682 OFFCURVE",
"154 682 CURVE SMOOTH",
"254 682 OFFCURVE",
"290 579 OFFCURVE",
"349 465 CURVE SMOOTH",
"491 188 LINE SMOOTH",
"561 51 OFFCURVE",
"706 150 OFFCURVE",
"765 200 CURVE"
);
}
);
width = 826;
},
{
associatedMasterId = "7F20675F-B4B1-45FA-B0F6-A97D5A641B97";
layerId = "69CAB9FC-A054-470A-AB52-7896FAB34A1E";
name = "Feb 19 18, 12:46";
paths = (
{
closed = 1;
nodes = (
"645 32 LINE",
"645 319 LINE",
"645 514 OFFCURVE",
"605 582 OFFCURVE",
"495 655 CURVE",
"791 655 LINE",
"691 582 OFFCURVE",
"667 489 OFFCURVE",
"667 316 CURVE",
"667 32 LINE"
);
},
{
closed = 1;
nodes = (
"211 617 LINE",
"211 345 LINE",
"211 233 OFFCURVE",
"211 102 OFFCURVE",
"371 0 CURVE",
"35 0 LINE",
"185 100 OFFCURVE",
"190 220 OFFCURVE",
"190 351 CURVE",
"190 617 LINE"
);
},
{
closed = 1;
nodes = (
"800 13 OFFCURVE",
"715 -14 OFFCURVE",
"656 -14 CURVE SMOOTH",
"574 -14 OFFCURVE",
"539 45 OFFCURVE",
"481 157 CURVE",
"335 443 LINE SMOOTH",
"269 573 OFFCURVE",
"151 531 OFFCURVE",
"39 462 CURVE",
"20 602 OFFCURVE",
"99 682 OFFCURVE",
"154 682 CURVE SMOOTH",
"254 682 OFFCURVE",
"293 579 OFFCURVE",
"352 465 CURVE SMOOTH",
"494 188 LINE SMOOTH",
"564 51 OFFCURVE",
"706 150 OFFCURVE",
"765 200 CURVE"
);
}
);
width = 826;
},
{
associatedMasterId = "7F20675F-B4B1-45FA-B0F6-A97D5A641B97";
layerId = "248B23FD-08C8-4DF7-90F7-3968727A760E";
name = "Feb 19 18, 12:53";
paths = (
{
closed = 1;
nodes = (
"645 32 LINE",
"645 319 LINE",
"645 514 OFFCURVE",
"605 582 OFFCURVE",
"495 655 CURVE",
"791 655 LINE",
"691 582 OFFCURVE",
"667 489 OFFCURVE",
"667 316 CURVE",
"667 32 LINE"
);
},
{
closed = 1;
nodes = (
"211 617 LINE",
"211 345 LINE",
"211 233 OFFCURVE",
"211 102 OFFCURVE",
"371 0 CURVE",
"35 0 LINE",
"185 100 OFFCURVE",
"190 220 OFFCURVE",
"190 351 CURVE",
"190 617 LINE"
);
},
{
closed = 1;
nodes = (
"800 13 OFFCURVE",
"715 -14 OFFCURVE",
"656 -14 CURVE SMOOTH",
"574 -14 OFFCURVE",
"539 45 OFFCURVE",
"481 157 CURVE",
"335 443 LINE SMOOTH",
"269 573 OFFCURVE",
"151 531 OFFCURVE",
"39 462 CURVE",
"20 602 OFFCURVE",
"99 682 OFFCURVE",
"154 682 CURVE SMOOTH",
"254 682 OFFCURVE",
"293 579 OFFCURVE",
"352 465 CURVE SMOOTH",
"494 188 LINE SMOOTH",
"564 51 OFFCURVE",
"706 150 OFFCURVE",
"765 200 CURVE"
);
}
);
width = 826;
},
{
associatedMasterId = "7F20675F-B4B1-45FA-B0F6-A97D5A641B97";
layerId = "44F6708B-2709-49FF-A348-B7C2270323DB";
name = "Feb 25 18, 22:45";
paths = (
{
closed = 1;
nodes = (
"645 445 LINE",
"495 655 LINE",
"811 655 LINE",
"667 445 LINE"
);
},
{
closed = 1;
nodes = (
"190 192 LINE",
"190 617 LINE",
"211 617 LINE",
"211 192 LINE"
);
},
{
closed = 1;
nodes = (
"560 1 LINE",
"353 408 LINE",
"29 682 LINE",
"245 682 LINE",
"466 244 LINE",
"811 0 LINE"
);
},
{
closed = 1;
nodes = (
"211 192 LINE",
"371 0 LINE",
"35 0 LINE",
"190 192 LINE"
);
},
{
closed = 1;
nodes = (
"667 445 LINE",
"667 32 LINE",
"645 32 LINE",
"645 445 LINE"
);
}
);
width = 826;
},
{
associatedMasterId = "7F20675F-B4B1-45FA-B0F6-A97D5A641B97";
layerId = "D1BA7575-AEF7-4F00-8B92-E5DE481F25A1";
name = "Feb 25 18, 22:50";
paths = (
{
closed = 1;
nodes = (
"645 445 LINE",
"495 655 LINE",
"811 655 LINE",
"667 445 LINE"
);
},
{
closed = 1;
nodes = (
"190 192 LINE",
"190 617 LINE",
"211 617 LINE",
"211 192 LINE"
);
},
{
closed = 1;
nodes = (
"580 1 LINE",
"29 655 LINE",
"245 655 LINE",
"801 0 LINE"
);
},
{
closed = 1;
nodes = (
"211 192 LINE",
"371 0 LINE",
"35 0 LINE",
"190 192 LINE"
);
},
{
closed = 1;
nodes = (
"667 445 LINE",
"667 32 LINE",
"645 32 LINE",
"645 445 LINE"
);
}
);
width = 826;
},
{
associatedMasterId = "7F20675F-B4B1-45FA-B0F6-A97D5A641B97";
layerId = "813C36EA-7FE8-4B87-974F-E882414B4FE0";
name = "Feb 25 18, 23:09";
paths = (
{
closed = 1;
nodes = (
"645 445 LINE",
"495 655 LINE",
"811 655 LINE",
"667 445 LINE"
);
},
{
closed = 1;
nodes = (
"200 192 LINE",
"200 597 LINE",
"221 597 LINE",
"221 192 LINE"
);
},
{
closed = 1;
nodes = (
"668 -16 LINE",
"368 401 LINE",
"48 500 LINE",
"191 682 LINE",
"505 256 LINE",
"796 152 LINE"
);
},
{
closed = 1;
nodes = (
"221 192 LINE",
"381 0 LINE",
"45 0 LINE",
"200 192 LINE"
);
},
{
closed = 1;
nodes = (
"667 445 LINE",
"667 62 LINE",
"645 62 LINE",
"645 445 LINE"
);
}
);
width = 826;
},
{
associatedMasterId = "7F20675F-B4B1-45FA-B0F6-A97D5A641B97";
layerId = "622E15FA-C733-4190-9715-940820616042";
name = "Feb 26 18, 12:03";
paths = (
{
closed = 1;
nodes = (
"645 445 LINE",
"495 655 LINE",
"811 655 LINE",
"667 445 LINE"
);
},
{
closed = 1;
nodes = (
"200 192 LINE",
"200 597 LINE",
"221 597 LINE",
"221 192 LINE"
);
},
{
closed = 1;
nodes = (
"668 -16 LINE",
"431 314 LINE",
"48 500 LINE",
"191 682 LINE",
"458 321 LINE",
"796 152 LINE"
);
},
{
closed = 1;
nodes = (
"221 192 LINE",
"381 0 LINE",
"45 0 LINE",
"200 192 LINE"
);
},
{
closed = 1;
nodes = (
"667 445 LINE",
"667 62 LINE",
"645 62 LINE",
"645 445 LINE"
);
}
);
width = 826;
},
{
associatedMasterId = "7F20675F-B4B1-45FA-B0F6-A97D5A641B97";
layerId = "0C5A920F-EBA8-4B2F-97E0-4581991BD3D3";
name = "Feb 27 18, 08:40";
paths = (
{
closed = 1;
nodes = (
"628 -16 LINE",
"387 314 LINE",
"28 500 LINE",
"161 682 LINE",
"414 321 LINE",
"746 172 LINE"
);
},
{
closed = 1;
nodes = (
"150 277 LINE",
"150 484 LINE",
"171 484 LINE",
"171 277 LINE"
);
},
{
closed = 1;
nodes = (
"171 277 LINE",
"291 0 LINE",
"35 0 LINE",
"150 277 LINE"
);
},
{
closed = 1;
nodes = (
"609 374 LINE",
"495 655 LINE",
"751 655 LINE",
"631 374 LINE"
);
},
{
closed = 1;
nodes = (
"609 187 LINE",
"609 374 LINE",
"631 374 LINE",
"631 187 LINE"
);
}
);
width = 791;
},
{
associatedMasterId = "7F20675F-B4B1-45FA-B0F6-A97D5A641B97";
layerId = "5ED204E8-4C3E-4C08-BEE2-0A44A6F5FD47";
name = "Mar 4 18, 21:14";
paths = (
{
closed = 1;
nodes = (
"628 -16 LINE",
"558 99 OFFCURVE",
"477 209 OFFCURVE",
"387 314 CURVE",
"267 386 OFFCURVE",
"148 448 OFFCURVE",
"28 500 CURVE",
"161 682 LINE",
"235 562 OFFCURVE",
"320 441 OFFCURVE",
"414 321 CURVE",
"515 261 OFFCURVE",
"625 212 OFFCURVE",
"746 172 CURVE"
);
},
{
closed = 1;
nodes = (
"150 277 LINE",
"150 484 LINE",
"171 484 LINE",
"171 277 LINE"
);
},
{
closed = 1;
nodes = (
"171 277 LINE",
"201 185 OFFCURVE",
"241 92 OFFCURVE",
"291 0 CURVE",
"35 0 LINE",
"83 92 OFFCURVE",
"122 185 OFFCURVE",
"150 277 CURVE"
);
},
{
closed = 1;
nodes = (
"609 374 LINE",
"581 468 OFFCURVE",
"543 561 OFFCURVE",
"495 655 CURVE",
"751 655 LINE",
"701 561 OFFCURVE",
"661 468 OFFCURVE",
"631 374 CURVE"
);
},
{
closed = 1;
nodes = (
"609 187 LINE",
"609 374 LINE",
"631 374 LINE",
"631 187 LINE"
);
}
);
width = 791;
},
{
associatedMasterId = "7F20675F-B4B1-45FA-B0F6-A97D5A641B97";
layerId = "4ED3576C-601E-4556-8175-EF33D933A9F1";
width = 797;
},
{
associatedMasterId = "7F20675F-B4B1-45FA-B0F6-A97D5A641B97";
layerId = "276AC19A-562C-4F22-BD5D-77B3ECCCF221";
name = "Apr 1 18, 15:01";
paths = (
{
closed = 1;
nodes = (
"746 130 CURVE SMOOTH",
"746 89 OFFCURVE",
"703 43 OFFCURVE",
"615 -16 CURVE",
"545 99 OFFCURVE",
"477 209 OFFCURVE",
"387 314 CURVE",
"196 377 OFFCURVE",
"51 444 OFFCURVE",
"51 535 CURVE SMOOTH",
"51 578 OFFCURVE",
"84 626 OFFCURVE",
"161 682 CURVE",
"235 562 OFFCURVE",
"320 441 OFFCURVE",
"414 321 CURVE",
"634 248 OFFCURVE",
"746 195 OFFCURVE"
);
},
{
closed = 1;
nodes = (
"150 325 LINE",
"150 655 LINE",
"171 655 LINE",
"171 325 LINE"
);
},
{
closed = 1;
nodes = (
"171 325 LINE",
"201 233 OFFCURVE",
"241 122 OFFCURVE",
"291 0 CURVE",
"35 0 LINE",
"83 122 OFFCURVE",
"122 233 OFFCURVE",
"150 325 CURVE"
);
},
{
closed = 1;
nodes = (
"609 324 LINE",
"581 418 OFFCURVE",
"543 531 OFFCURVE",
"495 655 CURVE",
"751 655 LINE",
"701 531 OFFCURVE",
"661 418 OFFCURVE",
"631 324 CURVE"
);
},
{
closed = 1;
nodes = (
"609 0 LINE",
"609 324 LINE",
"631 324 LINE",
"631 0 LINE"
);
}
);
width = 791;
},
{
associatedMasterId = "7F20675F-B4B1-45FA-B0F6-A97D5A641B97";
layerId = "7B4CEE32-8015-478B-9BA7-B626EC99E2D8";
name = "Apr 5 18, 13:10";
paths = (
{
closed = 1;
nodes = (
"788 190 LINE",
"428 321 LINE",
"185 682 LINE",
"32 485 LINE",
"411 314 LINE",
"644 -16 LINE"
);
},
{
closed = 1;
nodes = (
"314 0 LINE",
"314 3 LINE",
"195 263 LINE",
"175 263 LINE",
"60 2 LINE",
"60 0 LINE"
);
},
{
closed = 1;
nodes = (
"195 0 LINE",
"195 655 LINE",
"175 655 LINE",
"175 0 LINE"
);
},
{
closed = 1;
nodes = (
"654 0 LINE",
"654 655 LINE",
"634 655 LINE",
"634 0 LINE"
);
},
{
closed = 1;
nodes = (
"654 369 LINE",
"774 653 LINE",
"774 655 LINE",
"520 655 LINE",
"520 653 LINE",
"634 369 LINE"
);
}
);
width = 843;
},
{
associatedMasterId = "7F20675F-B4B1-45FA-B0F6-A97D5A641B97";
layerId = "ABB71210-5098-4EB2-BC18-6175D8763FFA";
name = "Apr 5 18, 13:11";
paths = (
{
closed = 1;
nodes = (
"788 190 LINE",
"428 321 LINE",
"185 682 LINE",
"32 485 LINE",
"411 314 LINE",
"644 -16 LINE"
);
},
{
closed = 1;
nodes = (
"314 0 LINE",
"314 3 LINE",
"195 263 LINE",
"175 263 LINE",
"60 2 LINE",
"60 0 LINE"
);
},
{
closed = 1;
nodes = (
"195 0 LINE",
"195 655 LINE",
"175 655 LINE",
"175 0 LINE"
);
},
{
closed = 1;
nodes = (
"654 0 LINE",
"654 655 LINE",
"634 655 LINE",
"634 0 LINE"
);
},
{
closed = 1;
nodes = (
"654 369 LINE",
"774 653 LINE",
"774 655 LINE",
"520 655 LINE",
"520 653 LINE",
"634 369 LINE"
);
}
);
width = 843;
},
{
associatedMasterId = "7F20675F-B4B1-45FA-B0F6-A97D5A641B97";
layerId = "A521EEDC-8E54-4A39-941A-06C44C1BD48F";
paths = (
{
closed = 1;
nodes = (
"310 0 LINE",
"310 16 LINE",
"192 103 LINE",
"172 103 LINE",
"58 16 LINE",
"58 0 LINE"
);
},
{
closed = 1;
nodes = (
"192 0 LINE",
"192 655 LINE",
"172 655 LINE",
"172 0 LINE"
);
},
{
closed = 1;
nodes = (
"668 0 LINE",
"668 655 LINE",
"648 655 LINE",
"648 0 LINE"
);
},
{
closed = 1;
nodes = (
"668 545 LINE",
"787 640 LINE",
"787 655 LINE",
"534 655 LINE",
"534 640 LINE",
"648 545 LINE"
);
},
{
closed = 1;
nodes = (
"680 0 LINE",
"242 655 LINE",
"133 655 LINE",
"564 0 LINE"
);
},
{
closed = 1;
nodes = (
"284 655 LINE",
"36 655 LINE",
"36 640 LINE",
"239 544 LINE",
"256 547 LINE",
"285 639 LINE"
);
},
{
closed = 1;
nodes = (
"794 16 LINE",
"603 104 LINE",
"585 101 LINE",
"527 16 LINE",
"527 0 LINE",
"794 0 LINE"
);
}
);
width = 831;
}
);
unicode = 004E;
},
{
glyphname = O;
lastChange = "2018-04-09 15:24:54 +0000";
layers = (
{
guideLines = (
{
position = "{166, 712}";
},
{
position = "{116, 436}";
}
);
layerId = "7F20675F-B4B1-45FA-B0F6-A97D5A641B97";
paths = (
{
closed = 1;
nodes = (
"522 -19 OFFCURVE",
"695 158 OFFCURVE",
"695 334 CURVE SMOOTH",
"695 499 OFFCURVE",
"543 684 OFFCURVE",
"373 684 CURVE SMOOTH",
"208 684 OFFCURVE",
"35 505 OFFCURVE",
"35 330 CURVE SMOOTH",
"35 166 OFFCURVE",
"188 -19 OFFCURVE",
"357 -19 CURVE SMOOTH"
);
},
{
closed = 1;
nodes = (
"268 96 OFFCURVE",
"-18 105 OFFCURVE",
"74 438 CURVE",
"395 612 OFFCURVE",
"789 523 OFFCURVE",
"643 193 CURVE"
);
}
);
width = 730;
},
{
layerId = "1195BCD1-8D25-4D5E-8C85-FC733C7A5356";
paths = (
{
closed = 1;
nodes = (
"720 200 OFFCURVE",
"737 415 OFFCURVE",
"604 576 CURVE SMOOTH",
"495 707 OFFCURVE",
"277 711 OFFCURVE",
"159 602 CURVE SMOOTH",
"9 462 OFFCURVE",
"-8 245 OFFCURVE",
"124 84 CURVE SMOOTH",
"233 -47 OFFCURVE",
"452 -54 OFFCURVE",
"569 57 CURVE SMOOTH"
);
},
{
closed = 1;
nodes = (
"132 5 OFFCURVE",
"134 648 OFFCURVE",
"369 652 CURVE",
"595 652 OFFCURVE",
"600 5 OFFCURVE",
"369 5 CURVE"
);
}
);
width = 729;
},
{
associatedMasterId = "7F20675F-B4B1-45FA-B0F6-A97D5A641B97";
layerId = "4ED3576C-601E-4556-8175-EF33D933A9F1";
paths = (
{
closed = 1;
nodes = (
"652 126 OFFCURVE",
"721 329 OFFCURVE",
"632 495 CURVE SMOOTH",
"560 638 OFFCURVE",
"364 702 OFFCURVE",
"228 629 CURVE SMOOTH",
"73 536 OFFCURVE",
"4 332 OFFCURVE",
"92 166 CURVE SMOOTH",
"165 24 OFFCURVE",
"362 -43 OFFCURVE",
"496 31 CURVE SMOOTH"
);
},
{
closed = 1;
nodes = (
"174 37 OFFCURVE",
"84 465 OFFCURVE",
"272 579 CURVE",
"529 637 OFFCURVE",
"659 180 OFFCURVE",
"457 70 CURVE"
);
}
);
width = 727;
},
{
associatedMasterId = "7F20675F-B4B1-45FA-B0F6-A97D5A641B97";
guideLines = (
{
position = "{166, 712}";
},
{
position = "{116, 436}";
}
);
layerId = "67ECAA49-F754-4198-9014-9B95F23B28EF";
name = "Apr 9 18, 09:23";
paths = (
{
closed = 1;
nodes = (
"522 -19 OFFCURVE",
"695 158 OFFCURVE",
"695 334 CURVE SMOOTH",
"695 499 OFFCURVE",
"543 684 OFFCURVE",
"373 684 CURVE SMOOTH",
"208 684 OFFCURVE",
"35 505 OFFCURVE",
"35 330 CURVE SMOOTH",
"35 166 OFFCURVE",
"188 -19 OFFCURVE",
"357 -19 CURVE SMOOTH"
);
},
{
closed = 1;
nodes = (
"268 96 OFFCURVE",
"-18 105 OFFCURVE",
"74 438 CURVE",
"395 612 OFFCURVE",
"789 523 OFFCURVE",
"643 193 CURVE"
);
}
);
width = 730;
},
{
associatedMasterId = "7F20675F-B4B1-45FA-B0F6-A97D5A641B97";
layerId = "A521EEDC-8E54-4A39-941A-06C44C1BD48F";
width = 600;
}
);
unicode = 004F;
},
{
glyphname = P;
lastChange = "2018-04-11 20:05:19 +0000";
layers = (
{
layerId = "7F20675F-B4B1-45FA-B0F6-A97D5A641B97";
paths = (
{
closed = 1;
nodes = (
"167 636 LINE",
"149 636 LINE",
"149 424 OFFCURVE",
"149 212 OFFCURVE",
"149 0 CURVE",
"170 0 LINE"
);
},
{
closed = 1;
nodes = (
"91 631 LINE",
"159 631 OFFCURVE",
"192 631 OFFCURVE",
"330 631 CURVE SMOOTH",
"424 631 OFFCURVE",
"467 563 OFFCURVE",
"467 493 CURVE SMOOTH",
"467 416 OFFCURVE",
"415 325 OFFCURVE",
"320 326 CURVE SMOOTH",
"166 327 LINE",
"166 307 LINE",
"320 307 LINE SMOOTH",
"493 307 OFFCURVE",
"605 349 OFFCURVE",
"605 485 CURVE SMOOTH",
"605 619 OFFCURVE",
"514 655 OFFCURVE",
"360 655 CURVE SMOOTH",
"211 655 OFFCURVE",
"150 655 OFFCURVE",
"91 655 CURVE"
);
},
{
closed = 1;
nodes = (
"166 261 LINE",
"153 261 LINE",
"35 3 LINE",
"35 0 LINE",
"287 0 LINE",
"287 3 LINE"
);
},
{
closed = 1;
nodes = (
"271 655 LINE",
"35 655 LINE",
"35 652 LINE",
"153 369 LINE",
"165 369 LINE",
"271 652 LINE"
);
}
);
width = 640;
},
{
layerId = "1195BCD1-8D25-4D5E-8C85-FC733C7A5356";
paths = (
{
closed = 1;
nodes = (
"225 636 LINE",
"95 636 LINE",
"95 424 OFFCURVE",
"95 212 OFFCURVE",
"95 0 CURVE",
"226 0 LINE"
);
},
{
closed = 1;
nodes = (
"91 633 LINE",
"159 633 OFFCURVE",
"192 633 OFFCURVE",
"330 633 CURVE SMOOTH",
"424 633 OFFCURVE",
"467 563 OFFCURVE",
"467 493 CURVE SMOOTH",
"467 416 OFFCURVE",
"415 325 OFFCURVE",
"320 326 CURVE SMOOTH",
"166 327 LINE",
"166 307 LINE",
"320 307 LINE SMOOTH",
"493 307 OFFCURVE",
"605 349 OFFCURVE",
"605 485 CURVE SMOOTH",
"605 619 OFFCURVE",
"514 655 OFFCURVE",
"360 655 CURVE SMOOTH",
"211 655 OFFCURVE",
"150 655 OFFCURVE",
"91 655 CURVE"
);
},
{
closed = 1;
nodes = (
"166 23 LINE",
"153 23 LINE",
"35 23 LINE",
"35 0 LINE",
"297 0 LINE",
"297 23 LINE"
);
},
{
closed = 1;
nodes = (
"177 655 LINE",
"35 655 LINE",
"35 633 LINE",
"153 633 LINE",
"165 633 LINE",
"177 633 LINE"
);
}
);
width = 640;
},
{
associatedMasterId = "7F20675F-B4B1-45FA-B0F6-A97D5A641B97";
layerId = "4ED3576C-601E-4556-8175-EF33D933A9F1";
width = 783;
},
{
associatedMasterId = "7F20675F-B4B1-45FA-B0F6-A97D5A641B97";
layerId = "C05E81C1-1197-41D1-BC50-A5E28ED09363";
name = "Apr 1 18, 15:55";
paths = (
{
closed = 1;
nodes = (
"296 0 LINE",
"173 328 LINE",
"173 511 LINE",
"355 567 OFFCURVE",
"545 540 OFFCURVE",
"548 446 CURVE SMOOTH",
"551 342 OFFCURVE",
"329 343 OFFCURVE",
"185 383 CURVE",
"185 378 LINE",
"326 152 OFFCURVE",
"569 227 OFFCURVE",
"569 446 CURVE SMOOTH",
"569 675 OFFCURVE",
"369 679 OFFCURVE",
"35 649 CURVE",
"153 328 LINE",
"41 0 LINE"
);
}
);
width = 604;
},
{
associatedMasterId = "7F20675F-B4B1-45FA-B0F6-A97D5A641B97";
layerId = "A521EEDC-8E54-4A39-941A-06C44C1BD48F";
paths = (
{
closed = 1;
nodes = (
"206 636 LINE",
"113 636 LINE",
"113 424 OFFCURVE",
"113 212 OFFCURVE",
"113 0 CURVE",
"207 0 LINE"
);
},
{
closed = 1;
nodes = (
"91 632 LINE",
"159 632 OFFCURVE",
"192 632 OFFCURVE",
"330 632 CURVE SMOOTH",
"424 632 OFFCURVE",
"467 563 OFFCURVE",
"467 493 CURVE SMOOTH",
"467 416 OFFCURVE",
"415 325 OFFCURVE",
"320 326 CURVE SMOOTH",
"166 327 LINE",
"166 307 LINE",
"320 307 LINE SMOOTH",
"493 307 OFFCURVE",
"605 349 OFFCURVE",
"605 485 CURVE SMOOTH",
"605 619 OFFCURVE",
"514 655 OFFCURVE",
"360 655 CURVE SMOOTH",
"211 655 OFFCURVE",
"150 655 OFFCURVE",
"91 655 CURVE"
);
},
{
closed = 1;
nodes = (
"166 102 LINE",
"153 102 LINE",
"35 16 LINE",
"35 0 LINE",
"294 0 LINE",
"294 16 LINE"
);
},
{
closed = 1;
nodes = (
"208 655 LINE",
"35 655 LINE",
"35 639 LINE",
"153 545 LINE",
"165 545 LINE",
"208 639 LINE"
);
}
);
width = 640;
}
);
unicode = 0050;
},
{
glyphname = Q;
lastChange = "2018-04-11 20:05:19 +0000";
layers = (
{
layerId = "7F20675F-B4B1-45FA-B0F6-A97D5A641B97";
paths = (
{
closed = 1;
nodes = (
"404 135 LINE",
"737 334 OFFCURVE",
"610 685 OFFCURVE",
"362 685 CURVE SMOOTH",
"197 685 OFFCURVE",
"35 475 OFFCURVE",
"35 300 CURVE SMOOTH",
"35 139 OFFCURVE",
"188 -19 OFFCURVE",
"357 -19 CURVE SMOOTH",
"525 -19 OFFCURVE",
"657 89 OFFCURVE",
"711 219 CURVE",
"230 68 OFFCURVE",
"-12 110 OFFCURVE",
"71 408 CURVE",
"380 666 OFFCURVE",
"795 433 OFFCURVE",
"380 133 CURVE"
);
}
);
width = 730;
},
{
layerId = "1195BCD1-8D25-4D5E-8C85-FC733C7A5356";
width = 800;
},
{
associatedMasterId = "7F20675F-B4B1-45FA-B0F6-A97D5A641B97";
layerId = "1FC39725-478D-42D3-9188-C97E44975A95";
name = "Apr 10 18, 10:48";
paths = (
{
closed = 1;
nodes = (
"494 155 LINE",
"757 374 OFFCURVE",
"610 685 OFFCURVE",
"362 685 CURVE SMOOTH",
"197 685 OFFCURVE",
"35 475 OFFCURVE",
"35 300 CURVE SMOOTH",
"35 139 OFFCURVE",
"188 -19 OFFCURVE",
"357 -19 CURVE SMOOTH",
"525 -19 OFFCURVE",
"657 89 OFFCURVE",
"711 219 CURVE",
"230 68 OFFCURVE",
"-12 110 OFFCURVE",
"71 408 CURVE",
"380 666 OFFCURVE",
"815 473 OFFCURVE",
"470 153 CURVE"
);
}
);
width = 746;
},
{
associatedMasterId = "7F20675F-B4B1-45FA-B0F6-A97D5A641B97";
layerId = "A521EEDC-8E54-4A39-941A-06C44C1BD48F";
width = 777;
}
);
unicode = 0051;
},
{
glyphname = R;
lastChange = "2018-04-11 20:05:19 +0000";
layers = (
{
layerId = "7F20675F-B4B1-45FA-B0F6-A97D5A641B97";
paths = (
{
closed = 1;
nodes = (
"179 635 LINE",
"162 635 LINE",
"159 0 LINE",
"176 0 LINE"
);
},
{
closed = 1;
nodes = (
"177 262 LINE",
"162 263 LINE",
"43 1 LINE",
"43 -1 LINE",
"293 -1 LINE",
"293 1 LINE"
);
},
{
closed = 1;
nodes = (
"39 655 LINE",
"39 654 LINE",
"161 369 LINE",
"176 369 LINE",
"289 653 LINE",
"289 655 LINE"
);
},
{
closed = 1;
nodes = (
"91 631 LINE",
"159 631 OFFCURVE",
"222 631 OFFCURVE",
"360 631 CURVE SMOOTH",
"454 631 OFFCURVE",
"497 555 OFFCURVE",
"497 485 CURVE SMOOTH",
"497 408 OFFCURVE",
"445 326 OFFCURVE",
"350 327 CURVE SMOOTH",
"166 328 LINE",
"166 308 LINE",
"350 308 LINE SMOOTH",
"523 308 OFFCURVE",
"635 341 OFFCURVE",
"635 477 CURVE SMOOTH",
"635 611 OFFCURVE",
"544 655 OFFCURVE",
"390 655 CURVE SMOOTH",
"241 655 OFFCURVE",
"150 655 OFFCURVE",
"91 655 CURVE"
);
},
{
closed = 1;
nodes = (
"348 308 LINE",
"456 308 LINE SMOOTH",
"586 309 OFFCURVE",
"662 262 OFFCURVE",
"521 183 CURVE SMOOTH",
"327 74 OFFCURVE",
"527 0 OFFCURVE",
"693 0 CURVE",
"693 21 LINE",
"574 21 OFFCURVE",
"642 36 OFFCURVE",
"642 186 CURVE SMOOTH",
"642 286 OFFCURVE",
"591 327 OFFCURVE",
"456 327 CURVE SMOOTH",
"348 327 LINE"
);
}
);
width = 728;
},
{
layerId = "1195BCD1-8D25-4D5E-8C85-FC733C7A5356";
paths = (
{
closed = 1;
nodes = (
"234 635 LINE",
"103 635 LINE",
"103 0 LINE",
"233 0 LINE"
);
},
{
closed = 1;
nodes = (
"177 23 LINE",
"162 23 LINE",
"36 23 LINE",
"36 -1 LINE",
"300 -1 LINE",
"300 23 LINE"
);
},
{
closed = 1;
nodes = (
"44 655 LINE",
"44 633 LINE",
"161 631 LINE",
"176 631 LINE",
"179 633 LINE",
"179 655 LINE"
);
},
{
closed = 1;
nodes = (
"91 632 LINE",
"159 632 OFFCURVE",
"242 633 OFFCURVE",
"380 633 CURVE SMOOTH",
"474 633 OFFCURVE",
"517 555 OFFCURVE",
"517 485 CURVE SMOOTH",
"517 408 OFFCURVE",
"465 328 OFFCURVE",
"370 328 CURVE SMOOTH",
"166 329 LINE",
"166 306 LINE",
"350 306 LINE SMOOTH",
"523 306 OFFCURVE",
"635 361 OFFCURVE",
"635 477 CURVE SMOOTH",
"635 611 OFFCURVE",
"544 655 OFFCURVE",
"390 655 CURVE SMOOTH",
"241 655 OFFCURVE",
"150 655 OFFCURVE",
"91 655 CURVE"
);
},
{
closed = 1;
nodes = (
"348 306 LINE",
"456 307 LINE SMOOTH",
"656 309 OFFCURVE",
"481 222 OFFCURVE",
"481 133 CURVE SMOOTH",
"481 58 OFFCURVE",
"527 0 OFFCURVE",
"693 0 CURVE",
"693 21 LINE",
"574 21 OFFCURVE",
"646 36 OFFCURVE",
"646 186 CURVE SMOOTH",
"646 286 OFFCURVE",
"591 328 OFFCURVE",
"456 328 CURVE SMOOTH",
"348 328 LINE"
);
}
);
width = 728;
},
{
associatedMasterId = "7F20675F-B4B1-45FA-B0F6-A97D5A641B97";
layerId = "9BC1A662-331D-4A40-9AD8-0223C85E137C";
name = "Feb 25 18, 21:18";
paths = (
{
closed = 1;
nodes = (
"339 0 LINE",
"184 81 OFFCURVE",
"186 198 OFFCURVE",
"185 291 CURVE SMOOTH",
"183 583 LINE",
"157 583 LINE",
"158 291 LINE SMOOTH",
"158 198 OFFCURVE",
"157 81 OFFCURVE",
"32 0 CURVE"
);
},
{
closed = 1;
nodes = (
"184 513 OFFCURVE",
"649 615 OFFCURVE",
"648 394 CURVE SMOOTH",
"647 222 OFFCURVE",
"456 71 OFFCURVE",
"176 376 CURVE",
"176 344 LINE",
"473 16 OFFCURVE",
"675 214 OFFCURVE",
"674 395 CURVE SMOOTH",
"672 835 OFFCURVE",
"-93 716 OFFCURVE",
"56 413 CURVE"
);
},
{
closed = 1;
nodes = (
"392 -80 OFFCURVE",
"778 -122 OFFCURVE",
"736 237 CURVE",
"573 101 OFFCURVE",
"404 -12 OFFCURVE",
"339 231 CURVE",
"310 249 LINE"
);
}
);
width = 774;
},
{
associatedMasterId = "7F20675F-B4B1-45FA-B0F6-A97D5A641B97";
layerId = "3D8E2C82-6905-4219-A7F3-962E8A2C61E5";
name = "Feb 25 18, 21:24";
paths = (
{
closed = 1;
nodes = (
"339 0 LINE",
"184 81 OFFCURVE",
"186 198 OFFCURVE",
"185 291 CURVE SMOOTH",
"183 583 LINE",
"157 583 LINE",
"158 291 LINE SMOOTH",
"158 198 OFFCURVE",
"157 81 OFFCURVE",
"32 0 CURVE"
);
},
{
closed = 1;
nodes = (
"184 513 OFFCURVE",
"649 635 OFFCURVE",
"648 414 CURVE SMOOTH",
"647 220 OFFCURVE",
"365 311 OFFCURVE",
"176 371 CURVE",
"176 355 LINE",
"444 7 OFFCURVE",
"675 204 OFFCURVE",
"674 415 CURVE SMOOTH",
"672 825 OFFCURVE",
"-93 716 OFFCURVE",
"56 413 CURVE"
);
},
{
closed = 1;
nodes = (
"392 -80 OFFCURVE",
"778 -122 OFFCURVE",
"736 237 CURVE",
"573 101 OFFCURVE",
"399 9 OFFCURVE",
"334 252 CURVE",
"310 249 LINE"
);
}
);
width = 774;
},
{
associatedMasterId = "7F20675F-B4B1-45FA-B0F6-A97D5A641B97";
layerId = "09174A22-099D-43F7-BE20-C53F3A7C3F41";
name = "Feb 25 18, 21:24";
paths = (
{
closed = 1;
nodes = (
"339 0 LINE",
"184 81 OFFCURVE",
"186 198 OFFCURVE",
"185 291 CURVE SMOOTH",
"183 583 LINE",
"157 583 LINE",
"158 291 LINE SMOOTH",
"158 198 OFFCURVE",
"157 81 OFFCURVE",
"32 0 CURVE"
);
},
{
closed = 1;
nodes = (
"184 506 OFFCURVE",
"625 614 OFFCURVE",
"648 394 CURVE SMOOTH",
"667 216 OFFCURVE",
"456 71 OFFCURVE",
"176 376 CURVE",
"176 344 LINE",
"473 16 OFFCURVE",
"695 213 OFFCURVE",
"674 395 CURVE SMOOTH",
"624 832 OFFCURVE",
"-93 716 OFFCURVE",
"56 413 CURVE"
);
},
{
closed = 1;
nodes = (
"392 -80 OFFCURVE",
"778 -122 OFFCURVE",
"736 237 CURVE",
"573 101 OFFCURVE",
"404 -12 OFFCURVE",
"339 231 CURVE",
"310 249 LINE"
);
}
);
width = 774;
},
{
associatedMasterId = "7F20675F-B4B1-45FA-B0F6-A97D5A641B97";
layerId = "959FBDF5-4343-43D1-8329-99659E9B3DD6";
name = "Feb 25 18, 21:25";
paths = (
{
closed = 1;
nodes = (
"339 0 LINE",
"184 81 OFFCURVE",
"186 198 OFFCURVE",
"185 291 CURVE SMOOTH",
"183 583 LINE",
"157 583 LINE",
"158 291 LINE SMOOTH",
"158 198 OFFCURVE",
"157 81 OFFCURVE",
"32 0 CURVE"
);
},
{
closed = 1;
nodes = (
"184 513 OFFCURVE",
"650 605 OFFCURVE",
"648 414 CURVE SMOOTH",
"647 322 OFFCURVE",
"456 301 OFFCURVE",
"176 376 CURVE",
"176 357 LINE",
"473 29 OFFCURVE",
"675 214 OFFCURVE",
"674 395 CURVE SMOOTH",
"672 835 OFFCURVE",
"-93 716 OFFCURVE",
"56 413 CURVE"
);
},
{
closed = 1;
nodes = (
"392 -80 OFFCURVE",
"778 -122 OFFCURVE",
"736 237 CURVE",
"573 101 OFFCURVE",
"404 -12 OFFCURVE",
"339 231 CURVE",
"310 249 LINE"
);
}
);
width = 774;
},
{
associatedMasterId = "7F20675F-B4B1-45FA-B0F6-A97D5A641B97";
layerId = "56F08E39-CFF0-4105-8DA8-9AFFFF8295FB";
name = "Feb 25 18, 21:27";
paths = (
{
closed = 1;
nodes = (
"339 0 LINE",
"184 81 OFFCURVE",
"186 198 OFFCURVE",
"185 291 CURVE SMOOTH",
"183 583 LINE",
"157 583 LINE",
"158 291 LINE SMOOTH",
"158 198 OFFCURVE",
"157 81 OFFCURVE",
"32 0 CURVE"
);
},
{
closed = 1;
nodes = (
"184 513 OFFCURVE",
"650 605 OFFCURVE",
"648 414 CURVE SMOOTH",
"647 322 OFFCURVE",
"456 301 OFFCURVE",
"176 376 CURVE",
"176 357 LINE",
"473 29 OFFCURVE",
"675 214 OFFCURVE",
"674 395 CURVE SMOOTH",
"672 835 OFFCURVE",
"-93 716 OFFCURVE",
"56 413 CURVE"
);
},
{
closed = 1;
nodes = (
"315 -103 OFFCURVE",
"858 -112 OFFCURVE",
"736 237 CURVE",
"603 81 OFFCURVE",
"375 -22 OFFCURVE",
"429 231 CURVE",
"400 249 LINE"
);
}
);
width = 774;
},
{
associatedMasterId = "7F20675F-B4B1-45FA-B0F6-A97D5A641B97";
layerId = "6F820FAF-46EF-47C3-9869-99F2C8E8FB16";
name = "Feb 26 18, 13:53";
paths = (
{
closed = 1;
nodes = (
"158 170 LINE",
"32 0 LINE",
"339 0 LINE",
"185 170 LINE"
);
},
{
closed = 1;
nodes = (
"154 511 OFFCURVE",
"649 615 OFFCURVE",
"648 394 CURVE SMOOTH",
"647 231 OFFCURVE",
"456 185 OFFCURVE",
"176 255 CURVE",
"176 229 LINE",
"473 137 OFFCURVE",
"675 214 OFFCURVE",
"674 395 CURVE SMOOTH",
"672 835 OFFCURVE",
"-73 716 OFFCURVE",
"56 413 CURVE"
);
},
{
closed = 1;
nodes = (
"392 -120 OFFCURVE",
"765 -72 OFFCURVE",
"736 257 CURVE",
"573 121 OFFCURVE",
"404 -32 OFFCURVE",
"339 211 CURVE",
"310 209 LINE"
);
},
{
closed = 1;
nodes = (
"185 170 LINE",
"183 583 LINE",
"157 583 LINE",
"158 170 LINE"
);
}
);
width = 774;
},
{
associatedMasterId = "7F20675F-B4B1-45FA-B0F6-A97D5A641B97";
layerId = "4ED3576C-601E-4556-8175-EF33D933A9F1";
width = 791;
},
{
associatedMasterId = "7F20675F-B4B1-45FA-B0F6-A97D5A641B97";
layerId = "18F15380-7433-4659-B7B6-6FDA8F67D937";
name = "Apr 3 18, 11:14";
paths = (
{
closed = 1;
nodes = (
"184 635 LINE",
"158 635 LINE",
"154 0 LINE",
"179 0 LINE"
);
},
{
closed = 1;
nodes = (
"180 331 LINE",
"158 331 LINE",
"36 1 LINE",
"36 -1 LINE",
"300 -1 LINE",
"300 1 LINE"
);
},
{
closed = 1;
nodes = (
"44 655 LINE",
"44 654 LINE",
"158 326 LINE",
"179 326 LINE",
"269 653 LINE",
"269 655 LINE"
);
},
{
closed = 1;
nodes = (
"91 631 LINE",
"159 631 OFFCURVE",
"192 631 OFFCURVE",
"330 631 CURVE SMOOTH",
"424 631 OFFCURVE",
"467 563 OFFCURVE",
"467 493 CURVE SMOOTH",
"467 416 OFFCURVE",
"415 335 OFFCURVE",
"320 336 CURVE SMOOTH",
"166 337 LINE",
"166 314 LINE",
"320 314 LINE SMOOTH",
"493 314 OFFCURVE",
"605 349 OFFCURVE",
"605 485 CURVE SMOOTH",
"605 619 OFFCURVE",
"514 655 OFFCURVE",
"360 655 CURVE SMOOTH",
"211 655 OFFCURVE",
"150 655 OFFCURVE",
"91 655 CURVE"
);
},
{
closed = 1;
nodes = (
"348 315 LINE",
"402 315 OFFCURVE",
"445 298 OFFCURVE",
"445 183 CURVE SMOOTH",
"445 27 OFFCURVE",
"506 0 OFFCURVE",
"703 0 CURVE",
"703 11 LINE",
"625 11 OFFCURVE",
"599 37 OFFCURVE",
"599 187 CURVE SMOOTH",
"599 296 OFFCURVE",
"550 327 OFFCURVE",
"348 327 CURVE"
);
}
);
width = 703;
},
{
associatedMasterId = "7F20675F-B4B1-45FA-B0F6-A97D5A641B97";
layerId = "A521EEDC-8E54-4A39-941A-06C44C1BD48F";
paths = (
{
closed = 1;
nodes = (
"216 635 LINE",
"123 635 LINE",
"122 0 LINE",
"214 0 LINE"
);
},
{
closed = 1;
nodes = (
"177 103 LINE",
"162 103 LINE",
"38 16 LINE",
"38 -1 LINE",
"298 -1 LINE",
"298 16 LINE"
);
},
{
closed = 1;
nodes = (
"42 655 LINE",
"42 640 LINE",
"161 544 LINE",
"176 544 LINE",
"216 640 LINE",
"216 655 LINE"
);
},
{
closed = 1;
nodes = (
"91 632 LINE",
"159 632 OFFCURVE",
"235 632 OFFCURVE",
"373 632 CURVE SMOOTH",
"467 632 OFFCURVE",
"510 555 OFFCURVE",
"510 485 CURVE SMOOTH",
"510 408 OFFCURVE",
"458 327 OFFCURVE",
"363 328 CURVE SMOOTH",
"166 329 LINE",
"166 307 LINE",
"350 307 LINE SMOOTH",
"523 307 OFFCURVE",
"635 354 OFFCURVE",
"635 477 CURVE SMOOTH",
"635 611 OFFCURVE",
"544 655 OFFCURVE",
"390 655 CURVE SMOOTH",
"241 655 OFFCURVE",
"150 655 OFFCURVE",
"91 655 CURVE"
);
},
{
closed = 1;
nodes = (
"348 307 LINE",
"456 307 LINE SMOOTH",
"633 309 OFFCURVE",
"541 235 OFFCURVE",
"494 150 CURVE SMOOTH",
"430 63 OFFCURVE",
"527 0 OFFCURVE",
"693 0 CURVE",
"693 21 LINE",
"574 21 OFFCURVE",
"645 36 OFFCURVE",
"645 186 CURVE SMOOTH",
"645 286 OFFCURVE",
"591 328 OFFCURVE",
"456 328 CURVE SMOOTH",
"348 328 LINE"
);
}
);
width = 728;
}
);
unicode = 0052;
},
{
glyphname = S;
lastChange = "2018-04-11 20:05:19 +0000";
layers = (
{
layerId = "7F20675F-B4B1-45FA-B0F6-A97D5A641B97";
paths = (
{
closed = 1;
nodes = (
"469 -19 OFFCURVE",
"613 44 OFFCURVE",
"613 182 CURVE SMOOTH",
"613 280 OFFCURVE",
"545 290 OFFCURVE",
"333 326 CURVE SMOOTH",
"178 352 OFFCURVE",
"62 378 OFFCURVE",
"62 459 CURVE SMOOTH",
"62 502 OFFCURVE",
"128 541 OFFCURVE",
"237 541 CURVE SMOOTH",
"351 541 OFFCURVE",
"456 511 OFFCURVE",
"569 417 CURVE",
"572 419 LINE",
"626 586 OFFCURVE",
"493 674 OFFCURVE",
"313 674 CURVE SMOOTH",
"165 674 OFFCURVE",
"38 622 OFFCURVE",
"38 473 CURVE SMOOTH",
"38 399 OFFCURVE",
"65 341 OFFCURVE",
"333 297 CURVE SMOOTH",
"427 282 OFFCURVE",
"585 281 OFFCURVE",
"585 198 CURVE SMOOTH",
"585 143 OFFCURVE",
"523 123 OFFCURVE",
"416 123 CURVE SMOOTH",
"318 123 OFFCURVE",
"143 151 OFFCURVE",
"43 224 CURVE",
"38 224 LINE",
"14 38 OFFCURVE",
"150 -19 OFFCURVE",
"323 -19 CURVE SMOOTH"
);
}
);
width = 648;
},
{
layerId = "1195BCD1-8D25-4D5E-8C85-FC733C7A5356";
paths = (
{
closed = 1;
nodes = (
"440 -16 OFFCURVE",
"599 40 OFFCURVE",
"599 183 CURVE SMOOTH",
"599 281 OFFCURVE",
"554 376 OFFCURVE",
"343 420 CURVE SMOOTH",
"200 449 OFFCURVE",
"116 467 OFFCURVE",
"116 545 CURVE SMOOTH",
"116 620 OFFCURVE",
"221 651 OFFCURVE",
"298 651 CURVE SMOOTH",
"422 651 OFFCURVE",
"567 602 OFFCURVE",
"530 428 CURVE",
"554 428 LINE",
"590 560 OFFCURVE",
"498 684 OFFCURVE",
"298 684 CURVE SMOOTH",
"153 684 OFFCURVE",
"35 601 OFFCURVE",
"35 490 CURVE SMOOTH",
"35 422 OFFCURVE",
"51 305 OFFCURVE",
"290 261 CURVE SMOOTH",
"399 242 OFFCURVE",
"513 224 OFFCURVE",
"513 144 CURVE SMOOTH",
"513 49 OFFCURVE",
"450 15 OFFCURVE",
"327 15 CURVE SMOOTH",
"224 15 OFFCURVE",
"59 28 OFFCURVE",
"82 236 CURVE",
"58 236 LINE",
"30 51 OFFCURVE",
"173 -16 OFFCURVE",
"316 -16 CURVE SMOOTH"
);
}
);
width = 634;
},
{
associatedMasterId = "7F20675F-B4B1-45FA-B0F6-A97D5A641B97";
layerId = "60AC32C1-B28A-41CE-9C20-4315F304F186";
name = "Feb 15 18, 18:46";
paths = (
{
closed = 1;
nodes = (
"567 610 LINE",
"505 661 OFFCURVE",
"429 682 OFFCURVE",
"290 682 CURVE SMOOTH",
"144 682 OFFCURVE",
"35 614 OFFCURVE",
"35 503 CURVE SMOOTH",
"35 415 OFFCURVE",
"26 347 OFFCURVE",
"329 297 CURVE SMOOTH",
"426 281 OFFCURVE",
"591 274 OFFCURVE",
"580 182 CURVE SMOOTH",
"574 132 OFFCURVE",
"515 103 OFFCURVE",
"432 103 CURVE SMOOTH",
"262 103 OFFCURVE",
"135 152 OFFCURVE",
"35 217 CURVE",
"35 51 LINE",
"149 -6 OFFCURVE",
"249 -16 OFFCURVE",
"352 -16 CURVE SMOOTH",
"493 -16 OFFCURVE",
"609 33 OFFCURVE",
"609 182 CURVE SMOOTH",
"609 280 OFFCURVE",
"541 290 OFFCURVE",
"329 326 CURVE SMOOTH",
"174 352 OFFCURVE",
"59 380 OFFCURVE",
"65 459 CURVE SMOOTH",
"68 500 OFFCURVE",
"157 536 OFFCURVE",
"219 536 CURVE SMOOTH",
"367 536 OFFCURVE",
"500 490 OFFCURVE",
"567 436 CURVE"
);
}
);
width = 644;
},
{
associatedMasterId = "7F20675F-B4B1-45FA-B0F6-A97D5A641B97";
guideLines = (
{
position = "{116, 436}";
}
);
layerId = "537121F5-9A99-457A-97C4-0F1C6363581A";
name = "Feb 15 18, 18:50";
paths = (
{
closed = 1;
nodes = (
"651 794 OFFCURVE",
"65 716 OFFCURVE",
"45 503 CURVE SMOOTH",
"37 416 OFFCURVE",
"36 347 OFFCURVE",
"329 297 CURVE SMOOTH",
"426 280 OFFCURVE",
"591 274 OFFCURVE",
"580 182 CURVE",
"393 63 OFFCURVE",
"195 113 OFFCURVE",
"35 217 CURVE",
"4 -136 OFFCURVE",
"609 -51 OFFCURVE",
"609 182 CURVE SMOOTH",
"609 280 OFFCURVE",
"541 288 OFFCURVE",
"329 326 CURVE SMOOTH",
"184 352 OFFCURVE",
"85 380 OFFCURVE",
"75 439 CURVE",
"204 562 OFFCURVE",
"429 568 OFFCURVE",
"567 456 CURVE"
);
}
);
width = 644;
},
{
associatedMasterId = "7F20675F-B4B1-45FA-B0F6-A97D5A641B97";
guideLines = (
{
position = "{116, 436}";
}
);
layerId = "C4E27A5C-BADD-41BE-BD5C-E5D4FDC20E4D";
name = "Feb 16 18, 15:00";
paths = (
{
closed = 1;
nodes = (
"567 610 LINE",
"505 661 OFFCURVE",
"429 682 OFFCURVE",
"290 682 CURVE SMOOTH",
"144 682 OFFCURVE",
"35 614 OFFCURVE",
"35 503 CURVE SMOOTH",
"35 415 OFFCURVE",
"26 347 OFFCURVE",
"329 297 CURVE SMOOTH",
"426 281 OFFCURVE",
"591 274 OFFCURVE",
"580 182 CURVE SMOOTH",
"574 132 OFFCURVE",
"515 123 OFFCURVE",
"432 123 CURVE SMOOTH",
"262 123 OFFCURVE",
"135 152 OFFCURVE",
"35 217 CURVE",
"35 51 LINE",
"149 -6 OFFCURVE",
"249 -16 OFFCURVE",
"352 -16 CURVE SMOOTH",
"493 -16 OFFCURVE",
"609 33 OFFCURVE",
"609 182 CURVE SMOOTH",
"609 280 OFFCURVE",
"541 290 OFFCURVE",
"329 326 CURVE SMOOTH",
"174 352 OFFCURVE",
"59 380 OFFCURVE",
"65 459 CURVE SMOOTH",
"68 500 OFFCURVE",
"117 562 OFFCURVE",
"219 562 CURVE SMOOTH",
"377 562 OFFCURVE",
"500 490 OFFCURVE",
"567 436 CURVE"
);
}
);
width = 644;
},
{
associatedMasterId = "7F20675F-B4B1-45FA-B0F6-A97D5A641B97";
guideLines = (
{
position = "{116, 436}";
}
);
layerId = "41639CEB-0F97-42FC-9C75-E2C4D68D5616";
name = "Feb 25 18, 23:11";
paths = (
{
closed = 1;
nodes = (
"681 746 OFFCURVE",
"46 763 OFFCURVE",
"35 503 CURVE SMOOTH",
"31 415 OFFCURVE",
"26 347 OFFCURVE",
"329 297 CURVE SMOOTH",
"426 281 OFFCURVE",
"591 274 OFFCURVE",
"580 182 CURVE SMOOTH",
"574 132 OFFCURVE",
"525 123 OFFCURVE",
"442 123 CURVE SMOOTH",
"272 123 OFFCURVE",
"135 152 OFFCURVE",
"35 217 CURVE",
"-88 -52 OFFCURVE",
"609 -121 OFFCURVE",
"609 182 CURVE SMOOTH",
"609 280 OFFCURVE",
"541 290 OFFCURVE",
"329 326 CURVE SMOOTH",
"174 352 OFFCURVE",
"58 378 OFFCURVE",
"58 459 CURVE SMOOTH",
"58 589 OFFCURVE",
"403 548 OFFCURVE",
"567 416 CURVE"
);
}
);
width = 644;
},
{
associatedMasterId = "7F20675F-B4B1-45FA-B0F6-A97D5A641B97";
guideLines = (
{
position = "{116, 436}";
}
);
layerId = "AF340A0E-22D2-4E35-82AD-1B52A208B6EE";
name = "Feb 25 18, 23:15";
paths = (
{
closed = 1;
nodes = (
"517 682 LINE",
"35 534 LINE",
"31 403 OFFCURVE",
"13 341 OFFCURVE",
"329 297 CURVE SMOOTH",
"426 283 OFFCURVE",
"591 264 OFFCURVE",
"580 172 CURVE",
"35 210 LINE",
"96 -16 LINE",
"609 152 LINE",
"609 271 OFFCURVE",
"541 290 OFFCURVE",
"329 326 CURVE SMOOTH",
"174 352 OFFCURVE",
"38 361 OFFCURVE",
"58 507 CURVE",
"567 478 LINE"
);
}
);
width = 644;
},
{
associatedMasterId = "7F20675F-B4B1-45FA-B0F6-A97D5A641B97";
layerId = "4ED3576C-601E-4556-8175-EF33D933A9F1";
paths = (
{
closed = 1;
nodes = (
"448 -20 OFFCURVE",
"602 41 OFFCURVE",
"602 183 CURVE SMOOTH",
"602 281 OFFCURVE",
"550 347 OFFCURVE",
"338 389 CURVE SMOOTH",
"191 417 OFFCURVE",
"97 437 OFFCURVE",
"97 516 CURVE SMOOTH",
"97 581 OFFCURVE",
"186 608 OFFCURVE",
"263 608 CURVE SMOOTH",
"384 608 OFFCURVE",
"534 562 OFFCURVE",
"542 424 CURVE",
"559 425 LINE",
"601 569 OFFCURVE",
"495 683 OFFCURVE",
"302 683 CURVE SMOOTH",
"156 683 OFFCURVE",
"35 608 OFFCURVE",
"35 484 CURVE SMOOTH",
"35 414 OFFCURVE",
"54 317 OFFCURVE",
"303 273 CURVE SMOOTH",
"407 255 OFFCURVE",
"536 243 OFFCURVE",
"536 162 CURVE SMOOTH",
"536 79 OFFCURVE",
"476 49 OFFCURVE",
"365 49 CURVE SMOOTH",
"227 49 OFFCURVE",
"80 72 OFFCURVE",
"61 229 CURVE",
"43 229 LINE",
"4 59 OFFCURVE",
"151 -20 OFFCURVE",
"317 -20 CURVE SMOOTH"
);
}
);
width = 637;
},
{
associatedMasterId = "7F20675F-B4B1-45FA-B0F6-A97D5A641B97";
layerId = "A521EEDC-8E54-4A39-941A-06C44C1BD48F";
paths = (
{
closed = 1;
nodes = (
"450 -17 OFFCURVE",
"604 41 OFFCURVE",
"604 183 CURVE SMOOTH",
"604 281 OFFCURVE",
"551 347 OFFCURVE",
"340 389 CURVE SMOOTH",
"193 417 OFFCURVE",
"98 437 OFFCURVE",
"98 516 CURVE SMOOTH",
"98 581 OFFCURVE",
"190 614 OFFCURVE",
"278 614 CURVE SMOOTH",
"398 614 OFFCURVE",
"530 572 OFFCURVE",
"543 424 CURVE",
"560 425 LINE",
"602 569 OFFCURVE",
"496 681 OFFCURVE",
"303 681 CURVE SMOOTH",
"157 681 OFFCURVE",
"36 608 OFFCURVE",
"36 484 CURVE SMOOTH",
"36 414 OFFCURVE",
"56 317 OFFCURVE",
"304 273 CURVE SMOOTH",
"408 255 OFFCURVE",
"537 243 OFFCURVE",
"537 162 CURVE SMOOTH",
"537 80 OFFCURVE",
"474 51 OFFCURVE",
"357 51 CURVE SMOOTH",
"255 51 OFFCURVE",
"87 69 OFFCURVE",
"69 232 CURVE",
"51 232 LINE",
"25 47 OFFCURVE",
"165 -17 OFFCURVE",
"318 -17 CURVE SMOOTH"
);
}
);
width = 639;
}
);
unicode = 0053;
},
{
glyphname = T;
lastChange = "2018-04-11 20:05:19 +0000";
layers = (
{
layerId = "7F20675F-B4B1-45FA-B0F6-A97D5A641B97";
paths = (
{
closed = 1;
nodes = (
"359 655 LINE",
"342 655 LINE",
"339 0 LINE",
"356 0 LINE"
);
},
{
closed = 1;
nodes = (
"358 263 LINE",
"341 263 LINE",
"223 1 LINE",
"223 -1 LINE",
"473 -1 LINE",
"473 1 LINE"
);
},
{
closed = 1;
nodes = (
"429 636 LINE",
"665 379 LINE",
"665 655 LINE",
"429 655 LINE"
);
},
{
closed = 1;
nodes = (
"274 655 LINE",
"35 655 LINE",
"35 379 LINE",
"274 636 LINE"
);
},
{
closed = 1;
nodes = (
"44 635 LINE",
"650 635 LINE",
"650 655 LINE",
"44 655 LINE"
);
},
{
closed = 1;
nodes = (
"429 636 LINE",
"664 369 LINE",
"665 369 LINE",
"665 655 LINE",
"429 655 LINE"
);
},
{
closed = 1;
nodes = (
"274 655 LINE",
"35 655 LINE",
"35 369 LINE",
"36 369 LINE",
"274 636 LINE"
);
}
);
width = 700;
},
{
layerId = "1195BCD1-8D25-4D5E-8C85-FC733C7A5356";
paths = (
{
closed = 1;
nodes = (
"413 655 LINE",
"282 655 LINE",
"283 0 LINE",
"413 0 LINE"
);
},
{
closed = 1;
nodes = (
"358 23 LINE",
"341 23 LINE",
"216 23 LINE",
"216 -1 LINE",
"480 -1 LINE",
"480 23 LINE"
);
},
{
closed = 1;
nodes = (
"507 636 LINE",
"665 429 LINE",
"665 655 LINE",
"507 655 LINE"
);
},
{
closed = 1;
nodes = (
"194 655 LINE",
"35 655 LINE",
"35 429 LINE",
"194 636 LINE"
);
},
{
closed = 1;
nodes = (
"44 635 LINE",
"650 635 LINE",
"650 655 LINE",
"44 655 LINE"
);
},
{
closed = 1;
nodes = (
"357 631 LINE",
"664 633 LINE",
"665 430 LINE",
"665 655 LINE",
"357 655 LINE"
);
},
{
closed = 1;
nodes = (
"344 655 LINE",
"35 655 LINE",
"35 430 LINE",
"36 633 LINE",
"344 631 LINE"
);
}
);
width = 700;
},
{
associatedMasterId = "7F20675F-B4B1-45FA-B0F6-A97D5A641B97";
layerId = "FD205399-6086-4720-B568-70860481F3C7";
name = "Feb 24 18, 10:48";
paths = (
{
closed = 1;
nodes = (
"310 340 LINE",
"314 655 LINE",
"340 655 LINE",
"333 340 LINE",
"417 0 LINE",
"235 0 LINE"
);
},
{
closed = 1;
nodes = (
"615 655 LINE",
"615 446 LINE",
"327 631 LINE",
"35 446 LINE",
"35 655 LINE"
);
}
);
width = 650;
},
{
associatedMasterId = "7F20675F-B4B1-45FA-B0F6-A97D5A641B97";
layerId = "B4B52C31-BE94-46C0-9231-FB1530953717";
name = "Feb 24 18, 11:03";
paths = (
{
closed = 1;
nodes = (
"250 113 OFFCURVE",
"310 187 OFFCURVE",
"310 340 CURVE",
"314 655 LINE",
"340 655 LINE",
"333 340 LINE",
"333 187 OFFCURVE",
"389 113 OFFCURVE",
"487 0 CURVE",
"165 0 LINE"
);
},
{
closed = 1;
nodes = (
"615 655 LINE",
"615 446 LINE",
"327 631 LINE",
"35 446 LINE",
"35 655 LINE"
);
}
);
width = 650;
},
{
associatedMasterId = "7F20675F-B4B1-45FA-B0F6-A97D5A641B97";
layerId = "D62F4736-9F2E-4920-B243-C5B8E0F5E37B";
name = "Feb 26 18, 12:05";
paths = (
{
closed = 1;
nodes = (
"360 655 LINE",
"334 655 LINE",
"330 189 LINE",
"353 189 LINE"
);
},
{
closed = 1;
nodes = (
"35 418 LINE",
"347 631 LINE",
"655 418 LINE",
"655 655 LINE",
"35 655 LINE"
);
},
{
closed = 1;
nodes = (
"185 0 LINE",
"507 0 LINE",
"353 189 LINE",
"330 189 LINE"
);
}
);
width = 690;
},
{
associatedMasterId = "7F20675F-B4B1-45FA-B0F6-A97D5A641B97";
layerId = "E80681D0-FE77-433E-B681-A0DB6403AC23";
name = "Mar 4 18, 21:17";
paths = (
{
closed = 1;
nodes = (
"360 655 LINE",
"334 655 LINE",
"330 189 LINE",
"353 189 LINE"
);
},
{
closed = 1;
nodes = (
"35 418 LINE",
"128 502 OFFCURVE",
"232 573 OFFCURVE",
"347 631 CURVE",
"454 578 OFFCURVE",
"556 507 OFFCURVE",
"655 418 CURVE",
"655 655 LINE",
"35 655 LINE"
);
},
{
closed = 1;
nodes = (
"303 185 OFFCURVE",
"267 99 OFFCURVE",
"216 0 CURVE",
"472 0 LINE",
"420 99 OFFCURVE",
"383 185 OFFCURVE",
"354 277 CURVE",
"331 277 LINE"
);
}
);
width = 690;
},
{
associatedMasterId = "7F20675F-B4B1-45FA-B0F6-A97D5A641B97";
layerId = "4ED3576C-601E-4556-8175-EF33D933A9F1";
paths = (
{
closed = 1;
nodes = (
"397 655 LINE",
"297 655 LINE",
"293 63 LINE",
"392 65 LINE"
);
},
{
closed = 1;
nodes = (
"35 554 LINE",
"131 580 OFFCURVE",
"235 604 OFFCURVE",
"347 625 CURVE",
"452 605 OFFCURVE",
"554 582 OFFCURVE",
"655 554 CURVE",
"655 655 LINE",
"35 655 LINE"
);
},
{
closed = 1;
nodes = (
"302 187 OFFCURVE",
"304 101 OFFCURVE",
"255 0 CURVE",
"431 1 LINE",
"381 102 OFFCURVE",
"388 187 OFFCURVE",
"357 277 CURVE",
"332 277 LINE"
);
}
);
width = 690;
},
{
associatedMasterId = "1195BCD1-8D25-4D5E-8C85-FC733C7A5356";
layerId = "5AC4358B-2211-4976-BA1C-0A3ADE1C00C7";
name = "Mar 7 18, 16:42";
paths = (
{
closed = 1;
nodes = (
"415 655 LINE",
"279 655 LINE",
"275 0 LINE",
"410 2 LINE"
);
},
{
closed = 1;
nodes = (
"35 622 LINE",
"131 622 OFFCURVE",
"235 622 OFFCURVE",
"347 622 CURVE",
"452 622 OFFCURVE",
"554 622 OFFCURVE",
"655 622 CURVE",
"655 655 LINE",
"35 655 LINE"
);
},
{
closed = 1;
nodes = (
"302 187 OFFCURVE",
"301 101 OFFCURVE",
"252 0 CURVE",
"435 2 LINE",
"385 103 OFFCURVE",
"389 187 OFFCURVE",
"358 277 CURVE",
"332 277 LINE"
);
}
);
width = 690;
},
{
associatedMasterId = "1195BCD1-8D25-4D5E-8C85-FC733C7A5356";
layerId = "D480E099-132A-433A-A0D5-02A233F7F07B";
name = "Mar 7 18, 16:42";
paths = (
{
closed = 1;
nodes = (
"415 655 LINE",
"279 655 LINE",
"275 0 LINE",
"410 2 LINE"
);
},
{
closed = 1;
nodes = (
"35 622 LINE",
"131 622 OFFCURVE",
"235 622 OFFCURVE",
"347 622 CURVE",
"452 622 OFFCURVE",
"554 622 OFFCURVE",
"655 622 CURVE",
"655 655 LINE",
"35 655 LINE"
);
},
{
closed = 1;
nodes = (
"302 187 OFFCURVE",
"301 101 OFFCURVE",
"252 0 CURVE",
"435 2 LINE",
"385 103 OFFCURVE",
"389 187 OFFCURVE",
"358 277 CURVE",
"332 277 LINE"
);
}
);
width = 690;
},
{
associatedMasterId = "1195BCD1-8D25-4D5E-8C85-FC733C7A5356";
layerId = "01AA8E24-1E95-4D2B-B5B6-D20339CBB496";
name = "Mar 7 18, 16:46";
paths = (
{
closed = 1;
nodes = (
"426 655 LINE",
"257 655 LINE",
"330 238 LINE",
"355 240 LINE"
);
},
{
closed = 1;
nodes = (
"35 631 LINE",
"131 631 OFFCURVE",
"235 631 OFFCURVE",
"347 631 CURVE",
"452 631 OFFCURVE",
"554 631 OFFCURVE",
"655 631 CURVE",
"655 655 LINE",
"35 655 LINE"
);
},
{
closed = 1;
nodes = (
"331 235 OFFCURVE",
"327 121 OFFCURVE",
"327 0 CURVE",
"355 0 LINE",
"355 142 OFFCURVE",
"356 237 OFFCURVE",
"356 326 CURVE",
"331 326 LINE"
);
}
);
width = 690;
},
{
associatedMasterId = "7F20675F-B4B1-45FA-B0F6-A97D5A641B97";
layerId = "F75721BA-69C8-430B-B458-ACAF0EB33599";
name = "Apr 5 18, 16:24";
paths = (
{
closed = 1;
nodes = (
"359 655 LINE",
"342 655 LINE",
"339 0 LINE",
"356 0 LINE"
);
},
{
closed = 1;
nodes = (
"358 263 LINE",
"341 263 LINE",
"223 1 LINE",
"223 -1 LINE",
"473 -1 LINE",
"473 1 LINE"
);
},
{
closed = 1;
nodes = (
"357 631 LINE",
"665 379 LINE",
"665 655 LINE",
"357 655 LINE"
);
},
{
closed = 1;
nodes = (
"344 655 LINE",
"35 655 LINE",
"35 379 LINE",
"344 631 LINE"
);
},
{
closed = 1;
nodes = (
"44 635 LINE",
"650 635 LINE",
"650 655 LINE",
"44 655 LINE"
);
},
{
closed = 1;
nodes = (
"357 631 LINE",
"664 369 LINE",
"665 369 LINE",
"665 655 LINE",
"357 655 LINE"
);
},
{
closed = 1;
nodes = (
"344 655 LINE",
"35 655 LINE",
"35 369 LINE",
"36 369 LINE",
"344 631 LINE"
);
}
);
width = 700;
},
{
associatedMasterId = "7F20675F-B4B1-45FA-B0F6-A97D5A641B97";
layerId = "A521EEDC-8E54-4A39-941A-06C44C1BD48F";
paths = (
{
closed = 1;
nodes = (
"395 655 LINE",
"302 655 LINE",
"302 0 LINE",
"394 0 LINE"
);
},
{
closed = 1;
nodes = (
"358 103 LINE",
"341 103 LINE",
"218 16 LINE",
"218 -1 LINE",
"478 -1 LINE",
"478 16 LINE"
);
},
{
closed = 1;
nodes = (
"481 636 LINE",
"665 412 LINE",
"665 655 LINE",
"481 655 LINE"
);
},
{
closed = 1;
nodes = (
"221 655 LINE",
"35 655 LINE",
"35 412 LINE",
"221 636 LINE"
);
},
{
closed = 1;
nodes = (
"44 635 LINE",
"650 635 LINE",
"650 655 LINE",
"44 655 LINE"
);
},
{
closed = 1;
nodes = (
"381 633 LINE",
"664 545 LINE",
"665 410 LINE",
"665 655 LINE",
"381 655 LINE"
);
},
{
closed = 1;
nodes = (
"321 655 LINE",
"35 655 LINE",
"35 410 LINE",
"36 545 LINE",
"321 633 LINE"
);
}
);
width = 700;
}
);
unicode = 0054;
},
{
glyphname = U;
lastChange = "2018-04-11 20:05:19 +0000";
layers = (
{
layerId = "7F20675F-B4B1-45FA-B0F6-A97D5A641B97";
paths = (
{
closed = 1;
nodes = (
"156 654 LINE",
"156 475 OFFCURVE",
"157 417 OFFCURVE",
"156 323 CURVE SMOOTH",
"155 220 OFFCURVE",
"228 151 OFFCURVE",
"375 151 CURVE SMOOTH",
"559 151 OFFCURVE",
"593 220 OFFCURVE",
"593 323 CURVE SMOOTH",
"593 654 LINE",
"613 654 LINE",
"613 263 LINE SMOOTH",
"613 102 OFFCURVE",
"582 -19 OFFCURVE",
"375 -19 CURVE SMOOTH",
"207 -19 OFFCURVE",
"136 102 OFFCURVE",
"136 263 CURVE SMOOTH",
"136 654 LINE"
);
},
{
closed = 1;
nodes = (
"27 655 LINE",
"277 655 LINE",
"277 653 LINE",
"157 369 LINE",
"137 369 LINE",
"27 653 LINE"
);
},
{
closed = 1;
nodes = (
"473 655 LINE",
"723 655 LINE",
"723 651 LINE",
"613 369 LINE",
"593 369 LINE",
"473 651 LINE"
);
}
);
width = 750;
},
{
layerId = "1195BCD1-8D25-4D5E-8C85-FC733C7A5356";
paths = (
{
closed = 1;
nodes = (
"164 654 LINE",
"164 475 OFFCURVE",
"164 321 OFFCURVE",
"164 227 CURVE SMOOTH",
"164 53 OFFCURVE",
"279 11 OFFCURVE",
"335 11 CURVE SMOOTH",
"439 11 OFFCURVE",
"507 74 OFFCURVE",
"507 267 CURVE SMOOTH",
"507 654 LINE",
"654 654 LINE",
"654 231 LINE SMOOTH",
"654 50 OFFCURVE",
"537 -17 OFFCURVE",
"350 -17 CURVE SMOOTH",
"192 -17 OFFCURVE",
"134 96 OFFCURVE",
"134 232 CURVE SMOOTH",
"134 654 LINE"
);
},
{
closed = 1;
nodes = (
"35 655 LINE",
"269 655 LINE",
"269 633 LINE",
"159 633 LINE",
"137 633 LINE",
"35 633 LINE"
);
},
{
closed = 1;
nodes = (
"431 655 LINE",
"725 655 LINE",
"725 633 LINE",
"585 633 LINE",
"563 633 LINE",
"431 633 LINE"
);
}
);
width = 760;
},
{
associatedMasterId = "7F20675F-B4B1-45FA-B0F6-A97D5A641B97";
layerId = "4ED3576C-601E-4556-8175-EF33D933A9F1";
width = 754;
},
{
associatedMasterId = "7F20675F-B4B1-45FA-B0F6-A97D5A641B97";
layerId = "8BDC07C1-998F-4A47-B821-C37175A0B3B7";
name = "Apr 5 18, 10:29";
paths = (
{
closed = 1;
nodes = (
"56 1023 OFFCURVE",
"-165 -27 OFFCURVE",
"333 -27 CURVE",
"333 131 LINE",
"6 131 OFFCURVE",
"-74 469 OFFCURVE",
"313 537 CURVE"
);
},
{
closed = 1;
nodes = (
"333 -27 LINE",
"875 -27 OFFCURVE",
"613 1025 OFFCURVE",
"367 537 CURVE",
"765 472 OFFCURVE",
"690 131 OFFCURVE",
"333 131 CURVE"
);
}
);
width = 686;
},
{
associatedMasterId = "7F20675F-B4B1-45FA-B0F6-A97D5A641B97";
layerId = "A521EEDC-8E54-4A39-941A-06C44C1BD48F";
paths = (
{
closed = 1;
nodes = (
"161 654 LINE",
"161 475 OFFCURVE",
"162 353 OFFCURVE",
"161 259 CURVE SMOOTH",
"161 109 OFFCURVE",
"262 58 OFFCURVE",
"348 58 CURVE SMOOTH",
"479 58 OFFCURVE",
"536 123 OFFCURVE",
"536 286 CURVE SMOOTH",
"536 654 LINE",
"640 654 LINE",
"640 242 LINE SMOOTH",
"640 67 OFFCURVE",
"552 -18 OFFCURVE",
"358 -18 CURVE SMOOTH",
"197 -18 OFFCURVE",
"135 98 OFFCURVE",
"135 242 CURVE SMOOTH",
"135 654 LINE"
);
},
{
closed = 1;
nodes = (
"32 655 LINE",
"272 655 LINE",
"272 640 LINE",
"158 545 LINE",
"137 545 LINE",
"32 640 LINE"
);
},
{
closed = 1;
nodes = (
"445 655 LINE",
"724 655 LINE",
"724 639 LINE",
"594 545 LINE",
"573 545 LINE",
"445 639 LINE"
);
}
);
width = 757;
}
);
unicode = 0055;
},
{
glyphname = V;
lastChange = "2018-04-11 20:05:19 +0000";
layers = (
{
layerId = "7F20675F-B4B1-45FA-B0F6-A97D5A641B97";
paths = (
{
closed = 1;
nodes = (
"384 0 LINE",
"406 0 LINE",
"57 655 LINE",
"35 655 LINE"
);
},
{
closed = 1;
nodes = (
"555 287 LINE",
"545 287 LINE",
"292 173 LINE",
"393 0 LINE"
);
},
{
closed = 1;
nodes = (
"504 655 LINE",
"504 653 LINE",
"601 392 LINE",
"620 392 LINE",
"772 654 LINE",
"772 655 LINE"
);
},
{
closed = 1;
nodes = (
"176 392 LINE",
"197 392 LINE",
"297 653 LINE",
"297 655 LINE",
"37 655 LINE",
"37 653 LINE"
);
},
{
closed = 1;
nodes = (
"742 655 LINE",
"383 0 LINE",
"406 0 LINE",
"764 655 LINE"
);
}
);
width = 807;
},
{
layerId = "1195BCD1-8D25-4D5E-8C85-FC733C7A5356";
paths = (
{
closed = 1;
nodes = (
"392 0 LINE",
"414 0 LINE",
"165 655 LINE",
"143 655 LINE"
);
},
{
closed = 1;
nodes = (
"603 467 LINE",
"593 467 LINE",
"475 192 LINE",
"483 180 LINE"
);
},
{
closed = 1;
nodes = (
"492 655 LINE",
"492 633 LINE",
"620 633 LINE",
"639 633 LINE",
"760 633 LINE",
"760 655 LINE"
);
},
{
closed = 1;
nodes = (
"152 633 LINE",
"173 633 LINE",
"295 633 LINE",
"295 655 LINE",
"35 655 LINE",
"35 633 LINE"
);
},
{
closed = 1;
nodes = (
"568 655 LINE",
"350 160 LINE",
"414 0 LINE",
"711 655 LINE"
);
}
);
width = 795;
},
{
associatedMasterId = "7F20675F-B4B1-45FA-B0F6-A97D5A641B97";
layerId = "2C5981D7-D5AE-4D0A-A65A-3ADA2BE9618F";
name = "Feb 15 18, 17:43";
paths = (
{
closed = 1;
nodes = (
"190 655 LINE",
"401 215 LINE",
"616 655 LINE",
"675 655 LINE",
"361 0 LINE",
"352 0 LINE",
"353 1 LINE",
"35 655 LINE"
);
},
{
closed = 1;
nodes = (
"532 544 OFFCURVE",
"497 599 OFFCURVE",
"465 655 CURVE",
"633 655 LINE",
"544 488 LINE"
);
}
);
width = 710;
},
{
associatedMasterId = "7F20675F-B4B1-45FA-B0F6-A97D5A641B97";
layerId = "AB6A7EA5-3D63-4825-92B4-C12D8C7AC45C";
name = "Feb 15 18, 17:43";
paths = (
{
closed = 1;
nodes = (
"243 655 LINE",
"243 337 LINE",
"399 200 LINE",
"616 655 LINE",
"675 655 LINE",
"361 0 LINE",
"352 0 LINE",
"353 1 LINE",
"35 655 LINE"
);
},
{
closed = 1;
nodes = (
"532 544 OFFCURVE",
"497 599 OFFCURVE",
"465 655 CURVE",
"633 655 LINE",
"544 488 LINE"
);
}
);
width = 710;
},
{
associatedMasterId = "7F20675F-B4B1-45FA-B0F6-A97D5A641B97";
layerId = "9BFE06DD-4A7F-4F31-A854-F979AE3559A9";
name = "Feb 16 18, 16:04";
paths = (
{
closed = 1;
nodes = (
"190 655 LINE",
"419 170 LINE",
"653 655 LINE",
"675 655 LINE",
"361 0 LINE",
"352 0 LINE",
"353 1 LINE",
"35 655 LINE"
);
},
{
closed = 1;
nodes = (
"562 544 OFFCURVE",
"527 599 OFFCURVE",
"465 655 CURVE",
"663 655 LINE",
"574 488 LINE"
);
}
);
width = 710;
},
{
associatedMasterId = "7F20675F-B4B1-45FA-B0F6-A97D5A641B97";
layerId = "3F93DFDE-EE96-4795-8957-A06EF6F146AE";
name = "Feb 16 18, 17:12";
paths = (
{
closed = 1;
nodes = (
"190 655 LINE",
"419 170 LINE",
"653 655 LINE",
"675 655 LINE",
"361 0 LINE",
"352 0 LINE",
"353 1 LINE",
"35 655 LINE"
);
},
{
closed = 1;
nodes = (
"562 544 OFFCURVE",
"527 599 OFFCURVE",
"465 655 CURVE",
"663 655 LINE",
"574 488 LINE"
);
}
);
width = 710;
},
{
associatedMasterId = "7F20675F-B4B1-45FA-B0F6-A97D5A641B97";
layerId = "BA01451D-E71C-4659-BFD4-E3FBD979AD47";
name = "Feb 17 18, 19:14";
paths = (
{
closed = 1;
nodes = (
"357 1 LINE",
"358 0 LINE",
"349 0 LINE",
"35 655 LINE",
"274 655 LINE",
"158 448 LINE",
"291 170 LINE",
"520 655 LINE",
"675 655 LINE"
);
}
);
width = 710;
},
{
associatedMasterId = "7F20675F-B4B1-45FA-B0F6-A97D5A641B97";
layerId = "3E90D71E-220C-42FB-BDA6-E20D333C178C";
name = "Feb 25 18, 23:39";
paths = (
{
closed = 1;
nodes = (
"938 799 OFFCURVE",
"664 222 OFFCURVE",
"367 -16 CURVE",
"35 655 LINE",
"337 655 LINE",
"181 418 LINE",
"310 158 LINE",
"771 215 OFFCURVE",
"611 540 OFFCURVE",
"443 658 CURVE"
);
}
);
width = 738;
},
{
associatedMasterId = "7F20675F-B4B1-45FA-B0F6-A97D5A641B97";
layerId = "7DC4FAC1-E4A5-42A3-9B3A-35576D2139CC";
name = "Feb 26 18, 00:09";
paths = (
{
closed = 1;
nodes = (
"938 799 OFFCURVE",
"664 222 OFFCURVE",
"367 -16 CURVE",
"35 655 LINE",
"337 655 LINE",
"181 418 LINE",
"310 158 LINE",
"394 168 OFFCURVE",
"457 188 OFFCURVE",
"504 213 CURVE SMOOTH",
"712 326 OFFCURVE",
"580 561 OFFCURVE",
"443 658 CURVE"
);
}
);
width = 738;
},
{
associatedMasterId = "7F20675F-B4B1-45FA-B0F6-A97D5A641B97";
layerId = "4ED3576C-601E-4556-8175-EF33D933A9F1";
width = 784;
},
{
associatedMasterId = "7F20675F-B4B1-45FA-B0F6-A97D5A641B97";
layerId = "F0F2F178-3576-446A-9175-039BA718C741";
name = "Apr 2 18, 10:04";
paths = (
{
closed = 1;
nodes = (
"938 799 OFFCURVE",
"664 222 OFFCURVE",
"367 -16 CURVE",
"35 655 LINE",
"337 655 LINE",
"181 418 LINE",
"310 158 LINE",
"693 199 OFFCURVE",
"721 461 OFFCURVE",
"443 658 CURVE"
);
}
);
width = 751;
},
{
associatedMasterId = "7F20675F-B4B1-45FA-B0F6-A97D5A641B97";
layerId = "C110E315-8899-47BC-B9BA-DA74352ABB1E";
name = "Apr 2 18, 23:37";
paths = (
{
closed = 1;
nodes = (
"670 655 LINE",
"395 -16 LINE",
"420 -16 LINE",
"696 655 LINE"
);
},
{
closed = 1;
nodes = (
"297 348 LINE",
"298 655 LINE",
"71 655 LINE",
"58 654 LINE",
"276 340 LINE",
"395 -16 LINE",
"501 213 LINE"
);
}
);
width = 827;
},
{
associatedMasterId = "7F20675F-B4B1-45FA-B0F6-A97D5A641B97";
layerId = "A521EEDC-8E54-4A39-941A-06C44C1BD48F";
paths = (
{
closed = 1;
nodes = (
"389 0 LINE",
"411 0 LINE",
"129 655 LINE",
"107 655 LINE"
);
},
{
closed = 1;
nodes = (
"587 407 LINE",
"577 407 LINE",
"414 186 LINE",
"453 120 LINE"
);
},
{
closed = 1;
nodes = (
"496 655 LINE",
"496 640 LINE",
"614 553 LINE",
"633 553 LINE",
"764 640 LINE",
"764 655 LINE"
);
},
{
closed = 1;
nodes = (
"160 553 LINE",
"181 553 LINE",
"296 640 LINE",
"296 655 LINE",
"36 655 LINE",
"36 640 LINE"
);
},
{
closed = 1;
nodes = (
"626 655 LINE",
"361 107 LINE",
"411 0 LINE",
"729 655 LINE"
);
}
);
width = 799;
}
);
unicode = 0056;
},
{
glyphname = W;
lastChange = "2018-04-11 20:05:19 +0000";
layers = (
{
layerId = "7F20675F-B4B1-45FA-B0F6-A97D5A641B97";
paths = (
{
closed = 1;
nodes = (
"340 0 LINE",
"368 0 LINE",
"706 655 LINE",
"464 655 LINE",
"464 653 LINE",
"540 384 LINE",
"542 384 LINE",
"487 279 LINE",
"271 205 LINE",
"203 348 LINE",
"297 653 LINE",
"297 655 LINE",
"35 655 LINE",
"35 653 LINE"
);
},
{
closed = 1;
nodes = (
"715 0 LINE",
"744 0 LINE",
"1068 655 LINE",
"800 655 LINE",
"800 653 LINE",
"909 384 LINE",
"859 284 LINE",
"634 206 LINE",
"549 364 LINE",
"633 653 LINE",
"633 655 LINE",
"371 655 LINE",
"371 653 LINE"
);
}
);
width = 1103;
},
{
layerId = "1195BCD1-8D25-4D5E-8C85-FC733C7A5356";
width = 800;
},
{
associatedMasterId = "7F20675F-B4B1-45FA-B0F6-A97D5A641B97";
layerId = "ED4F2EB4-EA2A-402E-868C-1FD30592A01D";
name = "Feb 16 18, 17:13";
paths = (
{
closed = 1;
nodes = (
"190 655 LINE",
"418 180 LINE",
"648 655 LINE",
"675 655 LINE",
"361 0 LINE",
"352 0 LINE",
"353 1 LINE",
"35 655 LINE"
);
},
{
closed = 1;
nodes = (
"470 655 LINE",
"698 180 LINE",
"927 655 LINE",
"955 655 LINE",
"641 0 LINE",
"632 0 LINE",
"633 1 LINE",
"315 655 LINE"
);
},
{
closed = 1;
nodes = (
"840 544 OFFCURVE",
"797 599 OFFCURVE",
"745 655 CURVE",
"933 655 LINE",
"852 488 LINE"
);
}
);
width = 990;
},
{
associatedMasterId = "7F20675F-B4B1-45FA-B0F6-A97D5A641B97";
layerId = "016507F2-9063-4F8B-B659-7EDD937BCB64";
name = "Feb 17 18, 19:15";
paths = (
{
closed = 1;
nodes = (
"637 1 LINE",
"638 0 LINE",
"629 0 LINE",
"422 434 LINE",
"449 434 LINE",
"572 180 LINE",
"800 655 LINE",
"955 655 LINE"
);
},
{
closed = 1;
nodes = (
"357 1 LINE",
"358 0 LINE",
"349 0 LINE",
"35 655 LINE",
"274 655 LINE",
"158 448 LINE",
"291 170 LINE",
"520 655 LINE",
"675 655 LINE"
);
}
);
width = 990;
},
{
associatedMasterId = "7F20675F-B4B1-45FA-B0F6-A97D5A641B97";
layerId = "5867162F-2916-45C7-912E-BC0A7AE31F6B";
name = "Feb 25 18, 23:33";
paths = (
{
closed = 1;
nodes = (
"850 799 OFFCURVE",
"681 222 OFFCURVE",
"384 -16 CURVE",
"35 655 LINE",
"337 655 LINE",
"191 555 OFFCURVE",
"141 432 OFFCURVE",
"314 188 CURVE",
"770 179 OFFCURVE",
"581 490 OFFCURVE",
"423 658 CURVE"
);
},
{
closed = 1;
nodes = (
"935 185 OFFCURVE",
"1005 346 OFFCURVE",
"723 658 CURVE",
"1190 800 OFFCURVE",
"971 222 OFFCURVE",
"644 -16 CURVE",
"536 205 LINE"
);
}
);
width = 1026;
},
{
associatedMasterId = "7F20675F-B4B1-45FA-B0F6-A97D5A641B97";
layerId = "4ED3576C-601E-4556-8175-EF33D933A9F1";
width = 875;
},
{
associatedMasterId = "7F20675F-B4B1-45FA-B0F6-A97D5A641B97";
layerId = "A521EEDC-8E54-4A39-941A-06C44C1BD48F";
width = 901;
}
);
unicode = 0057;
},
{
glyphname = X;
lastChange = "2018-04-11 20:05:19 +0000";
layers = (
{
layerId = "7F20675F-B4B1-45FA-B0F6-A97D5A641B97";
paths = (
{
closed = 1;
nodes = (
"643 655 LINE",
"183 0 LINE",
"205 0 LINE",
"666 655 LINE"
);
},
{
closed = 1;
nodes = (
"675 0 LINE",
"175 655 LINE",
"156 655 LINE",
"653 0 LINE"
);
},
{
closed = 1;
nodes = (
"326 655 LINE",
"38 655 LINE",
"38 653 LINE",
"361 385 LINE",
"381 385 LINE",
"328 653 LINE"
);
},
{
closed = 1;
nodes = (
"35 0 LINE",
"330 0 LINE",
"330 3 LINE",
"387 261 LINE",
"367 261 LINE",
"35 2 LINE"
);
},
{
closed = 1;
nodes = (
"799 655 LINE",
"509 655 LINE",
"508 654 LINE",
"455 385 LINE",
"475 385 LINE",
"799 654 LINE"
);
},
{
closed = 1;
nodes = (
"516 0 LINE",
"808 0 LINE",
"808 2 LINE",
"476 261 LINE",
"456 261 LINE",
"513 2 LINE"
);
}
);
width = 843;
},
{
layerId = "1195BCD1-8D25-4D5E-8C85-FC733C7A5356";
paths = (
{
closed = 1;
nodes = (
"664 655 LINE",
"164 0 LINE",
"186 0 LINE",
"687 655 LINE"
);
},
{
closed = 1;
nodes = (
"762 0 LINE",
"254 655 LINE",
"75 655 LINE",
"580 0 LINE"
);
},
{
closed = 1;
nodes = (
"347 655 LINE",
"29 655 LINE",
"29 633 LINE",
"173 633 LINE",
"193 633 LINE",
"347 633 LINE"
);
},
{
closed = 1;
nodes = (
"36 0 LINE",
"351 0 LINE",
"351 23 LINE",
"200 23 LINE",
"180 23 LINE",
"36 23 LINE"
);
},
{
closed = 1;
nodes = (
"800 655 LINE",
"490 655 LINE",
"490 633 LINE",
"650 633 LINE",
"670 633 LINE",
"800 633 LINE"
);
},
{
closed = 1;
nodes = (
"496.992 0 LINE",
"809 0 LINE",
"809 23 LINE",
"659 23 LINE",
"639 23 LINE",
"497 23 LINE"
);
}
);
width = 827;
},
{
associatedMasterId = "7F20675F-B4B1-45FA-B0F6-A97D5A641B97";
layerId = "83A85702-D501-472D-9C2A-C0BA585E88A1";
name = "Apr 3 18, 11:26";
paths = (
{
closed = 1;
nodes = (
"773 129 LINE",
"428 320 LINE",
"259 690 LINE",
"71 526 LINE",
"410 316 LINE",
"571 -21 LINE"
);
},
{
closed = 1;
nodes = (
"436 316 LINE",
"775 526 LINE",
"587 690 LINE",
"418 320 LINE",
"73 129 LINE",
"275 -21 LINE"
);
}
);
width = 846;
},
{
associatedMasterId = "7F20675F-B4B1-45FA-B0F6-A97D5A641B97";
layerId = "6568FE03-BE89-4A33-8D20-B9923A69605D";
name = "Apr 5 18, 12:02";
paths = (
{
closed = 1;
nodes = (
"913 673 OFFCURVE",
"622 777 OFFCURVE",
"544 588 CURVE SMOOTH",
"380 189 LINE SMOOTH",
"316 34 OFFCURVE",
"199 208 OFFCURVE",
"88 268 CURVE",
"-21 -13 OFFCURVE",
"277 -114 OFFCURVE",
"366 102 CURVE SMOOTH",
"530 498 LINE SMOOTH",
"580 620 OFFCURVE",
"693 450 OFFCURVE",
"792 413 CURVE"
);
},
{
closed = 1;
nodes = (
"879 0 LINE",
"460 321 LINE",
"347 655 LINE",
"35 655 LINE",
"443 314 LINE",
"552 0 LINE"
);
}
);
width = 914;
},
{
associatedMasterId = "1195BCD1-8D25-4D5E-8C85-FC733C7A5356";
layerId = "B066B55C-DBAF-496A-A458-0330CE70A886";
name = "Apr 5 18, 12:02";
paths = (
{
closed = 1;
nodes = (
"884 673 OFFCURVE",
"593 777 OFFCURVE",
"515 588 CURVE SMOOTH",
"351 189 LINE SMOOTH",
"287 34 OFFCURVE",
"170 208 OFFCURVE",
"59 268 CURVE",
"-50 -13 OFFCURVE",
"248 -114 OFFCURVE",
"337 102 CURVE SMOOTH",
"501 498 LINE SMOOTH",
"551 620 OFFCURVE",
"664 450 OFFCURVE",
"763 413 CURVE"
);
},
{
closed = 1;
nodes = (
"772 0 LINE",
"424 406 LINE",
"212 655 LINE",
"53 655 LINE",
"359 296 LINE",
"600 0 LINE"
);
}
);
width = 827;
},
{
associatedMasterId = "7F20675F-B4B1-45FA-B0F6-A97D5A641B97";
layerId = "A521EEDC-8E54-4A39-941A-06C44C1BD48F";
paths = (
{
closed = 1;
nodes = (
"657 655 LINE",
"170 0 LINE",
"192 0 LINE",
"680 655 LINE"
);
},
{
closed = 1;
nodes = (
"733 0 LINE",
"228 655 LINE",
"102 655 LINE",
"604 0 LINE"
);
},
{
closed = 1;
nodes = (
"340 655 LINE",
"32 655 LINE",
"32 640 LINE",
"236 550 LINE",
"256 550 LINE",
"341 640 LINE"
);
},
{
closed = 1;
nodes = (
"36 0 LINE",
"344 0 LINE",
"344 16 LINE",
"262 102 LINE",
"242 102 LINE",
"36 16 LINE"
);
},
{
closed = 1;
nodes = (
"800 655 LINE",
"496 655 LINE",
"496 640 LINE",
"585 550 LINE",
"605 550 LINE",
"800 640 LINE"
);
},
{
closed = 1;
nodes = (
"503 0 LINE",
"809 0 LINE",
"809 16 LINE",
"598 102 LINE",
"578 102 LINE",
"502 16 LINE"
);
}
);
width = 832;
}
);
unicode = 0058;
},
{
glyphname = Y;
lastChange = "2018-04-11 20:05:19 +0000";
layers = (
{
layerId = "7F20675F-B4B1-45FA-B0F6-A97D5A641B97";
paths = (
{
closed = 1;
nodes = (
"374 317 LINE",
"357 317 LINE",
"354 0 LINE",
"371 0 LINE"
);
},
{
closed = 1;
nodes = (
"484 2 LINE",
"373 261 LINE",
"357 261 LINE",
"234 2 LINE",
"234 0 LINE",
"484 0 LINE"
);
},
{
closed = 1;
nodes = (
"168 653 LINE",
"359 311 LINE",
"374 312 LINE",
"184 655 LINE",
"168 655 LINE",
"168 655 LINE"
);
},
{
closed = 1;
nodes = (
"692 655 LINE",
"466 655 LINE",
"462 652 LINE",
"393 369 LINE",
"408 369 LINE",
"694 651 LINE"
);
},
{
closed = 1;
nodes = (
"35 651 LINE",
"327 369 LINE",
"342 369 LINE",
"283 654 LINE",
"282 655 LINE",
"36 655 LINE"
);
},
{
closed = 1;
nodes = (
"588 655 LINE",
"571 655 LINE",
"357 312 LINE",
"372 311 LINE"
);
}
);
width = 729;
},
{
layerId = "1195BCD1-8D25-4D5E-8C85-FC733C7A5356";
paths = (
{
closed = 1;
nodes = (
"407 357 LINE",
"277 357 LINE",
"279 0 LINE",
"409 0 LINE"
);
},
{
closed = 1;
nodes = (
"473 23 LINE",
"350 23 LINE",
"334 23 LINE",
"213 23 LINE",
"213 0 LINE",
"473 0 LINE"
);
},
{
closed = 1;
nodes = (
"74 653 LINE",
"277 357 LINE",
"407 357 LINE",
"203 655 LINE",
"147 655 LINE",
"147 655 LINE"
);
},
{
closed = 1;
nodes = (
"671 655 LINE",
"441 655 LINE",
"441 633 LINE",
"547 633 LINE",
"561 633 LINE",
"671 633 LINE"
);
},
{
closed = 1;
nodes = (
"28 633 LINE",
"161 633 LINE",
"173 633 LINE",
"282 633 LINE",
"281 655 LINE",
"28 655 LINE"
);
},
{
closed = 1;
nodes = (
"567 655 LINE",
"550 655 LINE",
"390 357 LINE",
"407 357 LINE"
);
}
);
width = 737;
},
{
associatedMasterId = "7F20675F-B4B1-45FA-B0F6-A97D5A641B97";
layerId = "4ED3576C-601E-4556-8175-EF33D933A9F1";
width = 783;
},
{
associatedMasterId = "7F20675F-B4B1-45FA-B0F6-A97D5A641B97";
layerId = "27BE937B-4F60-4CD2-BD28-39345CA3AE5B";
name = "Apr 3 18, 19:48";
paths = (
{
closed = 1;
nodes = (
"345 321 LINE",
"323 321 LINE",
"212 1 LINE",
"444 1 LINE"
);
},
{
closed = 1;
nodes = (
"260 655 LINE",
"35 655 LINE",
"341 343 LINE"
);
},
{
closed = 1;
nodes = (
"641 655 LINE",
"425 655 LINE",
"325 343 LINE"
);
},
{
closed = 1;
nodes = (
"348 375 LINE",
"322 375 LINE",
"321 157 OFFCURVE",
"319 218 OFFCURVE",
"318 0 CURVE SMOOTH",
"343 0 LINE"
);
}
);
width = 676;
},
{
associatedMasterId = "7F20675F-B4B1-45FA-B0F6-A97D5A641B97";
layerId = "04648A37-700A-4A0C-99DA-BB266AA7F072";
name = "Apr 3 18, 19:50";
paths = (
{
closed = 1;
nodes = (
"345 321 LINE",
"323 321 LINE",
"202 1 LINE",
"454 1 LINE"
);
},
{
closed = 1;
nodes = (
"190 685 LINE",
"25 541 LINE",
"341 343 LINE"
);
},
{
closed = 1;
nodes = (
"640 541 LINE",
"495 685 LINE",
"325 343 LINE"
);
},
{
closed = 1;
nodes = (
"348 375 LINE",
"322 375 LINE",
"321 157 OFFCURVE",
"319 218 OFFCURVE",
"318 0 CURVE SMOOTH",
"343 0 LINE"
);
}
);
width = 676;
},
{
associatedMasterId = "1195BCD1-8D25-4D5E-8C85-FC733C7A5356";
layerId = "9A569F83-0575-42D7-847A-D30310F22615";
name = "Apr 5 18, 09:37";
paths = (
{
closed = 1;
nodes = (
"407 357 LINE",
"280 357 LINE",
"277 0 LINE",
"404 0 LINE"
);
},
{
closed = 1;
nodes = (
"463 23 LINE",
"350 23 LINE",
"334 23 LINE",
"213 23 LINE",
"213 0 LINE",
"463 0 LINE"
);
},
{
closed = 1;
nodes = (
"407 357 LINE",
"218 655 LINE",
"72 655 LINE",
"280 357 LINE"
);
},
{
closed = 1;
nodes = (
"407 357 LINE",
"579 655 LINE",
"559 655 LINE",
"386 357 LINE"
);
},
{
closed = 1;
nodes = (
"305 655 LINE",
"18 655 LINE",
"18 633 LINE",
"136 633 LINE",
"162 633 LINE",
"305 633 LINE"
);
},
{
closed = 1;
nodes = (
"649 655 LINE",
"455 655 LINE",
"455 633 LINE",
"585 633 LINE",
"597 633 LINE",
"649 633 LINE"
);
}
);
width = 685;
},
{
associatedMasterId = "7F20675F-B4B1-45FA-B0F6-A97D5A641B97";
layerId = "8221C5BE-767C-4F13-A89D-D1AE60DD9626";
name = "Apr 5 18, 09:37";
paths = (
{
closed = 1;
nodes = (
"353 357 LINE",
"336 357 LINE",
"333 0 LINE",
"350 0 LINE"
);
},
{
closed = 1;
nodes = (
"463 2 LINE",
"352 261 LINE",
"336 261 LINE",
"213 2 LINE",
"213 0 LINE",
"463 0 LINE"
);
},
{
closed = 1;
nodes = (
"342 352 LINE",
"200 685 LINE",
"35 541 LINE",
"341 351 LINE"
);
},
{
closed = 1;
nodes = (
"345 351 LINE",
"650 541 LINE",
"505 685 LINE",
"344 352 LINE"
);
},
{
closed = 1;
nodes = (
"199 684 LINE",
"36 542 LINE",
"36 540 LINE",
"341 351 LINE",
"342 352 LINE",
"201 684 LINE"
);
},
{
closed = 1;
nodes = (
"649 542 LINE",
"506 684 LINE",
"505 684 LINE",
"344 352 LINE",
"345 351 LINE",
"649 541 LINE"
);
}
);
width = 686;
},
{
associatedMasterId = "7F20675F-B4B1-45FA-B0F6-A97D5A641B97";
layerId = "A521EEDC-8E54-4A39-941A-06C44C1BD48F";
paths = (
{
closed = 1;
nodes = (
"396 344 LINE",
"304 344 LINE",
"304 0 LINE",
"396 0 LINE"
);
},
{
closed = 1;
nodes = (
"477 16 LINE",
"358 102 LINE",
"342 102 LINE",
"220 16 LINE",
"220 0 LINE",
"477 0 LINE"
);
},
{
closed = 1;
nodes = (
"105 653 LINE",
"304 342 LINE",
"396 342 LINE",
"197 655 LINE",
"154 655 LINE",
"154 655 LINE"
);
},
{
closed = 1;
nodes = (
"678 655 LINE",
"449 655 LINE",
"448 639 LINE",
"496 545 LINE",
"510 545 LINE",
"679 639 LINE"
);
},
{
closed = 1;
nodes = (
"30 639 LINE",
"216 545 LINE",
"229 545 LINE",
"282 640 LINE",
"281 655 LINE",
"31 655 LINE"
);
},
{
closed = 1;
nodes = (
"574 655 LINE",
"557 655 LINE",
"379 342 LINE",
"395 342 LINE"
);
}
);
width = 734;
}
);
unicode = 0059;
},
{
glyphname = Z;
lastChange = "2018-04-11 20:05:19 +0000";
layers = (
{
layerId = "7F20675F-B4B1-45FA-B0F6-A97D5A641B97";
paths = (
{
closed = 1;
nodes = (
"35 11 LINE",
"553 637 LINE",
"31 418 LINE",
"32 655 LINE",
"581 655 LINE",
"581 641 LINE",
"63 16 LINE",
"578 237 LINE",
"578 0 LINE",
"35 0 LINE"
);
},
{
closed = 1;
nodes = (
"32 419 LINE",
"31 419 LINE",
"31 655 LINE",
"211 655 LINE",
"211 641 LINE"
);
},
{
closed = 1;
nodes = (
"577 222 LINE",
"578 222 LINE",
"578 9 LINE",
"398 9 LINE",
"398 23 LINE"
);
}
);
width = 616;
},
{
layerId = "1195BCD1-8D25-4D5E-8C85-FC733C7A5356";
paths = (
{
closed = 1;
nodes = (
"35 15 LINE",
"425 633 LINE",
"32 633 LINE",
"32 655 LINE",
"581 655 LINE",
"581 637 LINE",
"196 23 LINE",
"578 23 LINE",
"578 0 LINE",
"35 0 LINE"
);
},
{
closed = 1;
nodes = (
"32 419 LINE",
"31 419 LINE",
"31 655 LINE",
"211 655 LINE",
"211 641 LINE"
);
},
{
closed = 1;
nodes = (
"577 212 LINE",
"578 212 LINE",
"578 0 LINE",
"397 0 LINE",
"398 14 LINE"
);
}
);
width = 616;
},
{
associatedMasterId = "7F20675F-B4B1-45FA-B0F6-A97D5A641B97";
layerId = "8C44FF40-4913-402C-ACD4-1FE1DD920EC5";
name = "Feb 25 18, 16:42";
paths = (
{
closed = 1;
nodes = (
"35 21 LINE",
"509 613 LINE",
"60 463 LINE",
"60 655 LINE",
"571 655 LINE",
"571 637 LINE",
"111 59 LINE",
"578 227 LINE",
"578 7 LINE",
"35 7 LINE"
);
}
);
width = 613;
},
{
associatedMasterId = "7F20675F-B4B1-45FA-B0F6-A97D5A641B97";
layerId = "E30C98AD-39D2-4BB5-9700-443274D2AB3B";
name = "Feb 25 18, 22:44";
paths = (
{
closed = 1;
nodes = (
"35 21 LINE",
"509 613 LINE",
"105 339 OFFCURVE",
"20 437 OFFCURVE",
"60 655 CURVE",
"230 615 OFFCURVE",
"401 615 OFFCURVE",
"571 655 CURVE",
"571 637 LINE",
"111 59 LINE",
"506 339 OFFCURVE",
"659 162 OFFCURVE",
"578 7 CURVE",
"397 57 OFFCURVE",
"216 57 OFFCURVE",
"35 7 CURVE"
);
}
);
width = 634;
},
{
associatedMasterId = "7F20675F-B4B1-45FA-B0F6-A97D5A641B97";
layerId = "4ED3576C-601E-4556-8175-EF33D933A9F1";
width = 739;
},
{
associatedMasterId = "7F20675F-B4B1-45FA-B0F6-A97D5A641B97";
layerId = "A521EEDC-8E54-4A39-941A-06C44C1BD48F";
paths = (
{
closed = 1;
nodes = (
"35 14 LINE",
"468 634 LINE",
"32 561 LINE",
"32 655 LINE",
"581 655 LINE",
"581 638 LINE",
"152 21 LINE",
"578 94 LINE",
"578 0 LINE",
"35 0 LINE"
);
},
{
closed = 1;
nodes = (
"32 419 LINE",
"31 419 LINE",
"31 655 LINE",
"211 655 LINE",
"211 641 LINE"
);
},
{
closed = 1;
nodes = (
"577 215 LINE",
"578 215 LINE",
"578 3 LINE",
"397 3 LINE",
"398 17 LINE"
);
}
);
width = 616;
}
);
unicode = 005A;
},
{
glyphname = a;
lastChange = "2018-04-11 20:05:19 +0000";
layers = (
{
guideLines = (
{
position = "{508, 380}";
}
);
layerId = "7F20675F-B4B1-45FA-B0F6-A97D5A641B97";
paths = (
{
closed = 1;
nodes = (
"376 -21 OFFCURVE",
"451 64 OFFCURVE",
"495 135 CURVE",
"505 135 LINE",
"438 0 LINE",
"598 0 LINE",
"475 349 LINE",
"499 378 LINE",
"597 498 LINE",
"438 498 LINE",
"462 378 LINE",
"452 378 LINE",
"393 482 OFFCURVE",
"300 519 OFFCURVE",
"241 519 CURVE SMOOTH",
"115 519 OFFCURVE",
"35 393 OFFCURVE",
"35 261 CURVE SMOOTH",
"35 120 OFFCURVE",
"121 -21 OFFCURVE",
"265 -21 CURVE SMOOTH"
);
},
{
closed = 1;
nodes = (
"294 70 OFFCURVE",
"6 123 OFFCURVE",
"55 308 CURVE",
"242 433 OFFCURVE",
"518 403 OFFCURVE",
"501 168 CURVE"
);
}
);
width = 633;
},
{
guideLines = (
{
position = "{482, 496}";
}
);
layerId = "1195BCD1-8D25-4D5E-8C85-FC733C7A5356";
paths = (
{
closed = 1;
nodes = (
"355 -17 OFFCURVE",
"442 4 OFFCURVE",
"482 136 CURVE",
"484 136 LINE",
"465 0 LINE",
"625 0 LINE",
"509 251 LINE",
"624 498 LINE",
"465 498 LINE",
"489 329 LINE",
"488 329 LINE",
"449 501 OFFCURVE",
"327 519 OFFCURVE",
"268 519 CURVE SMOOTH",
"95 519 OFFCURVE",
"35 383 OFFCURVE",
"35 251 CURVE SMOOTH",
"35 60 OFFCURVE",
"153 -17 OFFCURVE",
"292 -17 CURVE SMOOTH"
);
},
{
closed = 1;
nodes = (
"124 5 OFFCURVE",
"99 488 OFFCURVE",
"313 488 CURVE",
"526 488 OFFCURVE",
"530 5 OFFCURVE",
"310 5 CURVE"
);
}
);
width = 660;
},
{
associatedMasterId = "7F20675F-B4B1-45FA-B0F6-A97D5A641B97";
guideLines = (
{
position = "{511, 377}";
}
);
layerId = "4911AF05-95CB-4EC2-BD57-4F77BB1C28DE";
name = "Feb 6 18, 13:50";
paths = (
{
closed = 1;
nodes = (
"346 0 LINE",
"519 0 LINE",
"467 55 OFFCURVE",
"436 111 OFFCURVE",
"424 167 CURVE"
);
},
{
closed = 1;
nodes = (
"-54 118 OFFCURVE",
"64 -23 OFFCURVE",
"185 -23 CURVE SMOOTH",
"264.113 -23 OFFCURVE",
"337.431 5.447 OFFCURVE",
"380.102 90.252 CURVE",
"370.056 61.589 OFFCURVE",
"357.294 31.525 OFFCURVE",
"342 0 CURVE",
"396 0 LINE",
"486 203 OFFCURVE",
"455 355 OFFCURVE",
"403 504 CURVE",
"288 439 OFFCURVE",
"186 455 OFFCURVE",
"78 502 CURVE",
"20 394 OFFCURVE",
"100 329 OFFCURVE",
"203 326 CURVE SMOOTH",
"287 324 OFFCURVE",
"340 373 OFFCURVE",
"373 414 CURVE",
"390.703 364.263 OFFCURVE",
"397.036 325.185 OFFCURVE",
"402.182 283.588 CURVE",
"302.147 312.302 OFFCURVE",
"154.742 332.684 OFFCURVE",
"79 255 CURVE SMOOTH"
);
},
{
closed = 1;
nodes = (
"385 163 OFFCURVE",
"264 117 OFFCURVE",
"196 115 CURVE SMOOTH",
"128 113 OFFCURVE",
"57 124 OFFCURVE",
"64 170 CURVE SMOOTH",
"78 265 OFFCURVE",
"283 264 OFFCURVE",
"404 245 CURVE"
);
}
);
width = 539;
},
{
associatedMasterId = "7F20675F-B4B1-45FA-B0F6-A97D5A641B97";
guideLines = (
{
position = "{511, 377}";
}
);
layerId = "D29F997C-ED80-40AA-AF33-2028724D80CB";
name = "Feb 7 18, 18:13";
paths = (
{
closed = 1;
nodes = (
"413 397 LINE",
"355 486 OFFCURVE",
"288 519 OFFCURVE",
"227 519 CURVE SMOOTH",
"167 519 OFFCURVE",
"114 488 OFFCURVE",
"83 448 CURVE SMOOTH",
"49 405 OFFCURVE",
"21 337 OFFCURVE",
"21 261 CURVE SMOOTH",
"21 202 OFFCURVE",
"37 138 OFFCURVE",
"80 76 CURVE SMOOTH",
"119 19 OFFCURVE",
"193 -11 OFFCURVE",
"265 -11 CURVE SMOOTH",
"337 -11 OFFCURVE",
"406 28 OFFCURVE",
"435 110 CURVE",
"490 2 LINE",
"570 2 LINE",
"462 349 LINE",
"584 500 LINE",
"413 500 LINE"
);
},
{
closed = 1;
nodes = (
"135 357 OFFCURVE",
"182 387 OFFCURVE",
"286 387 CURVE SMOOTH",
"368 387 OFFCURVE",
"421 327 OFFCURVE",
"421 242 CURVE SMOOTH",
"421 219 OFFCURVE",
"417 194 OFFCURVE",
"409 168 CURVE",
"354 125 OFFCURVE",
"263 107 OFFCURVE",
"187 123 CURVE SMOOTH",
"114 138 OFFCURVE",
"77 205 OFFCURVE",
"77 272 CURVE SMOOTH",
"77 287 OFFCURVE",
"79 303 OFFCURVE",
"83 318 CURVE"
);
}
);
width = 604;
},
{
associatedMasterId = "7F20675F-B4B1-45FA-B0F6-A97D5A641B97";
guideLines = (
{
position = "{511, 377}";
},
{
position = "{441, 142}";
}
);
layerId = "E7354719-7763-4C16-92BA-88806721795F";
name = "Feb 7 18, 18:15";
paths = (
{
closed = 1;
nodes = (
"413 397 LINE",
"355 486 OFFCURVE",
"288 519 OFFCURVE",
"227 519 CURVE SMOOTH",
"167 519 OFFCURVE",
"114 488 OFFCURVE",
"83 448 CURVE SMOOTH",
"49 405 OFFCURVE",
"21 337 OFFCURVE",
"21 261 CURVE SMOOTH",
"21 202 OFFCURVE",
"37 138 OFFCURVE",
"80 76 CURVE SMOOTH",
"119 19 OFFCURVE",
"193 -11 OFFCURVE",
"265 -11 CURVE SMOOTH",
"337 -11 OFFCURVE",
"411 37 OFFCURVE",
"440 142 CURVE",
"480 0 LINE",
"570 0 LINE",
"462 349 LINE",
"584 500 LINE",
"413 500 LINE"
);
},
{
closed = 1;
nodes = (
"135 357 OFFCURVE",
"182 387 OFFCURVE",
"286 387 CURVE SMOOTH",
"368 387 OFFCURVE",
"421 327 OFFCURVE",
"421 242 CURVE SMOOTH",
"421 219 OFFCURVE",
"417 194 OFFCURVE",
"409 168 CURVE",
"354 125 OFFCURVE",
"263 107 OFFCURVE",
"187 123 CURVE SMOOTH",
"114 138 OFFCURVE",
"77 205 OFFCURVE",
"77 272 CURVE SMOOTH",
"77 287 OFFCURVE",
"79 303 OFFCURVE",
"83 318 CURVE"
);
},
{
closed = 1;
nodes = (
"392 0 LINE",
"521 0 LINE",
"481 132 LINE"
);
}
);
width = 604;
},
{
associatedMasterId = "7F20675F-B4B1-45FA-B0F6-A97D5A641B97";
guideLines = (
{
position = "{511, 377}";
},
{
position = "{441, 142}";
}
);
layerId = "37B08B99-1D2E-4EA7-965B-23B1AEF97A15";
name = "Feb 7 18, 18:17";
paths = (
{
closed = 1;
nodes = (
"423 387 LINE",
"365 506 OFFCURVE",
"288 519 OFFCURVE",
"227 519 CURVE SMOOTH",
"167 519 OFFCURVE",
"114 488 OFFCURVE",
"83 448 CURVE SMOOTH",
"49 405 OFFCURVE",
"21 337 OFFCURVE",
"21 261 CURVE SMOOTH",
"21 202 OFFCURVE",
"37 138 OFFCURVE",
"80 76 CURVE SMOOTH",
"119 19 OFFCURVE",
"193 -11 OFFCURVE",
"265 -11 CURVE SMOOTH",
"337 -11 OFFCURVE",
"406 23 OFFCURVE",
"435 145 CURVE",
"435 0 LINE",
"608 0 LINE",
"462 349 LINE",
"584 500 LINE",
"423 500 LINE"
);
},
{
closed = 1;
nodes = (
"135 357 OFFCURVE",
"182 387 OFFCURVE",
"286 387 CURVE SMOOTH",
"368 387 OFFCURVE",
"421 327 OFFCURVE",
"421 242 CURVE SMOOTH",
"421 219 OFFCURVE",
"417 194 OFFCURVE",
"409 168 CURVE",
"354 125 OFFCURVE",
"263 107 OFFCURVE",
"187 123 CURVE SMOOTH",
"114 138 OFFCURVE",
"77 205 OFFCURVE",
"77 272 CURVE SMOOTH",
"77 287 OFFCURVE",
"79 303 OFFCURVE",
"83 318 CURVE"
);
}
);
width = 628;
},
{
associatedMasterId = "7F20675F-B4B1-45FA-B0F6-A97D5A641B97";
guideLines = (
{
position = "{511, 377}";
},
{
position = "{441, 142}";
}
);
layerId = "E2AE5D07-7488-482A-AC92-26C082EE8F07";
name = "Feb 7 18, 18:25";
paths = (
{
closed = 1;
nodes = (
"423 387 LINE",
"365 506 OFFCURVE",
"288 519 OFFCURVE",
"227 519 CURVE SMOOTH",
"167 519 OFFCURVE",
"114 488 OFFCURVE",
"83 448 CURVE SMOOTH",
"49 405 OFFCURVE",
"21 337 OFFCURVE",
"21 261 CURVE SMOOTH",
"21 202 OFFCURVE",
"37 138 OFFCURVE",
"80 76 CURVE SMOOTH",
"119 19 OFFCURVE",
"193 -11 OFFCURVE",
"265 -11 CURVE SMOOTH",
"337 -11 OFFCURVE",
"406 23 OFFCURVE",
"435 145 CURVE"
);
},
{
closed = 1;
nodes = (
"134 358 OFFCURVE",
"192 390 OFFCURVE",
"286 390 CURVE SMOOTH",
"405 390 OFFCURVE",
"409 302 OFFCURVE",
"409 168 CURVE",
"354 125 OFFCURVE",
"263 107 OFFCURVE",
"187 123 CURVE SMOOTH",
"114 138 OFFCURVE",
"77 205 OFFCURVE",
"77 272 CURVE SMOOTH",
"77 287 OFFCURVE",
"79 303 OFFCURVE",
"83 318 CURVE"
);
},
{
closed = 1;
nodes = (
"409 0 LINE",
"594 0 LINE",
"448 349 LINE",
"570 500 LINE",
"409 500 LINE"
);
}
);
width = 614;
},
{
associatedMasterId = "7F20675F-B4B1-45FA-B0F6-A97D5A641B97";
guideLines = (
{
position = "{511, 377}";
},
{
position = "{441, 142}";
}
);
layerId = "68737D91-1BCD-48F8-A495-FE209D831257";
name = "Feb 9 18, 13:28";
paths = (
{
closed = 1;
nodes = (
"423 387 LINE",
"365 506 OFFCURVE",
"288 519 OFFCURVE",
"227 519 CURVE SMOOTH",
"167 519 OFFCURVE",
"114 488 OFFCURVE",
"83 448 CURVE SMOOTH",
"49 405 OFFCURVE",
"21 337 OFFCURVE",
"21 261 CURVE SMOOTH",
"21 202 OFFCURVE",
"37 138 OFFCURVE",
"80 76 CURVE SMOOTH",
"119 19 OFFCURVE",
"193 -11 OFFCURVE",
"265 -11 CURVE SMOOTH",
"337 -11 OFFCURVE",
"406 23 OFFCURVE",
"435 145 CURVE"
);
},
{
closed = 1;
nodes = (
"134 358 OFFCURVE",
"192 390 OFFCURVE",
"286 390 CURVE SMOOTH",
"405 390 OFFCURVE",
"409 302 OFFCURVE",
"409 168 CURVE",
"354 125 OFFCURVE",
"263 107 OFFCURVE",
"187 123 CURVE SMOOTH",
"114 138 OFFCURVE",
"77 205 OFFCURVE",
"77 272 CURVE SMOOTH",
"77 287 OFFCURVE",
"79 303 OFFCURVE",
"83 318 CURVE"
);
},
{
closed = 1;
nodes = (
"409 135 LINE",
"479 0 LINE",
"564 0 LINE",
"448 349 LINE",
"570 500 LINE",
"409 500 LINE"
);
}
);
width = 590;
},
{
associatedMasterId = "7F20675F-B4B1-45FA-B0F6-A97D5A641B97";
guideLines = (
{
position = "{526, 377}";
},
{
position = "{456, 142}";
}
);
layerId = "C35C23ED-421C-4E2A-BF77-A1F1149E51D2";
name = "Feb 12 18, 11:29";
paths = (
{
closed = 1;
nodes = (
"105 482 OFFCURVE",
"162 517 OFFCURVE",
"252 517 CURVE SMOOTH",
"363 517 OFFCURVE",
"452 454 OFFCURVE",
"474 291 CURVE SMOOTH",
"494 140 OFFCURVE",
"506 93 OFFCURVE",
"522 1 CURVE",
"380 1 LINE",
"399 120 OFFCURVE",
"407 166 OFFCURVE",
"407 283 CURVE SMOOTH",
"407 389 OFFCURVE",
"326 408 OFFCURVE",
"263 408 CURVE SMOOTH",
"188 408 OFFCURVE",
"112 349 OFFCURVE",
"58 280 CURVE",
"58 428 LINE"
);
},
{
closed = 1;
nodes = (
"424 213 LINE",
"388 222 OFFCURVE",
"350 226 OFFCURVE",
"315 226 CURVE SMOOTH",
"249 226 OFFCURVE",
"167 224 OFFCURVE",
"167 160 CURVE SMOOTH",
"167 115 OFFCURVE",
"194 66 OFFCURVE",
"237 66 CURVE SMOOTH",
"279 66 OFFCURVE",
"327 91 OFFCURVE",
"412 146 CURVE",
"415 118 LINE",
"398 83 OFFCURVE",
"299 -15 OFFCURVE",
"167 -15 CURVE SMOOTH",
"65 -15 OFFCURVE",
"32 67 OFFCURVE",
"32 136 CURVE SMOOTH",
"32 230 OFFCURVE",
"120 282 OFFCURVE",
"228 282 CURVE SMOOTH",
"281 282 OFFCURVE",
"348 270 OFFCURVE",
"438 248 CURVE"
);
}
);
width = 557;
},
{
associatedMasterId = "7F20675F-B4B1-45FA-B0F6-A97D5A641B97";
guideLines = (
{
position = "{526, 377}";
},
{
position = "{456, 142}";
}
);
layerId = "88304F3C-F8A9-43FB-B3A2-D8D6D34C34A1";
name = "Feb 15 18, 17:54";
paths = (
{
closed = 1;
nodes = (
"235 604 OFFCURVE",
"527 516 OFFCURVE",
"480 233 CURVE",
"527 1 LINE",
"385 1 LINE",
"433 233 LINE",
"433 355 OFFCURVE",
"324 397 OFFCURVE",
"261 397 CURVE SMOOTH",
"186 397 OFFCURVE",
"112 349 OFFCURVE",
"58 280 CURVE",
"58 428 LINE"
);
},
{
closed = 1;
nodes = (
"434 163 LINE",
"327 233 OFFCURVE",
"149 236 OFFCURVE",
"149 150 CURVE",
"149 64 OFFCURVE",
"297 38 OFFCURVE",
"432 146 CURVE",
"435 118 LINE",
"418 83 OFFCURVE",
"319 -15 OFFCURVE",
"187 -15 CURVE SMOOTH",
"85 -15 OFFCURVE",
"32 67 OFFCURVE",
"32 136 CURVE SMOOTH",
"32 220 OFFCURVE",
"120 292 OFFCURVE",
"228 292 CURVE SMOOTH",
"281 292 OFFCURVE",
"349 269 OFFCURVE",
"448 198 CURVE"
);
}
);
width = 557;
},
{
associatedMasterId = "7F20675F-B4B1-45FA-B0F6-A97D5A641B97";
guideLines = (
{
position = "{508, 377}";
},
{
position = "{438, 142}";
}
);
layerId = "5B9DA1E8-1806-4D09-88FF-158E76E10393";
name = "Feb 15 18, 18:09";
paths = (
{
closed = 1;
nodes = (
"47 391 LINE",
"265 609 OFFCURVE",
"519 536 OFFCURVE",
"457 244 CURVE",
"562 2 LINE",
"388 2 LINE",
"388 85 OFFCURVE",
"388 123 OFFCURVE",
"388 250 CURVE SMOOTH",
"388 395 OFFCURVE",
"272 407 OFFCURVE",
"191 360 CURVE SMOOTH",
"143 332 OFFCURVE",
"95 288 OFFCURVE",
"47 242 CURVE"
);
},
{
closed = 1;
nodes = (
"399 91 LINE",
"319 0 OFFCURVE",
"229 -19 OFFCURVE",
"141 -19 CURVE SMOOTH",
"63 -19 OFFCURVE",
"35 27 OFFCURVE",
"35 106 CURVE SMOOTH",
"35 205 OFFCURVE",
"179 268 OFFCURVE",
"400 330 CURVE",
"400 258 LINE",
"251 213 OFFCURVE",
"188 192 OFFCURVE",
"188 119 CURVE SMOOTH",
"188 46 OFFCURVE",
"356 69 OFFCURVE",
"399 183 CURVE"
);
}
);
width = 597;
},
{
associatedMasterId = "7F20675F-B4B1-45FA-B0F6-A97D5A641B97";
guideLines = (
{
position = "{508, 377}";
},
{
position = "{438, 142}";
}
);
layerId = "0782FDD5-DD7E-48F3-B481-395F0D75D596";
name = "Feb 15 18, 18:12";
paths = (
{
closed = 1;
nodes = (
"47 391 LINE",
"265 609 OFFCURVE",
"439 524 OFFCURVE",
"439 294 CURVE",
"439 2 LINE",
"388 2 LINE",
"388 85 OFFCURVE",
"388 123 OFFCURVE",
"388 250 CURVE SMOOTH",
"388 395 OFFCURVE",
"272 407 OFFCURVE",
"191 360 CURVE SMOOTH",
"143 332 OFFCURVE",
"95 288 OFFCURVE",
"47 242 CURVE"
);
},
{
closed = 1;
nodes = (
"399 91 LINE",
"273 -52 OFFCURVE",
"35 -76 OFFCURVE",
"35 106 CURVE SMOOTH",
"35 215 OFFCURVE",
"179 278 OFFCURVE",
"400 310 CURVE",
"400 265 LINE",
"251 240 OFFCURVE",
"178 208 OFFCURVE",
"178 119 CURVE SMOOTH",
"178 26 OFFCURVE",
"310 7 OFFCURVE",
"399 153 CURVE"
);
}
);
width = 474;
},
{
associatedMasterId = "7F20675F-B4B1-45FA-B0F6-A97D5A641B97";
guideLines = (
{
position = "{508, 377}";
},
{
position = "{438, 142}";
}
);
layerId = "9EE72044-A109-411A-8567-A57E016284CA";
name = "Feb 15 18, 18:15";
paths = (
{
closed = 1;
nodes = (
"47 421 LINE",
"265 599 OFFCURVE",
"439 524 OFFCURVE",
"439 294 CURVE",
"439 2 LINE",
"388 2 LINE",
"388 85 OFFCURVE",
"388 123 OFFCURVE",
"388 250 CURVE SMOOTH",
"388 458 OFFCURVE",
"159 417 OFFCURVE",
"47 272 CURVE"
);
},
{
closed = 1;
nodes = (
"399 91 LINE",
"273 -52 OFFCURVE",
"35 -76 OFFCURVE",
"35 106 CURVE SMOOTH",
"35 215 OFFCURVE",
"179 278 OFFCURVE",
"400 310 CURVE",
"400 265 LINE",
"303 249 OFFCURVE",
"182 204 OFFCURVE",
"148 168 CURVE",
"148 52 OFFCURVE",
"278 -15 OFFCURVE",
"399 153 CURVE"
);
}
);
width = 474;
},
{
associatedMasterId = "1195BCD1-8D25-4D5E-8C85-FC733C7A5356";
guideLines = (
{
position = "{105, 346}";
}
);
layerId = "34B222FC-1FFE-40E4-B600-E34BECC2B65E";
name = "Feb 26 18, 11:25";
paths = (
{
closed = 1;
nodes = (
"438 498 LINE",
"452 377 LINE",
"394 489 OFFCURVE",
"302 519 OFFCURVE",
"241 519 CURVE SMOOTH",
"181 519 OFFCURVE",
"128 488 OFFCURVE",
"97 448 CURVE SMOOTH",
"63 405 OFFCURVE",
"35 337 OFFCURVE",
"35 261 CURVE SMOOTH",
"35 202 OFFCURVE",
"51 138 OFFCURVE",
"94 76 CURVE SMOOTH",
"133 19 OFFCURVE",
"193 -11 OFFCURVE",
"265 -11 CURVE SMOOTH",
"347 -11 OFFCURVE",
"464 65 OFFCURVE",
"493 147 CURVE",
"438 0 LINE",
"598 0 LINE",
"475 349 LINE",
"597 498 LINE"
);
},
{
closed = 1;
nodes = (
"12 149 OFFCURVE",
"192 513 OFFCURVE",
"407 417 CURVE",
"559 76 OFFCURVE",
"285 -38 OFFCURVE",
"167 43 CURVE SMOOTH"
);
}
);
width = 633;
},
{
associatedMasterId = "1195BCD1-8D25-4D5E-8C85-FC733C7A5356";
guideLines = (
{
position = "{132, 346}";
}
);
layerId = "891BD1E4-213D-4ED0-80DD-2C2A541028ED";
name = "Feb 27 18, 14:21";
paths = (
{
closed = 1;
nodes = (
"465 498 LINE",
"492 311 LINE",
"457 500 OFFCURVE",
"329 519 OFFCURVE",
"268 519 CURVE SMOOTH",
"95 519 OFFCURVE",
"35 403 OFFCURVE",
"35 271 CURVE SMOOTH",
"35 80 OFFCURVE",
"163 -17 OFFCURVE",
"302 -17 CURVE SMOOTH",
"384 -17 OFFCURVE",
"495 18 OFFCURVE",
"503 282 CURVE",
"465 0 LINE",
"625 0 LINE",
"510 253 LINE",
"624 498 LINE"
);
},
{
closed = 1;
nodes = (
"546 454 OFFCURVE",
"498 -50 OFFCURVE",
"280 15 CURVE",
"114 88 OFFCURVE",
"119 454 OFFCURVE",
"333 454 CURVE"
);
}
);
width = 660;
},
{
associatedMasterId = "1195BCD1-8D25-4D5E-8C85-FC733C7A5356";
guideLines = (
{
position = "{132, 346}";
}
);
layerId = "30904FAD-BD84-4AE4-8B30-1F71268AC86A";
name = "Feb 27 18, 17:21";
paths = (
{
closed = 1;
nodes = (
"465 498 LINE",
"492 311 LINE",
"457 500 OFFCURVE",
"329 519 OFFCURVE",
"268 519 CURVE SMOOTH",
"95 519 OFFCURVE",
"35 423 OFFCURVE",
"35 281 CURVE SMOOTH",
"35 90 OFFCURVE",
"163 -17 OFFCURVE",
"302 -17 CURVE SMOOTH",
"384 -17 OFFCURVE",
"497 13 OFFCURVE",
"496 282 CURVE",
"465 0 LINE",
"625 0 LINE",
"510 253 LINE",
"624 498 LINE"
);
},
{
closed = 1;
nodes = (
"521 366 OFFCURVE",
"507 -44 OFFCURVE",
"251 16 CURVE",
"148 259 OFFCURVE",
"125 534 OFFCURVE",
"352 475 CURVE"
);
}
);
width = 660;
},
{
associatedMasterId = "7F20675F-B4B1-45FA-B0F6-A97D5A641B97";
layerId = "4ED3576C-601E-4556-8175-EF33D933A9F1";
paths = (
{
closed = 1;
nodes = (
"456 498 LINE",
"479 333 LINE",
"436 496 OFFCURVE",
"320 519 OFFCURVE",
"259 519 CURVE SMOOTH",
"102 519 OFFCURVE",
"35 386 OFFCURVE",
"35 254 CURVE SMOOTH",
"35 80 OFFCURVE",
"149 -18 OFFCURVE",
"290 -18 CURVE SMOOTH",
"372 -18 OFFCURVE",
"485 34 OFFCURVE",
"500 237 CURVE",
"456 0 LINE",
"616 0 LINE",
"498 222 LINE",
"615 498 LINE"
);
},
{
closed = 1;
nodes = (
"434 463 OFFCURVE",
"524 144 OFFCURVE",
"372 66 CURVE",
"179 33 OFFCURVE",
"71 360 OFFCURVE",
"230 421 CURVE"
);
}
);
width = 651;
},
{
associatedMasterId = "7F20675F-B4B1-45FA-B0F6-A97D5A641B97";
layerId = "A521EEDC-8E54-4A39-941A-06C44C1BD48F";
width = 651;
}
);
unicode = 0061;
},
{
glyphname = adieresis;
lastChange = "2018-04-11 20:05:19 +0000";
layers = (
{
components = (
{
name = a;
}
);
layerId = "7F20675F-B4B1-45FA-B0F6-A97D5A641B97";
paths = (
{
closed = 1;
nodes = (
"217 578 OFFCURVE",
"246 600 OFFCURVE",
"246 628 CURVE SMOOTH",
"246 656 OFFCURVE",
"217 679 OFFCURVE",
"189 679 CURVE SMOOTH",
"162 679 OFFCURVE",
"133 656 OFFCURVE",
"133 628 CURVE SMOOTH",
"133 600 OFFCURVE",
"162 578 OFFCURVE",
"189 578 CURVE SMOOTH"
);
},
{
closed = 1;
nodes = (
"372 578 OFFCURVE",
"400 600 OFFCURVE",
"400 628 CURVE SMOOTH",
"400 656 OFFCURVE",
"372 679 OFFCURVE",
"344 679 CURVE SMOOTH",
"317 679 OFFCURVE",
"288 656 OFFCURVE",
"288 628 CURVE SMOOTH",
"288 600 OFFCURVE",
"317 578 OFFCURVE",
"344 578 CURVE SMOOTH"
);
}
);
width = 633;
},
{
components = (
{
name = a;
}
);
layerId = "1195BCD1-8D25-4D5E-8C85-FC733C7A5356";
paths = (
{
closed = 1;
nodes = (
"267 578 OFFCURVE",
"296 600 OFFCURVE",
"296 628 CURVE SMOOTH",
"296 656 OFFCURVE",
"267 679 OFFCURVE",
"239 679 CURVE SMOOTH",
"212 679 OFFCURVE",
"183 656 OFFCURVE",
"183 628 CURVE SMOOTH",
"183 600 OFFCURVE",
"212 578 OFFCURVE",
"239 578 CURVE SMOOTH"
);
},
{
closed = 1;
nodes = (
"422 578 OFFCURVE",
"450 600 OFFCURVE",
"450 628 CURVE SMOOTH",
"450 656 OFFCURVE",
"422 679 OFFCURVE",
"394 679 CURVE SMOOTH",
"367 679 OFFCURVE",
"338 656 OFFCURVE",
"338 628 CURVE SMOOTH",
"338 600 OFFCURVE",
"367 578 OFFCURVE",
"394 578 CURVE SMOOTH"
);
}
);
width = 660;
},
{
associatedMasterId = "7F20675F-B4B1-45FA-B0F6-A97D5A641B97";
layerId = "4ED3576C-601E-4556-8175-EF33D933A9F1";
width = 600;
},
{
associatedMasterId = "7F20675F-B4B1-45FA-B0F6-A97D5A641B97";
components = (
{
name = a;
}
);
layerId = "A521EEDC-8E54-4A39-941A-06C44C1BD48F";
paths = (
{
closed = 1;
nodes = (
"250 578 OFFCURVE",
"279 600 OFFCURVE",
"279 628 CURVE SMOOTH",
"279 656 OFFCURVE",
"250 679 OFFCURVE",
"222 679 CURVE SMOOTH",
"195 679 OFFCURVE",
"166 656 OFFCURVE",
"166 628 CURVE SMOOTH",
"166 600 OFFCURVE",
"195 578 OFFCURVE",
"222 578 CURVE SMOOTH"
);
},
{
closed = 1;
nodes = (
"405 578 OFFCURVE",
"433 600 OFFCURVE",
"433 628 CURVE SMOOTH",
"433 656 OFFCURVE",
"405 679 OFFCURVE",
"377 679 CURVE SMOOTH",
"350 679 OFFCURVE",
"321 656 OFFCURVE",
"321 628 CURVE SMOOTH",
"321 600 OFFCURVE",
"350 578 OFFCURVE",
"377 578 CURVE SMOOTH"
);
}
);
width = 651;
}
);
unicode = 00E4;
},
